<?xml version="1.0" encoding="UTF-8"?>
<svg id="Layer_1" data-name="Layer 1" xmlns="http://www.w3.org/2000/svg" viewBox="0 0 1521.55 778.28">
  <defs>
    <style>
      .cls-1 {
        fill: #27266e;
        stroke-width: 0px;
      }
    </style>
  </defs>
  <path class="cls-1" d="M196.21,418.52v217.2h-108.6v-217.2h-39v-90.6h39v-46.2c0-25.59,2.4-45.99,7.2-61.2,3.99-12.8,10.4-24.69,19.2-35.7,8.79-11,19.1-20.49,30.9-28.5,11.79-8,24.5-14.19,38.1-18.6,13.59-4.4,27-6.6,40.2-6.6,9.2,0,17.7,1,25.5,3,7.8,2.01,15.69,4.8,23.7,8.4v94.8c-7.2-3.6-13.9-6.3-20.1-8.1-6.21-1.8-12.7-2.7-19.5-2.7-4.41,0-8.91.7-13.5,2.1-4.6,1.41-8.91,4.3-12.9,8.7-4,4.41-6.7,10.71-8.1,18.9-1.41,8.2-2.1,19.3-2.1,33.3v38.4h76.2v90.6h-76.2Z"/>
  <path class="cls-1" d="M306.6,479.12c0-22.8,4.59-44.1,13.8-63.9,9.2-19.8,21.99-36.99,38.4-51.6,16.4-14.6,35.9-26.1,58.5-34.5,22.59-8.4,47.3-12.6,74.1-12.6s50.9,4.11,73.5,12.3c22.59,8.2,42.2,19.6,58.8,34.2,16.59,14.61,29.49,32.01,38.7,52.2,9.2,20.2,13.8,42.51,13.8,66.9s-4.71,46.71-14.1,66.9c-9.4,20.2-22.3,37.6-38.7,52.2-16.41,14.61-36.1,25.9-59.1,33.9-23.01,8-47.91,12-74.7,12s-50.8-4-73.2-12c-22.41-8-41.7-19.4-57.9-34.2-16.2-14.79-28.9-32.49-38.1-53.1-9.21-20.6-13.8-43.5-13.8-68.7ZM421.2,480.32c0,10.41,1.89,19.9,5.7,28.5,3.8,8.61,8.79,16.11,15,22.5,6.2,6.4,13.59,11.4,22.2,15,8.6,3.6,17.7,5.4,27.3,5.4s18.69-1.8,27.3-5.4c8.6-3.6,15.99-8.6,22.2-15,6.2-6.39,11.19-13.89,15-22.5,3.8-8.6,5.7-17.9,5.7-27.9s-1.9-18.69-5.7-27.3c-3.81-8.6-8.8-16.1-15-22.5-6.21-6.39-13.6-11.4-22.2-15-8.61-3.6-17.7-5.4-27.3-5.4s-18.7,1.8-27.3,5.4c-8.61,3.6-16,8.61-22.2,15-6.21,6.4-11.2,13.8-15,22.2-3.81,8.4-5.7,17.4-5.7,27Z"/>
  <path class="cls-1" d="M847.2,137.72v498h-108.6V137.72h108.6Z"/>
  <path class="cls-1" d="M914.39,209.72c0-8.4,1.59-16.29,4.8-23.7,3.2-7.4,7.59-13.89,13.2-19.5,5.6-5.6,12.09-9.99,19.5-13.2,7.4-3.2,15.3-4.8,23.7-4.8s16.29,1.6,23.7,4.8c7.4,3.21,13.89,7.6,19.5,13.2,5.6,5.61,9.99,12.1,13.2,19.5,3.2,7.41,4.8,15.3,4.8,23.7s-1.6,16.3-4.8,23.7c-3.21,7.41-7.6,13.9-13.2,19.5s-12.1,10-19.5,13.2c-7.41,3.21-15.3,4.8-23.7,4.8s-16.3-1.59-23.7-4.8c-7.41-3.2-13.9-7.59-19.5-13.2-5.61-5.6-10-12.09-13.2-19.5-3.21-7.4-4.8-15.3-4.8-23.7ZM1030.19,327.92v307.8h-108.6v-307.8h108.6Z"/>
  <path class="cls-1" d="M1092.59,479.12c0-22.8,4.59-44.1,13.8-63.9,9.2-19.8,21.99-36.99,38.4-51.6,16.4-14.6,35.9-26.1,58.5-34.5,22.59-8.4,47.3-12.6,74.1-12.6s50.9,4.11,73.5,12.3c22.59,8.2,42.2,19.6,58.8,34.2,16.59,14.61,29.49,32.01,38.7,52.2,9.2,20.2,13.8,42.51,13.8,66.9s-4.71,46.71-14.1,66.9c-9.4,20.2-22.3,37.6-38.7,52.2-16.41,14.61-36.1,25.9-59.1,33.9-23.01,8-47.91,12-74.7,12s-50.8-4-73.2-12c-22.41-8-41.7-19.4-57.9-34.2-16.2-14.79-28.9-32.49-38.1-53.1-9.21-20.6-13.8-43.5-13.8-68.7ZM1207.19,480.32c0,10.41,1.89,19.9,5.7,28.5,3.8,8.61,8.79,16.11,15,22.5,6.2,6.4,13.59,11.4,22.2,15,8.6,3.6,17.7,5.4,27.3,5.4s18.69-1.8,27.3-5.4c8.6-3.6,15.99-8.6,22.2-15,6.2-6.39,11.19-13.89,15-22.5,3.8-8.6,5.7-17.9,5.7-27.9s-1.9-18.69-5.7-27.3c-3.81-8.6-8.8-16.1-15-22.5-6.21-6.39-13.6-11.4-22.2-15-8.61-3.6-17.7-5.4-27.3-5.4s-18.7,1.8-27.3,5.4c-8.61,3.6-16,8.61-22.2,15-6.21,6.4-11.2,13.8-15,22.2-3.81,8.4-5.7,17.4-5.7,27Z"/>
</svg>