<?xml version="1.0" encoding="UTF-8"?>
<svg id="Layer_1" data-name="Layer 1" xmlns="http://www.w3.org/2000/svg" viewBox="0 0 3436.11 2164.15">
  <defs>
    <style>
      .cls-1 {
        fill: #e06536;
        stroke-width: 0px;
      }
    </style>
  </defs>
  <path class="cls-1" d="M1941.41,910.95c-6.33-2.96-9.48-5.41-13.12-11.23-1.33-2.12-10.41,20.57-12.89,19.81-1.63-.5,1.88-10.97.12-13.52-1.71-2.46-25.29,32.7-47.28,32.9-2.14.02,4.05-8,1.12-13.12-3.03-5.3-11.44-2.18-17.16-8.48-4.34-4.78-4.76-12.36-2.82-13.5,2.07-1.22,5.43,5.73,11.88,5.94,5.92.19,12.61-5.35,14.24-11.57,1.71-6.48-2.93-10.4-.21-14.41,2.53-3.74,7.39-1.57,9.97-5.39,2.29-3.39,4.72-2.46,1.08-10.08-2.8-5.86.66-14.04-.15-15.28-1.05-1.59-3.73,1.5-15.84.71-6.88-.45-9.96-3.85-13.86-.27-2.71,2.49.05,5.98-2.49,8.77-4.91,5.41-5.07-16.02-24.02.79-11.15,9.9,1.76,19.54-2.73,21.88-2.43,1.27-6.44-2.04-7.03-2.52-6.33-5.22-3.38-12.3-9.03-19.96-4.19-5.67-8.04-4.83-9.73-8.16-2.56-5.04,0-19.43,31.27-41.53-13.29-2.81-25.09-2.56-24.88-5.54.27-3.84,24.58-11.27,23.3-12.78-12.61-14.86-23.28-22.07-43.12-32.29-2.49-1.28-3.48,24.48-6.79,25.17-2.76.57-7.63-11.45-11.7-22.98-11.59,14.01-18.51,35.03-34.76,42.02-1.65-3.16-4.51-7.32-9.32-9.47-8.4-3.76-16.08,1.61-20.14-2.76-2.36-2.55-2.57-7.41-.59-10.04,3.18-4.21,9.95-.03,15.23-4.16,4.97-3.89,6.14-13.21,2.78-18.39-2.99-4.61-9.13-5.27-8.84-6.86.34-1.86,8.62.01,10.87-3.66,1.37-2.24.88-5.65-5.03-14.78-5.94-9.18-4.12-13.59-6.21-12.31-8.67,5.31-23.14.57-25.3,8.85-1.22,4.67,1.91,9.21-.27,10.93-1.77,1.39-4.18-1.29-7.88-.76-5.76.83-11.07,8.95-11.12,16.33-.05,8.35,6.65,12.9,5.03,14.78-1.72,2-11.19-.97-17.15-7.61-3.84-4.27-3.77-7.33-7.12-8.63-5.8-2.27-11.83,4.67-13.49,3.26-3.84-3.24,23.94-49.59,22.38-52.54-.64-1.2-12.34,4.26-9.3-.13,1.13-.82,1.54-.84,2.18-1.35.7-.56,2.24-1.8,2.24-1.8,0,0,1.34-1.28,2.14-2.22.92-1.09,6.47-8.53,4.27-8.71-4.06-.33-7.54-2.31-12.78-7.24-12.86,9.71-6.45,20.78-11.39,24.02-.82.54-4.2-.29-7.13,1.12-3.1,1.49-14.63,13.75-12.19,24.69,1.71,7.68,5.33,8.76,5.25,15-.1,7.64-6.51,7.92-8.69,18.26-1.44,6.85,2.21,10.79-1.54,14-5.51,4.72-5.91-1.02-10.4,5.83-3.49,5.33-4.16,13.08,3.36,20.05,2.55,2.36-5.29,4.83-8.23,4.93-5.09.17-7.77-4.47-11.02-6.39-12.69-7.52-52.83,15.31-57.42,46.29-2.03,13.67,4.97,14.76,3.06,29.66-3.04,23.76-21.42,25.72-25.92,49.32-3.51,18.44,6.51,23.51.15,39.32-3.36,8.33-9.4,14.15-21.5,25.77-13.53,13-22.57,17.73-22.98,27.55-.23,5.49,2.35,9.83,3.03,10.93,6.89,11.27,20.83,8.45,23.15,15.89,2.29,7.32-10.33,12.88-8.25,23.03,1.33,6.5,8.23,7.91,6.89,13.74-.99,4.27-4.44,7.4-3.17,10.75,1.42,3.75,7.89,3.54,9.66,7.77.97,2.32-.99,4.94-2.28,7.19-5.25,9.19-4.76,21.9-1.97,27.72,2.72,5.69,9.15,7.93,38.38,12.79,33.54,5.58,31.27,3.66,36.36,5.66,30.07,11.84,40.29,51.69,42.42,59.99,1.27,4.94,6.2,25.63.77,51.54-4.79,22.87-15.51,39.55-27.77,58.65-18.09,28.18-33.88,42.75-28.32,53.41,2.12,4.06,6.36,5.7,8.69,6.55,19.85,7.32,43.36-13.3,63.1-26.24,49.55-32.48,120.86-46.38,159.58-53.93,9.2-1.79,30.06-5.53,36.46-20.11,4.03-9.19.77-19.14-1.83-26.7-6.04-17.61-15.95-25.45-30.7-42.03-11.49-12.92-24.35-27.38-34.59-47.22-6.69-12.96-22.69-43.93-10.9-58.55,1.26-1.57,4.38-1.23,22.78-8.93,13.36-5.59,21.84-8.06,29.79-15.11,17.71-15.73,18.21-23.14,23.7-38.33.86-2.39,1.42-28.72-1.93-42.32-.34-1.38-1.06-4.21.38-6.5,2.31-3.7,8-2.49,9.09-5.38,1.15-3.04-4.08-7.2-3.18-8.25.94-1.11,6.51,3.77,9.21,2.05,2.31-1.47-.01-6.18,2.05-9.2,1.66-2.45,14.17,6.19,21-.74,5.62-9.58-1.08-14.73,4.09-15.8,7.97-1.64,5.63.86,10.48-.16,9.74-2.04,10.24-14.75,19.84-16.9,4.64-1.04,4.87,1.86,11.38,1.58,9.38-.41,19.43-6.94,21.62-15.18,1.35-5.08-2.03-9.03,1.3-12.14,9.23-8.63,23.51-13.57,20.34-15.05ZM1687.33,775.82c-.84-1.89-.04-12.11,1.88-16.71,2.07-4.97,10.92-10.99,12.85-11.04,2.18-.05,3.2,10.8.63,17.3-3.13,7.91-14.74,11.82-15.36,10.45ZM1795.94,808.7c.11,7.08-5.55,12.9-12.63,13.01-7.08.11-12.9-5.55-13.01-12.63-.11-7.08,5.55-12.9,12.63-13.01,7.08-.11,12.9,5.55,13.01,12.63ZM1842.19,890.43c-.09-2.06,4.39-11.28,7.86-14.86,3.75-3.86,14.19-6.23,16-5.57,2.05.75-.97,11.22-5.75,16.33-5.81,6.21-18.05,5.61-18.11,4.1Z"/>
</svg>