<?xml version="1.0" encoding="UTF-8"?>
<svg id="Layer_1" data-name="Layer 1" xmlns="http://www.w3.org/2000/svg" viewBox="0 0 1892.24 3039.01">
  <defs>
    <style>
      .cls-1 {
        fill: #d5e1eb;
      }

      .cls-1, .cls-2 {
        stroke-width: 0px;
      }

      .cls-2 {
        fill: #f15b22;
      }
    </style>
  </defs>
  <rect class="cls-1" width="1892.24" height="3039.01"/>
  <path class="cls-2" d="M1325.22,1516.82v-11.54s-.01-16.44-.01-16.44h0v-2.06c-22.93.01-41.53-18.56-41.54-41.49-.01-22.93,18.56-41.53,41.49-41.54l-.02-43.73c-22.93.01-41.52-18.56-41.54-41.49-.01-22.93,18.56-41.52,41.49-41.54l-.02-38.3c-22.93.01-41.52-18.57-41.54-41.49-.01-22.93,18.56-41.52,41.49-41.54l-.02-45.54c-22.93.01-41.52-18.56-41.54-41.49-.01-22.93,18.56-41.52,41.49-41.54l-.02-43.73c-22.93.01-41.52-18.57-41.54-41.49-.01-22.93,18.56-41.52,41.49-41.54l-.02-38.3c-22.93.01-41.52-18.57-41.54-41.49-.01-22.93,18.56-41.52,41.49-41.54l-.02-37.83c-22.93.01-41.52-18.56-41.54-41.49-.01-22.93,18.56-41.53,41.49-41.54v-.83s-.01-25.86-.01-25.86v-3.53s0-13.52,0-13.52v-5.54s-6.7,0-6.7,0h-13.96s-.06,0-.06,0h-27.73s-3.79.02-3.79.02c.01,22.93-18.56,41.52-41.49,41.54-22.93.01-41.53-18.56-41.54-41.49l-43.73.02c.01,22.93-18.57,41.52-41.49,41.54-22.93.01-41.52-18.56-41.54-41.49l-38.3.02c.01,22.93-18.57,41.52-41.49,41.54-22.93.01-41.52-18.56-41.54-41.49l-37.83.02c.01,22.93-18.56,41.52-41.49,41.54-22.93.01-41.53-18.56-41.54-41.49l-43.73.02c.01,22.93-18.56,41.52-41.49,41.54-22.93.01-41.53-18.56-41.54-41.49l-38.3.02c.01,22.93-18.56,41.52-41.49,41.54-22.93.01-41.52-18.56-41.54-41.49l-54.5.03v13.32s.03,34.14.03,34.14v.98s8.97,0,8.97,0c18.62,4.09,32.56,20.67,32.57,40.52.01,22.93-18.56,41.53-41.49,41.54l.02,43.73c22.93-.01,41.52,18.56,41.54,41.49.01,22.93-18.56,41.52-41.49,41.54l.02,38.3c22.93-.01,41.52,18.57,41.54,41.49.01,22.93-18.56,41.52-41.49,41.54l.02,45.54c22.93-.01,41.52,18.57,41.54,41.49.01,22.93-18.56,41.52-41.49,41.54l.02,43.73c22.93-.01,41.52,18.57,41.54,41.49.01,22.93-18.56,41.52-41.49,41.54l.02,38.3c22.93-.01,41.52,18.57,41.54,41.49.01,22.93-18.56,41.52-41.49,41.54l.02,37.83c22.93-.01,41.52,18.56,41.54,41.49.01,22.93-18.56,41.53-41.49,41.54v4.94s.02,38.79.02,38.79v8.58s23.11-.01,23.11-.01h2.15s21.05-.01,21.05-.01h2.12s.98,0,.98,0c-.01-22.93,18.57-41.52,41.49-41.54,22.93-.01,41.52,18.56,41.54,41.49l38.3-.02c-.01-22.93,18.56-41.52,41.49-41.54,22.93-.01,41.53,18.56,41.54,41.49l44.2-.02c-.01-22.93,18.56-41.52,41.49-41.54,22.93-.01,41.53,18.56,41.54,41.49l43.73-.02c-.01-22.93,18.56-41.52,41.49-41.54,22.93-.01,41.53,18.56,41.54,41.49l38.3-.02c-.01-22.93,18.57-41.52,41.49-41.54,22.93-.01,41.52,18.56,41.54,41.49l45.54-.02c-.01-22.93,18.56-41.52,41.49-41.54,22.93-.01,41.53,18.56,41.54,41.49h.69s19.67-.01,19.67-.01h6.78s16.59-.01,16.59-.01h5.4s-.01-20.46-.01-20.46ZM631.1,1443.34l-.39-722.84,581.38-.31.39,722.84-581.38.31Z"/>
</svg>