<?xml version="1.0" encoding="UTF-8"?>
<svg id="Layer_1" data-name="Layer 1" xmlns="http://www.w3.org/2000/svg" viewBox="0 0 2415.75 43.6">
  <defs>
    <style>
      .cls-1 {
        fill: #fff;
        stroke-width: 0px;
      }
    </style>
  </defs>
  <path class="cls-1" d="M0,0v6.2h46.15c0,20.65,16.74,37.4,37.4,37.4S120.94,26.85,120.94,6.2h39.39c0,20.65,16.74,37.4,37.4,37.4s37.4-16.74,37.4-37.4h34.5c0,20.65,16.74,37.4,37.4,37.4s37.4-16.74,37.4-37.4h41.02c0,20.65,16.74,37.4,37.4,37.4s37.4-16.74,37.4-37.4h39.39c0,20.65,16.74,37.4,37.4,37.4s37.4-16.74,37.4-37.4h34.5c0,20.65,16.74,37.4,37.4,37.4s37.4-16.74,37.4-37.4h39.9c0,20.65,16.74,37.4,37.4,37.4s37.4-16.74,37.4-37.4h39.39c0,20.65,16.74,37.4,37.4,37.4s37.4-16.74,37.4-37.4h34.5c0,20.65,16.74,37.4,37.4,37.4s37.4-16.74,37.4-37.4h41.02c0,20.65,16.74,37.4,37.4,37.4s37.4-16.74,37.4-37.4h39.39c0,20.65,16.74,37.4,37.4,37.4s37.4-16.74,37.4-37.4h34.5c0,20.65,16.74,37.4,37.4,37.4s37.4-16.74,37.4-37.4h39.81c0,20.65,16.74,37.4,37.4,37.4s37.4-16.74,37.4-37.4h39.39c0,20.65,16.74,37.4,37.4,37.4s37.4-16.74,37.4-37.4h34.5c0,20.65,16.74,37.4,37.4,37.4s37.4-16.74,37.4-37.4h41.02c0,20.65,16.74,37.4,37.4,37.4s37.4-16.74,37.4-37.4h39.39c0,20.65,16.74,37.4,37.4,37.4s37.4-16.74,37.4-37.4h34.5c0,20.65,16.74,37.4,37.4,37.4s37.4-16.74,37.4-37.4h34.08c0,20.65,16.74,37.4,37.4,37.4s37.4-16.74,37.4-37.4h39.39c0,20.65,16.74,37.4,37.4,37.4s37.4-16.74,37.4-37.4h34.5c0,20.65,16.74,37.4,37.4,37.4s37.4-16.74,37.4-37.4h44.79V0H0Z"/>
</svg>