<?xml version="1.0" encoding="UTF-8"?>
<svg id="Layer_1" data-name="Layer 1" xmlns="http://www.w3.org/2000/svg" viewBox="0 0 3436.11 2164.15">
  <defs>
    <style>
      .cls-1 {
        fill: #e06536;
      }

      .cls-1, .cls-2 {
        stroke-width: 0px;
      }

      .cls-2 {
        fill: #d7e1ea;
      }
    </style>
  </defs>
  <rect class="cls-2" x="1.74" y="0" width="3436.11" height="2164.15"/>
  <path class="cls-1" d="M2090.53,550.94l-14.65.08h-.06s-29.1.16-29.1.16l-3.98.02c.13,24.06-19.27,43.67-43.33,43.8-24.06.13-43.67-19.27-43.8-43.33l-45.89.25c.13,24.06-19.27,43.67-43.33,43.8-24.06.13-43.67-19.27-43.8-43.33l-40.19.22c.13,24.06-19.27,43.67-43.33,43.8-24.06.13-43.67-19.27-43.8-43.33l-39.7.21c.13,24.06-19.27,43.67-43.33,43.8-24.06.13-43.67-19.27-43.8-43.33l-45.89.25c.13,24.06-19.27,43.67-43.33,43.8-24.06.13-43.67-19.27-43.8-43.33l-40.19.22c.13,24.06-19.27,43.67-43.33,43.8-24.06.13-43.67-19.27-43.8-43.33l-57.19.31.08,13.98.19,35.82v1.03s9.42-.05,9.42-.05c19.56,4.2,34.27,21.52,34.39,42.35.13,24.06-19.27,43.67-43.33,43.8l.25,45.89c24.06-.13,43.67,19.27,43.8,43.33.13,24.06-19.27,43.67-43.33,43.8l.22,40.19c24.06-.13,43.67,19.27,43.8,43.33.13,24.06-19.27,43.67-43.33,43.8l.26,47.79c24.06-.13,43.67,19.27,43.8,43.33.13,24.06-19.27,43.67-43.33,43.8l.25,45.89c24.06-.13,43.67,19.27,43.8,43.33.13,24.06-19.27,43.67-43.33,43.8l.22,40.19c24.06-.13,43.67,19.27,43.8,43.33.13,24.06-19.27,43.67-43.33,43.8l.21,39.7c24.06-.13,43.67,19.27,43.8,43.33.13,24.06-19.27,43.67-43.33,43.8l.03,5.18.22,40.71.05,9,24.25-.13h2.26s22.09-.13,22.09-.13h2.23s1.03-.02,1.03-.02c-.13-24.06,19.27-43.67,43.33-43.8,24.06-.13,43.67,19.27,43.8,43.33l40.19-.22c-.13-24.06,19.27-43.67,43.33-43.8,24.06-.13,43.67,19.27,43.8,43.33l46.38-.25c-.13-24.06,19.27-43.67,43.33-43.8,24.06-.13,43.67,19.27,43.8,43.33l45.89-.25c-.13-24.06,19.27-43.67,43.33-43.8,24.06-.13,43.67,19.27,43.8,43.33l40.19-.22c-.13-24.06,19.27-43.67,43.33-43.8,24.06-.13,43.67,19.27,43.8,43.33l47.79-.26c-.13-24.06,19.27-43.67,43.33-43.8,24.06-.13,43.67,19.27,43.8,43.33h.72s20.64-.12,20.64-.12l7.12-.04,17.41-.09,5.66-.03-.12-21.47-.07-12.11-.09-17.25h0s-.01-2.16-.01-2.16c-24.06.13-43.67-19.27-43.8-43.33-.13-24.06,19.27-43.67,43.33-43.8l-.25-45.89c-24.06.13-43.67-19.27-43.8-43.33-.13-24.06,19.27-43.67,43.33-43.8l-.22-40.19c-24.06.13-43.67-19.27-43.8-43.33-.13-24.06,19.27-43.67,43.33-43.8l-.26-47.79c-24.06.13-43.67-19.27-43.8-43.33-.13-24.06,19.27-43.67,43.33-43.8l-.25-45.89c-24.06.13-43.67-19.27-43.8-43.33-.13-24.06,19.27-43.67,43.33-43.8l-.22-40.19c-24.06.13-43.67-19.27-43.8-43.33-.13-24.06,19.27-43.67,43.33-43.8l-.21-39.7c-24.06.13-43.67-19.27-43.8-43.33-.13-24.06,19.27-43.67,43.33-43.8v-.87s-.15-27.14-.15-27.14l-.02-3.7-.08-14.19-.03-5.81-7.02.04ZM1984,1426.85l-610.11,3.29-4.1-758.55,610.11-3.29,4.1,758.55Z"/>
</svg>