<?xml version="1.0" encoding="UTF-8"?>
<svg id="Layer_1" data-name="Layer 1" xmlns="http://www.w3.org/2000/svg" viewBox="0 0 726.78 836.33">
  <defs>
    <style>
      .cls-1 {
        fill: #dfd5d5;
        stroke-width: 0px;
      }
    </style>
  </defs>
  <path class="cls-1" d="M720.75,0h-41.02c0,20.65-16.74,37.4-37.4,37.4s-37.4-16.74-37.4-37.4h-39.39c0,20.65-16.74,37.4-37.4,37.4s-37.4-16.74-37.4-37.4h-34.5c0,20.65-16.74,37.4-37.4,37.4s-37.4-16.74-37.4-37.4h-34.08c0,20.65-16.74,37.4-37.4,37.4s-37.4-16.74-37.4-37.4h-39.39c0,20.65-16.74,37.4-37.4,37.4S158.39,20.65,158.39,0h-34.5c0,20.65-16.74,37.4-37.4,37.4S49.09,20.65,49.09,0H0v43.64h8.08c16.77,3.69,29.32,18.63,29.32,36.51,0,20.65-16.74,37.4-37.4,37.4v39.39c20.65,0,37.4,16.74,37.4,37.4S20.65,231.74,0,231.74v34.5c20.65,0,37.4,16.74,37.4,37.4s-16.74,37.4-37.4,37.4v41.02c20.65,0,37.4,16.74,37.4,37.4s-16.74,37.4-37.4,37.4v39.39c20.65,0,37.4,16.74,37.4,37.4s-16.74,37.4-37.4,37.4v34.5c20.65,0,37.4,16.74,37.4,37.4s-16.74,37.4-37.4,37.4v34.08c20.65,0,37.4,16.74,37.4,37.4s-16.74,37.4-37.4,37.4v47.12h44.52c0-20.65,16.74-37.4,37.4-37.4s37.4,16.74,37.4,37.4h34.5c0-20.65,16.74-37.4,37.4-37.4s37.4,16.74,37.4,37.4h39.81c0-20.65,16.74-37.4,37.4-37.4s37.4,16.74,37.4,37.4h39.39c0-20.65,16.74-37.4,37.4-37.4s37.4,16.74,37.4,37.4h34.5c0-20.65,16.74-37.4,37.4-37.4s37.4,16.74,37.4,37.4h41.02c0-20.65,16.74-37.4,37.4-37.4s37.4,16.74,37.4,37.4h44.25v-43.64h0v-1.86c-20.65,0-37.4-16.74-37.4-37.4s16.74-37.4,37.4-37.4v-39.39c-20.65,0-37.4-16.74-37.4-37.4s16.74-37.4,37.4-37.4v-34.5c-20.65,0-37.4-16.74-37.4-37.4,0-20.65,16.74-37.4,37.4-37.4v-41.02c-20.65,0-37.4-16.74-37.4-37.4s16.74-37.4,37.4-37.4v-39.39c-20.65,0-37.4-16.74-37.4-37.4s16.74-37.4,37.4-37.4v-34.5c-20.65,0-37.4-16.74-37.4-37.4s16.74-37.4,37.4-37.4v-34.08c-20.65,0-37.4-16.74-37.4-37.4s16.74-37.4,37.4-37.4V0h-6.03Z"/>
</svg>