<?xml version="1.0" encoding="UTF-8"?>
<svg id="Layer_1" data-name="Layer 1" xmlns="http://www.w3.org/2000/svg" viewBox="0 0 2500.37 1257.12">
  <defs>
    <style>
      .cls-1 {
        fill: #d64a9b;
        stroke-width: 0px;
      }
    </style>
  </defs>
  <path class="cls-1" d="M2421.62,1142c0-20.62,16.69-37.34,37.29-37.4v-34.29c-20.61-.06-37.29-16.78-37.29-37.4s16.69-37.34,37.29-37.4v-34.5c-20.61-.06-37.29-16.78-37.29-37.4s16.69-37.34,37.29-37.4v-39.61c-20.61-.06-37.29-16.78-37.29-37.4s16.69-37.34,37.29-37.4v-39.61c-20.61-.06-37.29-16.78-37.29-37.4s16.69-37.34,37.29-37.4v-39.19c-20.61-.06-37.29-16.78-37.29-37.4s16.69-37.34,37.29-37.4v-34.5c-20.61-.06-37.29-16.78-37.29-37.4s16.69-37.34,37.29-37.4v-39.4c-20.61-.06-37.29-16.78-37.29-37.4s16.69-37.34,37.29-37.4v-34.29c-20.61-.06-37.29-16.78-37.29-37.4s16.69-37.34,37.29-37.4v-34.5c-20.61-.06-37.29-16.78-37.29-37.4s16.69-37.34,37.29-37.4v-57.95h-44.68c0,20.65-16.74,37.4-37.4,37.4s-37.4-16.74-37.4-37.4h-34.5c0,20.65-16.74,37.4-37.4,37.4s-37.4-16.74-37.4-37.4h-39.39c0,20.65-16.74,37.4-37.4,37.4s-37.4-16.74-37.4-37.4h-34.08c0,20.65-16.74,37.4-37.4,37.4s-37.4-16.74-37.4-37.4h-34.5c0,20.65-16.74,37.4-37.4,37.4s-37.4-16.74-37.4-37.4h-39.39c0,20.65-16.74,37.4-37.4,37.4s-37.4-16.74-37.4-37.4h-41.02c0,20.65-16.74,37.4-37.4,37.4s-37.4-16.74-37.4-37.4h-34.5c0,20.65-16.74,37.4-37.4,37.4s-37.4-16.74-37.4-37.4h-39.39c0,20.65-16.74,37.4-37.4,37.4s-37.4-16.74-37.4-37.4h-39.81c0,20.65-16.74,37.4-37.4,37.4s-37.4-16.74-37.4-37.4h-34.5c0,20.65-16.74,37.4-37.4,37.4s-37.4-16.74-37.4-37.4h-39.39c0,20.65-16.74,37.4-37.4,37.4s-37.4-16.74-37.4-37.4h-41.02c0,20.65-16.74,37.4-37.4,37.4s-37.4-16.74-37.4-37.4h-34.5c0,20.65-16.74,37.4-37.4,37.4s-37.4-16.74-37.4-37.4h-39.39c0,20.65-16.74,37.4-37.4,37.4s-37.4-16.74-37.4-37.4h-39.9c0,20.65-16.74,37.4-37.4,37.4s-37.4-16.74-37.4-37.4h-34.5c0,20.65-16.74,37.4-37.4,37.4s-37.4-16.74-37.4-37.4h-39.39c0,20.65-16.74,37.4-37.4,37.4s-37.4-16.74-37.4-37.4h-41.02c0,20.65-16.74,37.4-37.4,37.4s-37.4-16.74-37.4-37.4h-34.5c0,20.65-16.74,37.4-37.4,37.4s-37.4-16.74-37.4-37.4h-39.39c0,20.65-16.74,37.4-37.4,37.4s-37.4-16.74-37.4-37.4h-46.25v57.95s.07,0,.11,0c20.65,0,37.4,16.74,37.4,37.4s-16.74,37.4-37.4,37.4c-.04,0-.07,0-.11,0v34.5s.07,0,.11,0c20.65,0,37.4,16.74,37.4,37.4s-16.74,37.4-37.4,37.4c-.04,0-.07,0-.11,0v34.29s.07,0,.11,0c20.65,0,37.4,16.74,37.4,37.4s-16.74,37.4-37.4,37.4c-.04,0-.07,0-.11,0v39.4s.07,0,.11,0c20.65,0,37.4,16.74,37.4,37.4s-16.74,37.4-37.4,37.4c-.04,0-.07,0-.11,0v34.5s.07,0,.11,0c20.65,0,37.4,16.74,37.4,37.4s-16.74,37.4-37.4,37.4c-.04,0-.07,0-.11,0v39.19s.07,0,.11,0c20.65,0,37.4,16.74,37.4,37.4s-16.74,37.4-37.4,37.4c-.04,0-.07,0-.11,0v39.61s.07,0,.11,0c20.65,0,37.4,16.74,37.4,37.4s-16.74,37.4-37.4,37.4c-.04,0-.07,0-.11,0v39.61s.07,0,.11,0c20.65,0,37.4,16.74,37.4,37.4s-16.74,37.4-37.4,37.4c-.04,0-.07,0-.11,0v34.5s.07,0,.11,0c20.65,0,37.4,16.74,37.4,37.4s-16.74,37.4-37.4,37.4c-.04,0-.07,0-.11,0v34.29s.07,0,.11,0c20.65,0,37.4,16.74,37.4,37.4s-16.74,37.4-37.4,37.4c-.04,0-.07,0-.11,0v34.82h41.95c0-20.65,16.74-37.4,37.4-37.4s37.4,16.74,37.4,37.4h39.39c0-20.65,16.74-37.4,37.4-37.4s37.4,16.74,37.4,37.4h34.5c0-20.65,16.74-37.4,37.4-37.4s37.4,16.74,37.4,37.4h41.02c0-20.65,16.74-37.4,37.4-37.4s37.4,16.74,37.4,37.4h39.39c0-20.65,16.74-37.4,37.4-37.4s37.4,16.74,37.4,37.4h34.5c0-20.65,16.74-37.4,37.4-37.4s37.4,16.74,37.4,37.4h39.9c0-20.65,16.74-37.4,37.4-37.4s37.4,16.74,37.4,37.4h39.39c0-20.65,16.74-37.4,37.4-37.4s37.4,16.74,37.4,37.4h34.5c0-20.65,16.74-37.4,37.4-37.4s37.4,16.74,37.4,37.4h41.02c0-20.65,16.74-37.4,37.4-37.4s37.4,16.74,37.4,37.4h36.95c0-20.65,16.74-37.4,37.4-37.4s37.4,16.74,37.4,37.4h36.95c0-20.65,16.74-37.4,37.4-37.4s37.4,16.74,37.4,37.4h39.81c0-20.65,16.74-37.4,37.4-37.4s37.4,16.74,37.4,37.4h39.39c0-20.65,16.74-37.4,37.4-37.4s37.4,16.74,37.4,37.4h34.5c0-20.65,16.74-37.4,37.4-37.4s37.4,16.74,37.4,37.4h41.02c0-20.65,16.74-37.4,37.4-37.4s37.4,16.74,37.4,37.4h39.39c0-20.65,16.74-37.4,37.4-37.4s37.4,16.74,37.4,37.4h34.5c0-20.65,16.74-37.4,37.4-37.4s37.4,16.74,37.4,37.4h34.08c0-20.65,16.74-37.4,37.4-37.4s37.4,16.74,37.4,37.4h39.39c0-20.65,16.74-37.4,37.4-37.4s37.4,16.74,37.4,37.4h34.5c0-20.65,16.74-37.4,37.4-37.4s37.4,16.74,37.4,37.4h48.99v-34.82c-20.61-.06-37.29-16.78-37.29-37.4Z"/>
</svg>