<?xml version="1.0" encoding="UTF-8"?>
<svg id="Layer_1" data-name="Layer 1" xmlns="http://www.w3.org/2000/svg" viewBox="0 0 2495.01 1589.95">
  <defs>
    <style>
      .cls-1 {
        fill: #db7fb4;
        stroke-width: 0px;
      }
    </style>
  </defs>
  <path class="cls-1" d="M2420.14,1474.4c0-20.65,16.74-37.4,37.4-37.4v-39.18c-20.65,0-37.4-16.74-37.4-37.4s16.74-37.4,37.4-37.4v-34.5c-20.65,0-37.4-16.74-37.4-37.4s16.74-37.4,37.4-37.4v-39.39c-20.65,0-37.4-16.74-37.4-37.4s16.74-37.4,37.4-37.4v-34.29c-20.65,0-37.4-16.74-37.4-37.4s16.74-37.4,37.4-37.4v-34.5c-20.65,0-37.4-16.74-37.4-37.4s16.74-37.4,37.4-37.4v-39.6c-20.65,0-37.4-16.74-37.4-37.4s16.74-37.4,37.4-37.4v-39.6c-20.65,0-37.4-16.74-37.4-37.4s16.74-37.4,37.4-37.4v-39.18c-20.65,0-37.4-16.74-37.4-37.4s16.74-37.4,37.4-37.4v-34.5c-20.65,0-37.4-16.74-37.4-37.4s16.74-37.4,37.4-37.4v-39.39c-20.65,0-37.4-16.74-37.4-37.4s16.74-37.4,37.4-37.4v-34.29c-20.65,0-37.4-16.74-37.4-37.4s16.74-37.4,37.4-37.4v-34.5c-20.65,0-37.4-16.74-37.4-37.4s16.74-37.4,37.4-37.4v-57.95h-44.79c0,20.65-16.74,37.4-37.4,37.4s-37.4-16.74-37.4-37.4h-34.5c0,20.65-16.74,37.4-37.4,37.4s-37.4-16.74-37.4-37.4h-39.39c0,20.65-16.74,37.4-37.4,37.4s-37.4-16.74-37.4-37.4h-34.08c0,20.65-16.74,37.4-37.4,37.4s-37.4-16.74-37.4-37.4h-34.5c0,20.65-16.74,37.4-37.4,37.4s-37.4-16.74-37.4-37.4h-39.39c0,20.65-16.74,37.4-37.4,37.4s-37.4-16.74-37.4-37.4h-41.02c0,20.65-16.74,37.4-37.4,37.4s-37.4-16.74-37.4-37.4h-34.5c0,20.65-16.74,37.4-37.4,37.4s-37.4-16.74-37.4-37.4h-39.39c0,20.65-16.74,37.4-37.4,37.4s-37.4-16.74-37.4-37.4h-39.81c0,20.65-16.74,37.4-37.4,37.4s-37.4-16.74-37.4-37.4h-34.5c0,20.65-16.74,37.4-37.4,37.4s-37.4-16.74-37.4-37.4h-39.39c0,20.65-16.74,37.4-37.4,37.4s-37.4-16.74-37.4-37.4h-41.02c0,20.65-16.74,37.4-37.4,37.4s-37.4-16.74-37.4-37.4h-34.5c0,20.65-16.74,37.4-37.4,37.4s-37.4-16.74-37.4-37.4h-39.39c0,20.65-16.74,37.4-37.4,37.4s-37.4-16.74-37.4-37.4h-39.9c0,20.65-16.74,37.4-37.4,37.4s-37.4-16.74-37.4-37.4h-34.5c0,20.65-16.74,37.4-37.4,37.4s-37.4-16.74-37.4-37.4h-39.39c0,20.65-16.74,37.4-37.4,37.4s-37.4-16.74-37.4-37.4h-41.02c0,20.65-16.74,37.4-37.4,37.4s-37.4-16.74-37.4-37.4h-34.5c0,20.65-16.74,37.4-37.4,37.4s-37.4-16.74-37.4-37.4h-39.39c0,20.65-16.74,37.4-37.4,37.4s-37.4-16.74-37.4-37.4h-46.15v57.95c20.65,0,37.4,16.74,37.4,37.4s-16.74,37.4-37.4,37.4v34.5c20.65,0,37.4,16.74,37.4,37.4s-16.74,37.4-37.4,37.4v34.29c20.65,0,37.4,16.74,37.4,37.4s-16.74,37.4-37.4,37.4v39.39c20.65,0,37.4,16.74,37.4,37.4s-16.74,37.4-37.4,37.4v34.5c20.65,0,37.4,16.74,37.4,37.4s-16.74,37.4-37.4,37.4v39.18c20.65,0,37.4,16.74,37.4,37.4s-16.74,37.4-37.4,37.4v39.6c20.65,0,37.4,16.74,37.4,37.4s-16.74,37.4-37.4,37.4v39.6c20.65,0,37.4,16.74,37.4,37.4s-16.74,37.4-37.4,37.4v34.5c20.65,0,37.4,16.74,37.4,37.4s-16.74,37.4-37.4,37.4v34.29c20.65,0,37.4,16.74,37.4,37.4s-16.74,37.4-37.4,37.4v39.39c20.65,0,37.4,16.74,37.4,37.4s-16.74,37.4-37.4,37.4v34.5c20.65,0,37.4,16.74,37.4,37.4s-16.74,37.4-37.4,37.4v39.18c20.65,0,37.4,16.74,37.4,37.4s-16.74,37.4-37.4,37.4v52.97h41.85c0-20.65,16.74-37.4,37.4-37.4s37.4,16.74,37.4,37.4h39.39c0-20.65,16.74-37.4,37.4-37.4s37.4,16.74,37.4,37.4h34.5c0-20.65,16.74-37.4,37.4-37.4s37.4,16.74,37.4,37.4h41.02c0-20.65,16.74-37.4,37.4-37.4s37.4,16.74,37.4,37.4h39.39c0-20.65,16.74-37.4,37.4-37.4s37.4,16.74,37.4,37.4h34.5c0-20.65,16.74-37.4,37.4-37.4s37.4,16.74,37.4,37.4h39.9c0-20.65,16.74-37.4,37.4-37.4s37.4,16.74,37.4,37.4h39.39c0-20.65,16.74-37.4,37.4-37.4s37.4,16.74,37.4,37.4h34.5c0-20.65,16.74-37.4,37.4-37.4s37.4,16.74,37.4,37.4h41.02c0-20.65,16.74-37.4,37.4-37.4s37.4,16.74,37.4,37.4h39.39c0-20.65,16.74-37.4,37.4-37.4s37.4,16.74,37.4,37.4h34.5c0-20.65,16.74-37.4,37.4-37.4s37.4,16.74,37.4,37.4h39.81c0-20.65,16.74-37.4,37.4-37.4s37.4,16.74,37.4,37.4h39.39c0-20.65,16.74-37.4,37.4-37.4s37.4,16.74,37.4,37.4h34.5c0-20.65,16.74-37.4,37.4-37.4s37.4,16.74,37.4,37.4h41.02c0-20.65,16.74-37.4,37.4-37.4s37.4,16.74,37.4,37.4h39.39c0-20.65,16.74-37.4,37.4-37.4s37.4,16.74,37.4,37.4h34.5c0-20.65,16.74-37.4,37.4-37.4s37.4,16.74,37.4,37.4h34.08c0-20.65,16.74-37.4,37.4-37.4s37.4,16.74,37.4,37.4h39.39c0-20.65,16.74-37.4,37.4-37.4s37.4,16.74,37.4,37.4h34.5c0-20.65,16.74-37.4,37.4-37.4s37.4,16.74,37.4,37.4h49.09v-52.97c-20.65,0-37.4-16.74-37.4-37.4Z"/>
</svg>