<?xml version="1.0" encoding="UTF-8"?>
<svg id="Layer_1" data-name="Layer 1" xmlns="http://www.w3.org/2000/svg" viewBox="0 0 1307.2 44.65">
  <defs>
    <style>
      .cls-1 {
        fill: #dfd5d5;
        stroke-width: 0px;
      }
    </style>
  </defs>
  <path class="cls-1" d="M0,0v44.65h30.71c0-19.44,15.76-35.2,35.2-35.2s35.2,15.76,35.2,35.2h44.06c0-19.44,15.76-35.2,35.2-35.2s35.2,15.76,35.2,35.2h49.27c0-19.44,15.76-35.2,35.2-35.2s35.2,15.76,35.2,35.2h44.06c0-19.44,15.76-35.2,35.2-35.2s35.2,15.76,35.2,35.2h39.52c0-19.44,15.76-35.2,35.2-35.2s35.2,15.76,35.2,35.2h44.06c0-19.44,15.76-35.2,35.2-35.2s35.2,15.76,35.2,35.2h49.27c0-19.44,15.76-35.2,35.2-35.2s35.2,15.76,35.2,35.2h44.06c0-19.44,15.76-35.2,35.2-35.2s35.2,15.76,35.2,35.2h42.69c0-19.44,15.76-35.2,35.2-35.2s35.2,15.76,35.2,35.2h49.27c0-19.44,15.76-35.2,35.2-35.2s35.2,15.76,35.2,35.2h44.06c0-19.44,15.76-35.2,35.2-35.2s35.2,15.76,35.2,35.2h51.69V0H0Z"/>
</svg>