<?xml version="1.0" encoding="UTF-8"?>
<svg id="Layer_1" data-name="Layer 1" xmlns="http://www.w3.org/2000/svg" viewBox="0 0 5355.39 46.37">
  <defs>
    <style>
      .cls-1 {
        fill: #fff;
        stroke-width: 0px;
      }
    </style>
  </defs>
  <path class="cls-1" d="M4479.17,1h0s-2083.07,0-2083.07,0V0H0s0,6.2,0,6.2h26.5c0,20.65,16.74,37.4,37.4,37.4S101.29,26.85,101.29,6.2h39.39c0,20.65,16.74,37.4,37.4,37.4s37.4-16.74,37.4-37.4h34.5c0,20.65,16.74,37.4,37.4,37.4s37.4-16.74,37.4-37.4h41.02c0,20.65,16.74,37.4,37.4,37.4s37.4-16.74,37.4-37.4h39.39c0,20.65,16.74,37.4,37.4,37.4s37.4-16.74,37.4-37.4h34.5c0,20.65,16.74,37.4,37.4,37.4s37.4-16.74,37.4-37.4h39.9c0,20.65,16.74,37.4,37.4,37.4s37.4-16.74,37.4-37.4h39.39c0,20.65,16.74,37.4,37.4,37.4s37.4-16.74,37.4-37.4h34.5c0,20.65,16.74,37.4,37.4,37.4s37.4-16.74,37.4-37.4h41.02c0,20.65,16.74,37.4,37.4,37.4s37.4-16.74,37.4-37.4h39.39c0,20.65,16.74,37.4,37.4,37.4s37.4-16.74,37.4-37.4h34.5c0,20.65,16.74,37.4,37.4,37.4s37.4-16.74,37.4-37.4h39.81c0,20.65,16.74,37.4,37.4,37.4s37.4-16.74,37.4-37.4h39.39c0,20.65,16.74,37.4,37.4,37.4s37.4-16.74,37.4-37.4h34.5c0,20.65,16.74,37.4,37.4,37.4s37.4-16.74,37.4-37.4h41.02c0,20.65,16.74,37.4,37.4,37.4s37.4-16.74,37.4-37.4h39.39c0,20.65,16.74,37.4,37.4,37.4s37.4-16.74,37.4-37.4h34.5c0,20.65,16.74,37.4,37.4,37.4s37.4-16.74,37.4-37.4h34.08c0,20.65,16.74,37.4,37.4,37.4s37.4-16.74,37.4-37.4h39.39c0,20.65,16.74,37.4,37.4,37.4s36.84-16.21,37.37-36.4h34.08c0,20.65,16.74,37.4,37.4,37.4,15.51,0,28.82-9.44,34.48-22.89,2.03-4.44,3.21-9.34,3.34-14.5h38.97c0,20.65,16.74,37.4,37.4,37.4s37.4-16.74,37.4-37.4h34.5c0,20.65,16.74,37.4,37.4,37.4s37.4-16.74,37.4-37.4h41.02c0,20.65,16.74,37.4,37.4,37.4s37.4-16.74,37.4-37.4h39.39c0,20.65,16.74,37.4,37.4,37.4s37.4-16.74,37.4-37.4h34.5c0,20.65,16.74,37.4,37.4,37.4s37.4-16.74,37.4-37.4h39.9c0,20.65,16.74,37.4,37.4,37.4s37.4-16.74,37.4-37.4h39.39c0,20.65,16.74,37.4,37.4,37.4s37.4-16.74,37.4-37.4h34.5c0,20.65,16.74,37.4,37.4,37.4s37.4-16.74,37.4-37.4h41.02c0,20.65,16.74,37.4,37.4,37.4s37.4-16.74,37.4-37.4h39.39c0,20.65,16.74,37.4,37.4,37.4s37.4-16.74,37.4-37.4h34.5c0,20.65,16.74,37.4,37.4,37.4s37.4-16.74,37.4-37.4h39.81c0,20.65,16.74,37.4,37.4,37.4s37.4-16.74,37.4-37.4h39.39c0,20.65,16.74,37.4,37.4,37.4s37.4-16.74,37.4-37.4h34.5c0,20.65,16.74,37.4,37.4,37.4s37.4-16.74,37.4-37.4h41.02c0,20.65,16.74,37.4,37.4,37.4s37.4-16.74,37.4-37.4h39.39c0,20.65,16.74,37.4,37.4,37.4s37.4-16.74,37.4-37.4h34.5c0,20.65,16.74,37.4,37.4,37.4s37.4-16.74,37.4-37.4h34.08c0,20.65,16.74,37.4,37.4,37.4s37.4-16.74,37.4-37.4h39.39c0,20.65,16.74,37.4,37.4,37.4s37.4-16.74,37.4-37.4h33.73c0,20.65,16.74,37.4,37.4,37.4.13,0,.25,0,.38,0,.13,0,.26,0,.39,0,20.65,0,37.4-16.74,37.4-37.4h38.62c0,20.65,16.74,37.4,37.4,37.4s37.4-16.74,37.4-37.4h34.5c0,20.65,16.74,37.4,37.4,37.4s37.4-16.74,37.4-37.4h41.02c0,20.65,16.74,37.4,37.4,37.4s37.4-16.74,37.4-37.4h39.39c0,20.65,16.74,37.4,37.4,37.4s37.4-16.74,37.4-37.4h34.5c0,20.65,16.74,37.4,37.4,37.4s37.4-16.74,37.4-37.4h39.9c0,20.65,16.74,37.4,37.4,37.4s37.4-16.74,37.4-37.4h39.39c0,20.65,16.74,37.4,37.4,37.4.34,0,.67-.02,1.01-.03V1h-876.22Z"/>
</svg>