<svg width="715" height="822" viewBox="0 0 715 822" fill="none" xmlns="http://www.w3.org/2000/svg">
<g clip-path="url(#clip0_216_8)">
<path d="M594.24 305.27C588.94 302.7 586.31 300.59 583.31 295.64C582.22 293.84 574.28 312.87 572.19 312.19C570.82 311.75 573.91 302.96 572.45 300.79C571.04 298.69 550.72 328.07 532.16 327.97C530.36 327.96 535.67 321.27 533.26 316.91C530.76 312.4 523.63 314.93 518.88 309.55C515.27 305.47 515.01 299.06 516.66 298.13C518.42 297.13 521.17 303.03 526.61 303.28C531.6 303.51 537.31 298.92 538.77 293.69C540.29 288.25 536.42 284.88 538.77 281.53C540.95 278.4 545.02 280.29 547.24 277.1C549.21 274.27 551.25 275.08 548.28 268.61C545.99 263.63 549.01 256.77 548.34 255.72C547.48 254.36 545.17 256.94 534.97 256.13C529.18 255.67 526.61 252.76 523.28 255.74C520.96 257.81 523.25 260.79 521.07 263.11C516.86 267.61 516.99 249.53 500.8 263.49C491.27 271.7 502.05 279.99 498.23 281.92C496.16 282.96 492.82 280.12 492.33 279.71C487.06 275.23 489.63 269.29 484.95 262.76C481.49 257.92 478.22 258.59 476.84 255.76C474.74 251.48 477.07 239.37 503.73 221.1C492.55 218.57 482.59 218.64 482.81 216.12C483.08 212.88 503.68 206.91 502.62 205.62C492.16 192.93 483.24 186.72 466.63 177.86C464.54 176.75 463.4 198.47 460.6 199.01C458.27 199.46 454.3 189.26 451.01 179.48C441.06 191.16 434.97 208.8 421.18 214.51C419.82 211.82 417.47 208.28 413.44 206.41C406.39 203.14 399.85 207.58 396.49 203.84C394.53 201.66 394.41 197.56 396.12 195.36C398.85 191.85 404.52 195.46 409.02 192.04C413.26 188.82 414.36 180.97 411.59 176.56C409.12 172.64 403.95 172 404.22 170.67C404.53 169.1 411.49 170.78 413.43 167.72C414.62 165.85 414.24 162.96 409.37 155.19C404.47 147.37 406.06 143.67 404.28 144.73C396.9 149.11 384.76 144.93 382.83 151.89C381.74 155.82 384.33 159.68 382.47 161.1C380.96 162.25 378.96 159.96 375.84 160.37C370.97 161 366.39 167.78 366.26 174.01C366.11 181.06 371.71 184.98 370.32 186.54C368.84 188.2 360.9 185.58 355.94 179.91C352.75 176.26 352.84 173.68 350.04 172.54C345.17 170.56 340.01 176.33 338.62 175.13C335.42 172.35 359.42 133.58 358.14 131.07C357.62 130.05 347.67 134.51 350.29 130.85C351.25 130.17 351.6 130.16 352.14 129.73C352.74 129.26 354.05 128.24 354.05 128.24C354.05 128.24 355.19 127.17 355.88 126.39C356.67 125.48 361.44 119.27 359.59 119.09C356.17 118.76 353.26 117.05 348.9 112.83C337.93 120.87 343.2 130.28 339 132.96C338.3 133.41 335.46 132.66 332.97 133.82C330.34 135.04 320.46 145.24 322.38 154.5C323.73 161 326.77 161.95 326.63 167.22C326.45 173.66 321.04 173.83 319.08 182.52C317.78 188.28 320.81 191.65 317.61 194.31C312.91 198.23 312.63 193.38 308.77 199.11C305.76 203.56 305.1 210.09 311.36 216.06C313.48 218.08 306.84 220.07 304.36 220.12C300.07 220.2 297.86 216.26 295.14 214.6C284.52 208.1 250.39 226.87 246.14 252.96C244.27 264.47 250.15 265.47 248.36 278.02C245.51 298.03 229.98 299.46 225.9 319.31C222.71 334.82 231.11 339.23 225.55 352.48C222.62 359.47 217.45 364.3 207.1 373.96C195.53 384.77 187.85 388.65 187.38 396.92C187.12 401.55 189.25 405.24 189.8 406.18C195.48 415.77 207.27 413.56 209.14 419.86C210.98 426.07 200.27 430.6 201.9 439.19C202.94 444.69 208.75 445.96 207.54 450.87C206.66 454.46 203.7 457.06 204.73 459.9C205.88 463.08 211.34 462.98 212.78 466.57C213.57 468.54 211.89 470.72 210.77 472.61C206.23 480.3 206.49 491.03 208.77 495.97C211 500.8 216.4 502.77 240.99 507.23C269.22 512.34 267.32 510.69 271.6 512.45C296.82 522.8 304.96 556.54 306.66 563.57C307.67 567.76 311.58 585.27 306.68 607.06C302.36 626.29 293.12 640.24 282.54 656.2C266.93 679.76 253.44 691.85 258 700.91C259.74 704.36 263.3 705.79 265.25 706.54C281.91 712.95 301.99 695.84 318.8 685.17C361 658.37 421.32 647.5 454.08 641.61C461.87 640.21 479.5 637.31 485.08 625.08C488.59 617.38 485.96 608.94 483.86 602.53C478.98 587.6 470.71 580.87 458.47 566.7C448.93 555.66 438.26 543.3 429.86 526.45C424.37 515.44 411.25 489.12 421.38 476.92C422.47 475.61 425.09 475.93 440.71 469.66C452.05 465.11 459.24 463.13 466.02 457.27C481.15 444.21 481.67 437.97 486.48 425.22C487.24 423.22 488.03 401.01 485.37 389.5C485.1 388.33 484.53 385.94 485.77 384.02C487.77 380.93 492.55 382.02 493.51 379.59C494.52 377.04 490.16 373.46 490.93 372.59C491.74 371.67 496.38 375.85 498.67 374.43C500.63 373.22 498.73 369.22 500.51 366.69C501.94 364.65 512.39 372.08 518.23 366.32C523.08 358.31 517.5 353.88 521.88 353.04C528.62 351.75 526.62 353.83 530.73 353.04C538.97 351.44 539.55 340.72 547.68 339.03C551.61 338.21 551.76 340.66 557.26 340.5C565.18 340.27 573.74 334.88 575.68 327.96C576.88 323.69 574.08 320.32 576.92 317.73C584.81 310.56 596.92 306.57 594.26 305.28L594.24 305.27ZM381.52 188.2C380.83 186.6 381.63 177.99 383.31 174.13C385.12 169.96 392.66 164.99 394.28 164.97C396.12 164.95 396.85 174.12 394.6 179.57C391.86 186.21 382.02 189.37 381.52 188.2ZM461.94 228.07C455.97 228.07 451.12 223.23 451.12 217.26C451.12 211.29 455.96 206.44 461.93 206.44C467.9 206.44 472.75 211.28 472.75 217.25C472.75 223.22 467.91 228.07 461.94 228.07ZM510.78 286.76C510.73 285.02 514.62 277.3 517.59 274.32C520.8 271.11 529.64 269.23 531.15 269.81C532.87 270.47 530.2 279.27 526.1 283.52C521.12 288.69 510.81 288.03 510.77 286.76H510.78Z" fill="#F15B22"/>
<path d="M714.78 803.91V793.69L714.77 779.13V777.3C694.47 777.31 678 760.86 677.99 740.56C677.98 720.26 694.43 703.79 714.73 703.78L714.71 665.06C694.41 665.07 677.94 648.62 677.93 628.32C677.92 608.02 694.37 591.55 714.67 591.54L714.65 557.63C694.35 557.64 677.88 541.19 677.87 520.89C677.86 500.59 694.31 484.12 714.61 484.11L714.59 443.79C694.29 443.8 677.82 427.35 677.81 407.05C677.8 386.75 694.25 370.28 714.55 370.27L714.53 331.55C694.23 331.56 677.76 315.11 677.75 294.81C677.74 274.51 694.19 258.04 714.49 258.03L714.47 224.12C694.17 224.13 677.7 207.68 677.69 187.38C677.68 167.08 694.13 150.61 714.43 150.6L714.41 117.11C694.11 117.12 677.64 100.67 677.63 80.37C677.62 60.07 694.07 43.6 714.37 43.59V42.86L714.36 19.97V16.85V4.88V0H708.43H696.07H696.02H671.47L668.11 0.02C668.12 20.32 651.67 36.79 631.37 36.8C611.07 36.81 594.6 20.36 594.59 0.06L555.87 0.08C555.88 20.38 539.43 36.85 519.13 36.86C498.83 36.87 482.36 20.42 482.35 0.12L448.44 0.14C448.45 20.44 432 36.91 411.7 36.92C391.4 36.93 374.93 20.48 374.92 0.18L341.43 0.2C341.44 20.5 324.99 36.97 304.69 36.98C284.39 36.99 267.92 20.54 267.91 0.24L229.19 0.26C229.2 20.56 212.75 37.03 192.45 37.04C172.15 37.05 155.68 20.6 155.67 0.3L121.76 0.32C121.77 20.62 105.32 37.09 85.02 37.1C64.72 37.11 48.25 20.66 48.24 0.36L0 0.38V12.17L0.02 42.4V43.27H7.96C24.44 46.89 36.79 61.57 36.8 79.14C36.81 99.44 20.36 115.91 0.06 115.92L0.08 154.64C20.38 154.63 36.85 171.08 36.86 191.38C36.87 211.68 20.42 228.15 0.12 228.16L0.14 262.07C20.44 262.06 36.91 278.51 36.92 298.81C36.93 319.11 20.48 335.58 0.18 335.59L0.2 375.91C20.5 375.9 36.97 392.35 36.98 412.65C36.99 432.95 20.54 449.42 0.24 449.43L0.26 488.15C20.56 488.14 37.03 504.59 37.04 524.89C37.05 545.19 20.6 561.66 0.3 561.67L0.32 595.58C20.62 595.57 37.09 612.02 37.1 632.32C37.11 652.62 20.66 669.09 0.36 669.1L0.38 702.59C20.68 702.58 37.15 719.03 37.16 739.33C37.17 759.63 20.72 776.1 0.42 776.11V780.48L0.44 814.83V822.43L20.91 822.42H22.82L41.46 822.41H43.34H44.21C44.2 802.11 60.65 785.64 80.95 785.63C101.25 785.62 117.72 802.07 117.73 822.37L151.64 822.35C151.63 802.05 168.08 785.58 188.38 785.57C208.68 785.56 225.15 802.01 225.16 822.31L264.29 822.29C264.28 801.99 280.73 785.52 301.03 785.51C321.33 785.5 337.8 801.95 337.81 822.25L376.53 822.23C376.52 801.93 392.97 785.46 413.27 785.45C433.57 785.44 450.04 801.89 450.05 822.19L483.96 822.17C483.95 801.87 500.4 785.4 520.7 785.39C541 785.38 557.47 801.83 557.48 822.13L597.8 822.11C597.79 801.81 614.24 785.34 634.54 785.33C654.84 785.32 671.31 801.77 671.32 822.07H671.93H689.34H695.34L710.03 822.06H714.81V803.94L714.78 803.91ZM100.19 738.84L99.85 98.83L614.61 98.55L614.95 738.56L100.19 738.84Z" fill="#F15B22"/>
</g>
<defs>
<clipPath id="clip0_216_8">
<rect width="715" height="822" fill="white"/>
</clipPath>
</defs>
</svg>
