<?xml version="1.0" encoding="UTF-8"?>
<svg id="Layer_1" data-name="Layer 1" xmlns="http://www.w3.org/2000/svg" viewBox="0 0 714.79 821.65">
  <defs>
    <style>
      .cls-1 {
        fill: #f15b22;
        stroke-width: 0px;
      }
    </style>
  </defs>
  <path class="cls-1" d="M714.78,803.53v-10.22s-.01-14.56-.01-14.56h0v-1.83c-20.3.01-36.77-16.44-36.78-36.74-.01-20.3,16.44-36.77,36.74-36.78l-.02-38.72c-20.3.01-36.77-16.44-36.78-36.74s16.44-36.77,36.74-36.78l-.02-33.91c-20.3.01-36.77-16.44-36.78-36.74-.01-20.3,16.44-36.77,36.74-36.78l-.02-40.32c-20.3.01-36.77-16.44-36.78-36.74s16.44-36.77,36.74-36.78l-.02-38.72c-20.3.01-36.77-16.44-36.78-36.74s16.44-36.77,36.74-36.78l-.02-33.91c-20.3.01-36.77-16.44-36.78-36.74-.01-20.3,16.44-36.77,36.74-36.78l-.02-33.49c-20.3.01-36.77-16.44-36.78-36.74-.01-20.3,16.44-36.77,36.74-36.78v-.73s-.01-22.89-.01-22.89v-3.12s0-11.97,0-11.97V-.38s-5.93,0-5.93,0h-12.36s-.05,0-.05,0h-24.55s-3.36.02-3.36.02c.01,20.3-16.44,36.77-36.74,36.78-20.3.01-36.77-16.44-36.78-36.74l-38.72.02c.01,20.3-16.44,36.77-36.74,36.78-20.3.01-36.77-16.44-36.78-36.74l-33.91.02c.01,20.3-16.44,36.77-36.74,36.78-20.3.01-36.77-16.44-36.78-36.74l-33.49.02c.01,20.3-16.44,36.77-36.74,36.78-20.3.01-36.77-16.44-36.78-36.74l-38.72.02c.01,20.3-16.44,36.77-36.74,36.78-20.3.01-36.77-16.44-36.78-36.74l-33.91.02c.01,20.3-16.44,36.77-36.74,36.78-20.3.01-36.77-16.44-36.78-36.74L0,0v11.79s.02,30.23.02,30.23v.87s7.94,0,7.94,0c16.48,3.62,28.83,18.3,28.84,35.87.01,20.3-16.44,36.77-36.74,36.78l.02,38.72c20.3-.01,36.77,16.44,36.78,36.74.01,20.3-16.44,36.77-36.74,36.78l.02,33.91c20.3-.01,36.77,16.44,36.78,36.74.01,20.3-16.44,36.77-36.74,36.78l.02,40.32c20.3-.01,36.77,16.44,36.78,36.74.01,20.3-16.44,36.77-36.74,36.78l.02,38.72c20.3-.01,36.77,16.44,36.78,36.74s-16.44,36.77-36.74,36.78l.02,33.91c20.3-.01,36.77,16.44,36.78,36.74.01,20.3-16.44,36.77-36.74,36.78l.02,33.49c20.3-.01,36.77,16.44,36.78,36.74.01,20.3-16.44,36.77-36.74,36.78v4.37s.02,34.35.02,34.35v7.6s20.47-.01,20.47-.01h1.91s18.64-.01,18.64-.01h1.88s.87,0,.87,0c-.01-20.3,16.44-36.77,36.74-36.78,20.3-.01,36.77,16.44,36.78,36.74l33.91-.02c-.01-20.3,16.44-36.77,36.74-36.78,20.3-.01,36.77,16.44,36.78,36.74l39.13-.02c-.01-20.3,16.44-36.77,36.74-36.78,20.3-.01,36.77,16.44,36.78,36.74l38.72-.02c-.01-20.3,16.44-36.77,36.74-36.78,20.3-.01,36.77,16.44,36.78,36.74l33.91-.02c-.01-20.3,16.44-36.77,36.74-36.78,20.3-.01,36.77,16.44,36.78,36.74l40.32-.02c-.01-20.3,16.44-36.77,36.74-36.78,20.3-.01,36.77,16.44,36.78,36.74h.61s17.41,0,17.41,0h6s14.69-.01,14.69-.01h4.78s0-18.12,0-18.12ZM100.19,738.46l-.34-640.01,514.76-.28.34,640.01-514.76.28Z"/>
  <path class="cls-1" d="M594.24,304.89c-5.3-2.57-7.93-4.68-10.93-9.63-1.09-1.8-9.03,17.23-11.12,16.55-1.37-.44,1.72-9.23.26-11.4-1.41-2.1-21.73,27.28-40.29,27.18-1.8-.01,3.51-6.7,1.1-11.06-2.5-4.51-9.63-1.98-14.38-7.36-3.61-4.08-3.87-10.49-2.22-11.42,1.76-1,4.51,4.9,9.95,5.15,4.99.23,10.7-4.36,12.16-9.59,1.52-5.44-2.35-8.81,0-12.16,2.18-3.13,6.25-1.24,8.47-4.43,1.97-2.83,4.01-2.02,1.04-8.49-2.29-4.98.73-11.84.06-12.89-.86-1.36-3.17,1.22-13.37.41-5.79-.46-8.36-3.37-11.69-.39-2.32,2.07-.03,5.05-2.21,7.37-4.21,4.5-4.08-13.58-20.27.38-9.53,8.21,1.25,16.5-2.57,18.43-2.07,1.04-5.41-1.8-5.9-2.21-5.27-4.48-2.7-10.42-7.38-16.95-3.46-4.84-6.73-4.17-8.11-7-2.1-4.28.23-16.39,26.89-34.66-11.18-2.53-21.14-2.46-20.92-4.98.27-3.24,20.87-9.21,19.81-10.5-10.46-12.69-19.38-18.9-35.99-27.76-2.09-1.11-3.23,20.61-6.03,21.15-2.33.45-6.3-9.75-9.59-19.53-9.95,11.68-16.04,29.32-29.83,35.03-1.36-2.69-3.71-6.23-7.74-8.1-7.05-3.27-13.59,1.17-16.95-2.57-1.96-2.18-2.08-6.28-.37-8.48,2.73-3.51,8.4.1,12.9-3.32,4.24-3.22,5.34-11.07,2.57-15.48-2.47-3.92-7.64-4.56-7.37-5.89.31-1.57,7.27.11,9.21-2.95,1.19-1.87.81-4.76-4.06-12.53-4.9-7.82-3.31-11.52-5.09-10.46-7.38,4.38-19.52.2-21.45,7.16-1.09,3.93,1.5,7.79-.36,9.21-1.51,1.15-3.51-1.14-6.63-.73-4.87.63-9.45,7.41-9.58,13.64-.15,7.05,5.45,10.97,4.06,12.53-1.48,1.66-9.42-.96-14.38-6.63-3.19-3.65-3.1-6.23-5.9-7.37-4.87-1.98-10.03,3.79-11.42,2.59-3.2-2.78,20.8-41.55,19.52-44.06-.52-1.02-10.47,3.44-7.85-.22.96-.68,1.31-.69,1.85-1.12.6-.47,1.91-1.49,1.91-1.49,0,0,1.14-1.07,1.83-1.85.79-.91,5.56-7.12,3.71-7.3-3.42-.33-6.33-2.04-10.69-6.26-10.97,8.04-5.7,17.45-9.9,20.13-.7.45-3.54-.3-6.03.86-2.63,1.22-12.51,11.42-10.59,20.68,1.35,6.5,4.39,7.45,4.25,12.72-.18,6.44-5.59,6.61-7.55,15.3-1.3,5.76,1.73,9.13-1.47,11.79-4.7,3.92-4.98-.93-8.84,4.8-3.01,4.45-3.67,10.98,2.59,16.95,2.12,2.02-4.52,4.01-7,4.06-4.29.08-6.5-3.86-9.22-5.52-10.62-6.5-44.75,12.27-49,38.36-1.87,11.51,4.01,12.51,2.22,25.06-2.85,20.01-18.38,21.44-22.46,41.29-3.19,15.51,5.21,19.92-.35,33.17-2.93,6.99-8.1,11.82-18.45,21.48-11.57,10.81-19.25,14.69-19.72,22.96-.26,4.63,1.87,8.32,2.42,9.26,5.68,9.59,17.47,7.38,19.34,13.68,1.84,6.21-8.87,10.74-7.24,19.33,1.04,5.5,6.85,6.77,5.64,11.68-.88,3.59-3.84,6.19-2.81,9.03,1.15,3.18,6.61,3.08,8.05,6.67.79,1.97-.89,4.15-2.01,6.04-4.54,7.69-4.28,18.42-2,23.36,2.23,4.83,7.63,6.8,32.22,11.26,28.23,5.11,26.33,3.46,30.61,5.22,25.22,10.35,33.36,44.09,35.06,51.12,1.01,4.19,4.92,21.7.02,43.49-4.32,19.23-13.56,33.18-24.14,49.14-15.61,23.56-29.1,35.65-24.54,44.71,1.74,3.45,5.3,4.88,7.25,5.63,16.66,6.41,36.74-10.7,53.55-21.37,42.2-26.8,102.52-37.67,135.28-43.56,7.79-1.4,25.42-4.3,31-16.53,3.51-7.7.88-16.14-1.22-22.55-4.88-14.93-13.15-21.66-25.39-35.83-9.54-11.04-20.21-23.4-28.61-40.25-5.49-11.01-18.61-37.33-8.48-49.53,1.09-1.31,3.71-.99,19.33-7.26,11.34-4.55,18.53-6.53,25.31-12.39,15.13-13.06,15.65-19.3,20.46-32.05.76-2,1.55-24.21-1.11-35.72-.27-1.17-.84-3.56.4-5.48,2-3.09,6.78-2,7.74-4.43,1.01-2.55-3.35-6.13-2.58-7,.81-.92,5.45,3.26,7.74,1.84,1.96-1.21.06-5.21,1.84-7.74,1.43-2.04,11.88,5.39,17.72-.37,4.85-8.01-.73-12.44,3.65-13.28,6.74-1.29,4.74.79,8.85,0,8.24-1.6,8.82-12.32,16.95-14.01,3.93-.82,4.08,1.63,9.58,1.47,7.92-.23,16.48-5.62,18.42-12.54,1.2-4.27-1.6-7.64,1.24-10.23,7.89-7.17,20-11.16,17.34-12.45ZM381.52,187.82c-.69-1.6.11-10.21,1.79-14.07,1.81-4.17,9.35-9.14,10.97-9.16,1.84-.02,2.57,9.15.32,14.6-2.74,6.64-12.58,9.8-13.08,8.63ZM461.94,227.69c-5.97,0-10.82-4.84-10.82-10.81,0-5.97,4.84-10.82,10.81-10.82,5.97,0,10.82,4.84,10.82,10.81,0,5.97-4.84,10.82-10.81,10.82ZM510.78,286.38c-.05-1.74,3.84-9.46,6.81-12.44,3.21-3.21,12.05-5.09,13.56-4.51,1.72.66-.95,9.46-5.05,13.71-4.98,5.17-15.29,4.51-15.33,3.24Z"/>
</svg>