<svg width="73" height="73" viewBox="0 0 73 73" fill="none" xmlns="http://www.w3.org/2000/svg">
<path d="M5.32292 9.125H67.6771C70.6153 9.125 73 11.5097 73 14.4479V57.0313C73 58.443 72.4392 59.7969 71.441 60.7951C70.4427 61.7934 69.0888 62.3542 67.6771 62.3542H5.32292C3.91119 62.3542 2.55729 61.7934 1.55905 60.7951C0.560806 59.7969 0 58.443 0 57.0313L0 14.4479C0 11.5097 2.38467 9.125 5.32292 9.125ZM4.5625 22.5448V57.0313C4.5625 57.451 4.90317 57.7917 5.32292 57.7917H67.6771C67.8788 57.7917 68.0722 57.7116 68.2148 57.5689C68.3574 57.4263 68.4375 57.2329 68.4375 57.0313V22.5448L39.4808 42.1119C37.6802 43.3285 35.3198 43.3285 33.5192 42.1119L4.5625 22.5448ZM4.5625 14.4479V17.0394L36.0742 38.3311C36.1999 38.4161 36.3482 38.4615 36.5 38.4615C36.6518 38.4615 36.8001 38.4161 36.9258 38.3311L68.4375 17.0394V14.4479C68.4375 14.2462 68.3574 14.0528 68.2148 13.9102C68.0722 13.7676 67.8788 13.6875 67.6771 13.6875H5.32292C5.12124 13.6875 4.92783 13.7676 4.78522 13.9102C4.64262 14.0528 4.5625 14.2462 4.5625 14.4479Z" fill="black"/>
</svg>
