<?xml version="1.0" encoding="UTF-8"?>
<svg id="Layer_1" data-name="Layer 1" xmlns="http://www.w3.org/2000/svg" viewBox="0 0 1521.55 778.28">
  <defs>
    <style>
      .cls-1 {
        fill: #27266e;
        stroke-width: 0px;
      }
    </style>
  </defs>
  <path class="cls-1" d="M252.81,571.05h-117.6V118.65h187.2c50.79,0,89.7,13.2,116.7,39.6,27,26.4,40.5,63.6,40.5,111.6s-13.5,85.2-40.5,111.6c-27,26.4-65.91,39.6-116.7,39.6h-69.6v150ZM252.81,326.25h39c43.2,0,64.8-18.8,64.8-56.4s-21.6-56.4-64.8-56.4h-39v112.8Z"/>
  <path class="cls-1" d="M510.8,414.45c0-22.8,4.59-44.1,13.8-63.9,9.2-19.8,21.99-36.99,38.4-51.6,16.4-14.6,35.9-26.1,58.5-34.5,22.59-8.4,47.3-12.6,74.1-12.6s50.9,4.11,73.5,12.3c22.59,8.2,42.2,19.6,58.8,34.2,16.59,14.61,29.49,32.01,38.7,52.2,9.2,20.2,13.8,42.51,13.8,66.9s-4.71,46.71-14.1,66.9c-9.4,20.2-22.3,37.6-38.7,52.2-16.41,14.61-36.1,25.9-59.1,33.9-23.01,8-47.91,12-74.7,12s-50.8-4-73.2-12c-22.41-8-41.7-19.4-57.9-34.2-16.2-14.79-28.9-32.49-38.1-53.1-9.21-20.6-13.8-43.5-13.8-68.7ZM625.41,415.65c0,10.41,1.89,19.9,5.7,28.5,3.8,8.61,8.79,16.11,15,22.5,6.2,6.4,13.59,11.4,22.2,15,8.6,3.6,17.7,5.4,27.3,5.4s18.69-1.8,27.3-5.4c8.6-3.6,15.99-8.6,22.2-15,6.2-6.39,11.19-13.89,15-22.5,3.8-8.6,5.7-17.9,5.7-27.9s-1.9-18.69-5.7-27.3c-3.81-8.6-8.8-16.1-15-22.5-6.21-6.39-13.6-11.4-22.2-15-8.61-3.6-17.7-5.4-27.3-5.4s-18.7,1.8-27.3,5.4c-8.61,3.6-16,8.61-22.2,15-6.21,6.4-11.2,13.8-15,22.2-3.81,8.4-5.7,17.4-5.7,27Z"/>
  <path class="cls-1" d="M942.8,263.25h108.6v50.4c11.6-18.39,25.8-32.49,42.6-42.3,16.8-9.8,36.39-14.7,58.8-14.7h9.3c3.39,0,7.29.4,11.7,1.2v103.8c-14.4-7.2-30-10.8-46.8-10.8-25.2,0-44.1,7.5-56.7,22.5-12.6,15-18.9,36.9-18.9,65.7v132h-108.6v-307.8Z"/>
  <path class="cls-1" d="M1354.99,353.85v217.2h-108.6v-217.2h-36v-90.6h36v-92.4h108.6v92.4h61.8v90.6h-61.8Z"/>
</svg>