<?xml version="1.0" encoding="UTF-8"?>
<svg id="Layer_1" data-name="Layer 1" xmlns="http://www.w3.org/2000/svg" viewBox="0 0 49.29 2415.75">
  <defs>
    <style>
      .cls-1 {
        fill: #fff;
        stroke-width: 0px;
      }
    </style>
  </defs>
  <path class="cls-1" d="M49.29,0h-6.2s0,46.15,0,46.15c-20.65,0-37.4,16.74-37.4,37.4,0,20.65,16.74,37.4,37.4,37.4v39.39c-20.65,0-37.4,16.74-37.4,37.4,0,20.65,16.74,37.4,37.4,37.4v34.5c-20.65,0-37.4,16.74-37.4,37.4,0,20.65,16.74,37.4,37.4,37.4v41.02c-20.65,0-37.4,16.74-37.4,37.4s16.74,37.4,37.4,37.4v39.39c-20.65,0-37.4,16.74-37.4,37.4,0,20.65,16.74,37.4,37.4,37.4v34.5c-20.65,0-37.4,16.74-37.4,37.4,0,20.65,16.74,37.4,37.4,37.4v39.9c-20.65,0-37.4,16.74-37.4,37.4,0,20.65,16.74,37.4,37.4,37.4v39.39c-20.65,0-37.4,16.74-37.4,37.4s16.74,37.4,37.4,37.4v34.5c-20.65,0-37.4,16.74-37.4,37.4,0,20.65,16.74,37.4,37.4,37.4v41.02c-20.65,0-37.4,16.74-37.4,37.4,0,20.65,16.74,37.4,37.4,37.4v39.39c-20.65,0-37.4,16.74-37.4,37.4,0,20.65,16.74,37.4,37.4,37.4v34.5c-20.65,0-37.4,16.74-37.4,37.4s16.74,37.4,37.4,37.4v39.81c-20.65,0-37.4,16.74-37.4,37.4,0,20.65,16.74,37.4,37.4,37.4v39.39c-20.65,0-37.4,16.74-37.4,37.4,0,20.65,16.74,37.4,37.4,37.4v34.5c-20.65,0-37.4,16.74-37.4,37.4,0,20.65,16.74,37.4,37.4,37.4v41.02c-20.65,0-37.4,16.74-37.4,37.4s16.74,37.4,37.4,37.4v39.39c-20.65,0-37.4,16.74-37.4,37.4s16.74,37.4,37.4,37.4v34.5c-20.65,0-37.4,16.74-37.4,37.4s16.74,37.4,37.4,37.4v34.08c-20.65,0-37.4,16.74-37.4,37.4,0,20.65,16.74,37.4,37.4,37.4v39.39c-20.65,0-37.4,16.74-37.4,37.4s16.74,37.4,37.4,37.4v34.5c-20.65,0-37.4,16.74-37.4,37.4,0,20.65,16.74,37.4,37.4,37.4v44.79s6.2,0,6.2,0V0Z"/>
</svg>