<?xml version="1.0" encoding="UTF-8"?>
<svg id="Layer_1" data-name="Layer 1" xmlns="http://www.w3.org/2000/svg" viewBox="0 0 49.29 2356.46">
  <defs>
    <style>
      .cls-1 {
        fill: #fff;
        stroke-width: 0px;
      }
    </style>
  </defs>
  <path class="cls-1" d="M5.66,2339.97v16.49h43.64V0H5.66v15.15c20.65,0,37.4,16.74,37.4,37.4S26.31,89.95,5.66,89.95v39.39c20.65,0,37.4,16.74,37.4,37.4s-16.74,37.4-37.4,37.4v34.5c20.65,0,37.4,16.74,37.4,37.4s-16.74,37.4-37.4,37.4v41.02c20.65,0,37.4,16.74,37.4,37.4s-16.74,37.4-37.4,37.4v39.39c20.65,0,37.4,16.74,37.4,37.4s-16.74,37.4-37.4,37.4v34.5c20.65,0,37.4,16.74,37.4,37.4s-16.74,37.4-37.4,37.4v39.9c20.65,0,37.4,16.74,37.4,37.4s-16.74,37.4-37.4,37.4v39.39c20.65,0,37.4,16.74,37.4,37.4s-16.74,37.4-37.4,37.4v34.5c20.65,0,37.4,16.74,37.4,37.4s-16.74,37.4-37.4,37.4v41.02c20.65,0,37.4,16.74,37.4,37.4s-16.74,37.4-37.4,37.4v39.39c20.65,0,37.4,16.74,37.4,37.4s-16.74,37.4-37.4,37.4v34.5c20.65,0,37.4,16.74,37.4,37.4s-16.74,37.4-37.4,37.4v39.81c20.65,0,37.4,16.74,37.4,37.4s-16.74,37.4-37.4,37.4v39.39c20.65,0,37.4,16.74,37.4,37.4s-16.74,37.4-37.4,37.4v34.5c20.65,0,37.4,16.74,37.4,37.4s-16.74,37.4-37.4,37.4v41.02c20.65,0,37.4,16.74,37.4,37.4s-16.74,37.4-37.4,37.4v39.39c20.65,0,37.4,16.74,37.4,37.4s-16.74,37.4-37.4,37.4v34.5c20.65,0,37.4,16.74,37.4,37.4s-16.74,37.4-37.4,37.4v34.08c20.65,0,37.4,16.74,37.4,37.4s-16.74,37.4-37.4,37.4v39.39c20.65,0,37.4,16.74,37.4,37.4s-16.74,37.4-37.4,37.4v34.5c20.65,0,37.4,16.74,37.4,37.4s-16.74,37.4-37.4,37.4Z"/>
</svg>