<?xml version="1.0" encoding="UTF-8"?>
<svg id="Layer_1" data-name="Layer 1" xmlns="http://www.w3.org/2000/svg" viewBox="0 0 49.29 2356.46">
  <defs>
    <style>
      .cls-1 {
        fill: #fff;
        stroke-width: 0px;
      }
    </style>
  </defs>
  <path class="cls-1" d="M43.06,2302.57c0-20.66-16.74-37.4-37.4-37.4v-34.5c20.65,0,37.4-16.74,37.4-37.4s-16.74-37.4-37.4-37.4v-39.39c20.65,0,37.4-16.74,37.4-37.4s-16.74-37.4-37.4-37.4v-34.08c20.65,0,37.4-16.74,37.4-37.4s-16.74-37.4-37.4-37.4v-34.5c20.65,0,37.4-16.74,37.4-37.4s-16.74-37.4-37.4-37.4v-39.39c20.65,0,37.4-16.74,37.4-37.4s-16.74-37.4-37.4-37.4v-41.02c20.65,0,37.4-16.74,37.4-37.4s-16.74-37.4-37.4-37.4v-34.5c20.65,0,37.4-16.74,37.4-37.4s-16.74-37.4-37.4-37.4v-39.39c20.65,0,37.4-16.74,37.4-37.4s-16.74-37.4-37.4-37.4v-39.81c20.65,0,37.4-16.74,37.4-37.4s-16.74-37.4-37.4-37.4v-34.5c20.65,0,37.4-16.74,37.4-37.4s-16.74-37.4-37.4-37.4v-39.39c20.65,0,37.4-16.74,37.4-37.4s-16.74-37.4-37.4-37.4v-41.02c20.65,0,37.4-16.74,37.4-37.4s-16.74-37.4-37.4-37.4v-34.5c20.65,0,37.4-16.74,37.4-37.4s-16.74-37.4-37.4-37.4v-39.39c20.65,0,37.4-16.74,37.4-37.4s-16.74-37.4-37.4-37.4v-39.9c20.65,0,37.4-16.74,37.4-37.4s-16.74-37.4-37.4-37.4v-34.5c20.65,0,37.4-16.74,37.4-37.4s-16.74-37.4-37.4-37.4v-39.39c20.65,0,37.4-16.74,37.4-37.4s-16.74-37.4-37.4-37.4v-41.02c20.65,0,37.4-16.74,37.4-37.4s-16.74-37.4-37.4-37.4v-34.5c20.65,0,37.4-16.74,37.4-37.4s-16.74-37.4-37.4-37.4v-39.39c20.65,0,37.4-16.74,37.4-37.4S26.31,15.15,5.66,15.15V0H.22v2356.46h5.44v-16.49c20.65,0,37.4-16.74,37.4-37.4Z"/>
</svg>