<?xml version="1.0" encoding="UTF-8"?>
<svg id="Layer_1" data-name="Layer 1" xmlns="http://www.w3.org/2000/svg" viewBox="0 0 960.54 1105.32">
  <defs>
    <style>
      .cls-1 {
        letter-spacing: .01em;
      }

      .cls-2 {
        fill: #231f20;
        font-family: Futura-Bold, Futura;
        font-size: 21.47px;
        font-weight: 700;
      }

      .cls-3 {
        letter-spacing: 0em;
      }

      .cls-4 {
        fill: #2d2b6e;
      }

      .cls-4, .cls-5, .cls-6, .cls-7 {
        stroke-width: 0px;
      }

      .cls-5 {
        fill: #27266e;
      }

      .cls-6 {
        fill: #f15b22;
      }

      .cls-7 {
        fill: #fff;
      }
    </style>
  </defs>
  <g>
    <path class="cls-6" d="M936.94,245.23l-11.68-.61h-.05s-23.21-1.21-23.21-1.21l-3.17-.16c-1,19.19-17.36,33.93-36.54,32.94-19.19-1-33.93-17.35-32.94-36.54l-36.59-1.9c-1,19.19-17.36,33.93-36.54,32.94-19.19-1-33.93-17.35-32.94-36.54l-32.05-1.66c-1,19.19-17.36,33.93-36.54,32.94-19.19-1-33.93-17.35-32.94-36.54l-31.65-1.64c-1,19.19-17.35,33.93-36.54,32.94-19.19-1-33.93-17.35-32.94-36.54l-36.59-1.9c-1,19.19-17.35,33.93-36.54,32.94-19.19-1-33.93-17.35-32.94-36.54l-32.05-1.66c-1,19.19-17.35,33.93-36.54,32.94-19.19-1-33.93-17.35-32.94-36.54l-45.6-2.36-.58,11.15-1.48,28.57-.04.82,7.5.39c15.4,4.24,26.34,18.72,25.48,35.33-1,19.19-17.35,33.93-36.54,32.94l-1.9,36.59c19.19,1,33.93,17.36,32.94,36.54-1,19.19-17.35,33.93-36.54,32.94l-1.66,32.05c19.19,1,33.93,17.36,32.94,36.54-1,19.19-17.35,33.93-36.54,32.94l-1.98,38.11c19.19,1,33.93,17.36,32.94,36.54-1,19.19-17.35,33.93-36.54,32.94l-1.9,36.59c19.19,1,33.93,17.36,32.94,36.54s-17.35,33.93-36.54,32.94l-1.66,32.05c19.19,1,33.93,17.36,32.94,36.54-1,19.19-17.35,33.93-36.54,32.94l-1.64,31.65c19.19,1,33.93,17.35,32.94,36.54-1,19.19-17.35,33.93-36.54,32.94l-.21,4.13-1.68,32.46-.37,7.18,19.34,1,1.8.09,17.62.91,1.78.09.82.04c1-19.19,17.36-33.93,36.54-32.94,19.19,1,33.93,17.35,32.94,36.54l32.05,1.66c1-19.19,17.36-33.93,36.54-32.94,19.19,1,33.93,17.35,32.94,36.54l36.98,1.92c1-19.19,17.35-33.93,36.54-32.94,19.19,1,33.93,17.35,32.94,36.54l36.59,1.9c1-19.19,17.36-33.93,36.54-32.94,19.19,1,33.93,17.35,32.94,36.54l32.05,1.66c1-19.19,17.36-33.93,36.54-32.94,19.19,1,33.93,17.35,32.94,36.54l38.11,1.98c1-19.19,17.36-33.93,36.54-32.94,19.19,1,33.93,17.35,32.94,36.54l.57.03,16.46.85,5.67.29,13.89.72,4.52.23.89-17.12.5-9.66.71-13.76h0s.09-1.73.09-1.73c-19.19-1-33.93-17.35-32.94-36.54,1-19.19,17.35-33.93,36.54-32.94l1.9-36.59c-19.19-1-33.93-17.36-32.94-36.54,1-19.19,17.35-33.93,36.54-32.94l1.66-32.05c-19.19-1-33.93-17.36-32.94-36.54,1-19.19,17.36-33.93,36.54-32.94l1.98-38.11c-19.19-1-33.93-17.36-32.94-36.54,1-19.19,17.35-33.93,36.54-32.94l1.9-36.59c-19.19-1-33.93-17.36-32.94-36.54,1-19.19,17.35-33.93,36.54-32.94l1.66-32.05c-19.19-1-33.93-17.36-32.94-36.54,1-19.19,17.35-33.93,36.54-32.94l1.64-31.65c-19.19-1-33.93-17.35-32.94-36.54,1-19.19,17.35-33.93,36.54-32.94l.04-.69,1.12-21.64.15-2.95.59-11.31.24-4.63-5.6-.29Z"/>
    <rect class="cls-7" x="340.9" y="320.7" width="487.14" height="605.67" transform="translate(33.08 -29.43) rotate(2.97)"/>
    <path class="cls-6" d="M463.13,554.41c5.91-12.25-1.81-16.83,1.97-31.33,4.84-18.56,19.59-19.14,23.27-37.91,2.31-11.77-3.2-13.01-.86-23.79,5.31-24.44,38.49-40.49,48.21-33.82,2.48,1.7,4.37,5.54,8.44,5.68,2.35.08,8.72-1.47,6.82-3.49-5.62-5.95-4.67-12.09-1.61-16.15,3.94-5.22,3.96-.62,8.59-4.09,3.16-2.36.46-5.69,1.97-11.07,2.28-8.12,7.4-8,7.89-14.08.4-4.97-2.43-6.02-3.38-12.23-1.36-8.84,8.48-18,11.03-19.02,2.41-.97,5.06-.12,5.74-.51,4.1-2.32-.41-11.48,10.35-18.53,3.91,4.21,6.58,5.96,9.79,6.45,1.74.26-3.07,5.89-3.87,6.71-.69.71-1.82,1.66-1.82,1.66,0,0-1.29.9-1.88,1.32-.53.37-.87.37-1.81.96-2.66,3.33,6.96-.4,7.4.6,1.09,2.43-23.52,37.89-20.63,40.67,1.25,1.21,6.42-3.99,10.92-1.88,2.6,1.22,2.38,3.65,5.21,7.26,4.4,5.61,11.78,8.47,13.26,6.97,1.39-1.41-3.7-5.39-3.22-12.04.43-5.88,5.09-12.06,9.72-12.42,2.97-.23,4.75,2.04,6.23,1.02,1.83-1.25-.42-5.03.8-8.69,2.17-6.48,13.44-1.93,20.63-5.7,1.73-.91.04,2.51,4.29,10.14,4.22,7.58,4.43,10.33,3.22,12.04-1.99,2.8-8.48.87-8.85,2.33-.32,1.25,4.54,2.1,6.68,5.93,2.4,4.31.97,11.67-3.2,14.5-4.42,3.01-9.6-.68-12.35,2.5-1.72,1.99-1.81,5.87-.07,8.03,3,3.7,9.4-.17,15.9,3.27,3.72,1.97,5.77,5.43,6.92,8.04,13.32-4.71,19.95-21.08,29.93-31.63,2.63,9.4,5.87,19.24,8.1,18.93,2.67-.37,4.83-20.84,6.75-19.69,15.26,9.19,23.39,15.51,32.64,28.02.94,1.27-18.82,5.9-19.24,8.94-.33,2.37,9.09,2.8,19.53,5.74-26.1,15.94-28.9,27.27-27.13,31.42,1.17,2.74,4.29,2.27,7.32,7.02,4.1,6.41,1.37,11.89,6.14,16.38.44.41,3.46,3.26,5.46,2.38,3.7-1.63-6.07-10,3.34-17.29,15.99-12.39,14.97,4.69,19.18.65,2.17-2.09.16-5.02,2.45-6.86,3.3-2.65,5.57.23,11.03.95,9.61,1.27,11.91-1.04,12.66.28.58,1.03-2.61,7.36-.69,12.18,2.49,6.26.61,5.39-1.4,7.97-2.26,2.9-6.01.92-8.23,3.76-2.38,3.06,1.11,6.43-.6,11.49-1.64,4.87-7.26,8.93-11.96,8.46-5.13-.51-7.44-6.23-9.15-5.36-1.6.81-1.68,6.87,1.53,10.91,4.22,5.32,11.09,3.28,13.22,7.67,2.06,4.24-3.29,10.3-1.59,10.4,17.53,1.01,38.19-25.74,39.42-23.69,1.27,2.12-2.09,10.28-.81,10.76,1.94.74,10.38-16.85,11.33-15.09,2.59,4.83,4.97,6.95,9.85,9.65,2.44,1.35-9.2,4.52-17.01,10.91-2.82,2.3-.33,5.62-1.68,9.6-2.18,6.44-10.53,11.11-18.03,10.94-5.21-.12-5.23-2.44-8.98-1.86-7.77,1.2-8.84,11.3-16.71,12.41-3.92.55-1.92-1.32-8.36-.43-4.18.57.88,5.04-4.1,12.37-5.81,5.16-15.31-2.39-16.77-.53-1.8,2.3-.21,6.17-2.12,7.22-2.24,1.23-6.41-2.95-7.22-2.12-.77.79,3.17,4.38,2.1,6.74-1.02,2.25-5.49.98-7.53,3.8-1.27,1.75-.85,4.04-.65,5.16,1.94,11.01.1,31.96-.72,33.82-5.18,11.81-5.98,17.68-20.92,29.27-6.7,5.2-13.59,6.71-24.53,10.46-15.06,5.15-17.53,4.72-18.62,5.9-10.17,11.02.92,36.54,5.56,47.23,7.11,16.35,16.58,28.55,25.05,39.46,10.86,13.99,18.34,20.76,22.22,35.11,1.66,6.17,3.74,14.27.04,21.37-5.87,11.28-22.68,13.14-30.11,14.08-31.25,3.95-88.8,11.23-130.01,34.47-16.41,9.25-36.24,24.43-51.66,17.55-1.81-.81-5.1-2.33-6.57-5.68-3.86-8.79,9.49-19.55,25.41-41.04,10.78-14.56,20.21-27.29,25.24-45.25,5.71-20.35,2.88-37.1,2.13-41.1-1.26-6.73-7.28-39.02-30.6-50.05-3.95-1.87-2.25-.22-28.67-6.45-23.02-5.43-28.03-7.56-29.89-12.24-1.91-4.78-1.62-14.93,3.05-21.97,1.15-1.73,2.85-3.71,2.2-5.61-1.18-3.47-6.35-3.64-7.28-6.71-.83-2.73,2.09-5.04,3.1-8.39,1.38-4.57-4.04-6.06-4.76-11.31-1.12-8.2,9.23-11.96,7.8-17.91-1.45-6.05-12.71-4.54-17.6-13.89-.48-.91-2.3-4.51-1.83-8.87.85-7.8,8.3-11.09,19.77-20.73,10.25-8.62,15.38-12.93,18.5-19.39Z"/>
    <path class="cls-7" d="M618.67,406.89c-.57-1.55.61-9.65,2.39-13.21,1.92-3.85,9.29-8.18,10.82-8.11,1.74.08,1.98,8.77-.42,13.82-2.92,6.13-12.37,8.63-12.79,7.51Z"/>
    <path class="cls-7" d="M735.95,506.44c.04-1.65,4.1-8.75,7.06-11.42,3.19-2.88,11.64-4.21,13.04-3.59,1.59.71-1.37,8.89-5.45,12.71-4.96,4.64-14.67,3.51-14.65,2.3Z"/>
    <circle class="cls-7" cx="693.24" cy="438.34" r="10.23"/>
  </g>
  <text class="cls-2" transform="translate(310.79 -220.91) rotate(25.39)"><tspan x="0" y="0">G</tspan><tspan class="cls-3" x="18.89" y="0">r</tspan><tspan x="28.9" y="0">undlæg</tspan><tspan class="cls-1" x="115.16" y="0">g</tspan><tspan x="130.38" y="0">ende</tspan></text>
  <path class="cls-5" d="M726.46,351.65c-31.98-82.6-54.47-157.67-86.27-240.12-12.99-33.7-42.83-58.03-78.48-63.85-80.45-13.12-167.4-32.1-248.01-45.37-36.07-5.94-72.53,8.06-95.48,36.53-53.22,66.03-106.44,132.06-159.65,198.08-23.88,29.63-29.2,70.12-13.79,104.91,35.68,80.55,71.35,161.1,107.03,241.66,14.61,32.99,45.65,55.67,81.49,59.81,81.39,9.39,156,22.76,237.45,32.11,34.75,3.99,69.09-10.3,90.9-37.65,48.27-60.53,100.94-125.59,149.37-186.28,22.49-28.18,28.45-66.2,15.43-99.83ZM687.59,443.52c-44.94,56.32-93.81,116.68-138.6,172.85-20.24,25.38-52.1,38.64-84.35,34.93-75.58-8.68-144.8-21.09-220.33-29.8-33.26-3.84-62.06-24.88-75.62-55.5-33.1-74.74-66.21-149.49-99.31-224.23-14.3-32.28-9.36-69.85,12.8-97.35,49.38-61.27,98.76-122.53,148.14-183.8,21.29-26.41,55.12-39.4,88.59-33.89,74.8,12.31,155.48,29.92,230.13,42.1,33.08,5.4,60.76,27.97,72.82,59.24,29.5,76.5,50.37,146.17,80.04,222.81,12.08,31.2,6.55,66.48-14.32,92.63Z"/>
  <path class="cls-5" d="M691.32,350.57c-28.68-74.07-48.85-141.4-77.36-215.34-11.65-30.22-38.41-52.04-70.38-57.26-72.14-11.77-150.12-28.79-222.41-40.69-32.35-5.32-65.05,7.23-85.62,32.76-47.73,59.21-95.45,118.43-143.18,177.64-21.41,26.57-26.19,62.88-12.37,94.08,31.99,72.24,63.99,144.47,95.98,216.71,13.1,29.59,40.93,49.93,73.08,53.63,72.99,8.42,139.9,20.41,212.94,28.8,31.16,3.58,61.96-9.24,81.52-33.76,43.29-54.29,90.52-112.62,133.95-167.05,20.17-25.27,25.51-59.37,13.84-89.52ZM539.66,600c-19.04,23.88-49.03,36.36-79.38,32.88-71.13-8.17-136.28-19.85-207.36-28.04-31.3-3.61-58.4-23.42-71.16-52.23-31.16-70.34-62.31-140.69-93.47-211.03-13.46-30.38-8.81-65.74,12.04-91.61,46.47-57.66,92.95-115.32,139.42-172.98,20.04-24.86,51.88-37.08,83.38-31.9,70.39,11.59,146.33,28.16,216.58,39.62,31.13,5.08,57.18,26.33,68.53,55.76,27.76,72,47.41,137.56,75.33,209.69,11.37,29.36,6.16,62.56-13.48,87.17-42.29,53-88.29,109.81-130.44,162.68Z"/>
  <path class="cls-5" d="M569.26,358.13l-234.34-177.91c-.29-.22-.61-.32-.92-.48l-.09-.2-.19.05c-2.16-.99-4.59-.67-5.88,1.03l-98.07,129.17c-1.49,1.96-.87,4.89,1.31,6.72l.09.44.37-.02,233.8,177.5.08.37.45-.03c2.34,1.61,5.33,1.41,6.82-.55l98.07-129.17c1.54-2.03.87-5.13-1.51-6.93ZM562.7,363.94l-93.25,122.82c-.32.42-.74.71-1.18.97l-30.77-141.52,125.37,17.33c-.07.13-.08.27-.17.39ZM338.15,187.68l223.04,169.33c.85.65,1.4,1.48,1.79,2.35l-160.67-22.22-65.08-149.95c.31.16.63.26.92.48ZM237.21,312.31c.13-.49.3-.98.62-1.4l93.25-122.82c.4-.53.92-.92,1.49-1.19l50.75,116.93-146.11,8.48ZM462.38,487.17l-223.04-169.33c-.49-.37-.86-.83-1.21-1.29l147-8.54,14.48,33.37,1.01-.27h0l32.36,4.47,30.96,142.4c-.54-.2-1.07-.44-1.57-.81Z"/>
  <g>
    <path class="cls-5" d="M185.26,374.72l11.79,8.95c-.92,1.21-1.81,2.28-2.66,3.19s-1.75,1.68-2.7,2.3c-1.33.87-2.71,1.49-4.13,1.86-1.42.37-2.86.48-4.31.36-1.45-.13-2.88-.47-4.3-1.04-1.42-.57-2.77-1.34-4.07-2.32-1.78-1.35-3.18-2.87-4.2-4.57-1.02-1.7-1.65-3.48-1.9-5.33-.25-1.86-.1-3.75.44-5.68.54-1.93,1.49-3.79,2.86-5.59,1.35-1.78,2.88-3.19,4.58-4.24,1.7-1.05,3.48-1.7,5.34-1.94,1.86-.24,3.76-.09,5.7.46,1.94.55,3.83,1.52,5.67,2.92,2.38,1.81,4.08,3.91,5.1,6.31,1.01,2.39,1.23,5.07.64,8.03l-7.41-1.95c.42-1.65.43-3.07,0-4.25-.42-1.18-1.17-2.18-2.24-2.99-.89-.68-1.82-1.12-2.8-1.34-.98-.22-1.96-.21-2.95,0-.98.22-1.95.66-2.9,1.31-.95.65-1.84,1.5-2.65,2.57-.74.97-1.29,1.96-1.67,2.99-.38,1.02-.54,2.03-.5,3.01.04.99.31,1.94.81,2.84s1.24,1.73,2.23,2.48c.59.44,1.2.81,1.85,1.09.64.28,1.3.44,1.95.48.66.04,1.3-.07,1.94-.32.64-.25,1.26-.67,1.86-1.26l-4.88-3.71,3.5-4.61Z"/>
    <path class="cls-5" d="M202.39,383.37l5.49,4.17-1.93,2.54c1.29-.48,2.55-.65,3.77-.5,1.22.15,2.4.66,3.53,1.52.14.11.3.22.47.36.17.13.35.3.54.51l-3.98,5.24c-.45-.92-1.1-1.7-1.95-2.34-1.27-.97-2.51-1.31-3.73-1.04-1.21.28-2.37,1.14-3.48,2.6l-5.06,6.67-5.49-4.17,11.8-15.55Z"/>
    <path class="cls-5" d="M222,398.26l-6.65,8.76c-1.46,1.92-1.26,3.58.6,5,1.86,1.41,3.52,1.16,4.97-.76l6.65-8.76,5.49,4.17-7.46,9.82c-1.6,2.1-3.48,3.15-5.67,3.15s-4.65-1.04-7.39-3.13c-2.75-2.09-4.42-4.18-5-6.28-.59-2.1-.08-4.2,1.51-6.3l7.46-9.82,5.49,4.17Z"/>
    <path class="cls-5" d="M236.79,409.49l5.49,4.16-1.5,1.97c1.44-.34,2.66-.38,3.67-.11,1,.27,2.02.79,3.05,1.58,1.09.83,1.89,1.71,2.4,2.66.51.94.79,1.95.85,3.01.05.86-.1,1.68-.42,2.45-.33.77-.81,1.57-1.44,2.4l-7.5,9.88-5.49-4.16,5.96-7.85c.58-.77,1-1.43,1.25-1.99.25-.56.34-1.09.27-1.59-.06-.43-.2-.8-.43-1.13s-.51-.63-.86-.89c-.93-.71-1.85-.97-2.77-.79-.92.18-1.76.79-2.55,1.82l-6.3,8.3-5.49-4.17,11.8-15.55Z"/>
    <path class="cls-5" d="M276.21,424.27l5.52,4.19-19.1,25.15-5.52-4.19,1.31-1.73c-2.29.59-4.44.12-6.44-1.4-1.13-.86-2.01-1.86-2.64-3.01-.63-1.15-1.01-2.36-1.15-3.64-.14-1.29-.02-2.58.35-3.89.38-1.31,1.01-2.55,1.9-3.72.84-1.11,1.83-2.03,2.96-2.74,1.13-.71,2.33-1.19,3.58-1.41,1.25-.23,2.53-.19,3.82.1,1.29.29,2.51.88,3.66,1.75,1.94,1.47,3.03,3.37,3.28,5.69l8.47-11.15ZM256.14,436.36c-.38.51-.65,1.04-.8,1.62-.15.57-.19,1.14-.12,1.7.07.56.25,1.1.55,1.61.3.51.7.96,1.2,1.34.49.37,1.01.63,1.59.78.57.15,1.14.18,1.7.09.56-.09,1.09-.27,1.61-.55.51-.28.96-.66,1.32-1.14.37-.48.62-1.02.76-1.6.14-.58.17-1.15.11-1.71-.07-.56-.25-1.1-.55-1.61-.3-.51-.69-.95-1.17-1.32-.48-.37-1.01-.63-1.59-.77-.57-.15-1.14-.18-1.7-.09-.56.09-1.09.26-1.6.53-.51.27-.94.65-1.31,1.13Z"/>
    <path class="cls-5" d="M290.94,435.46l-19.1,25.16-5.49-4.17,19.1-25.15,5.49,4.16Z"/>
    <path class="cls-5" d="M295.82,467.97c-.8,1.05-1.13,2.15-.99,3.29.14,1.14.74,2.12,1.81,2.93,1.25.95,2.46,1.1,3.62.46l5.33,4.05c-1.74,1.29-3.67,1.87-5.77,1.75s-4.2-.97-6.28-2.55c-3.11-2.36-4.4-4.93-3.85-7.7-3.1.73-5.97.1-8.6-1.89-.95-.72-1.73-1.5-2.34-2.33-.61-.83-1.04-1.68-1.27-2.54-.24-.87-.28-1.72-.12-2.58.15-.85.52-1.66,1.11-2.43.6-.79,1.29-1.38,2.09-1.78.8-.4,1.64-.61,2.53-.63.89-.02,1.83.15,2.8.53s1.95.93,2.92,1.66c1.27.97,2.4,2.25,3.38,3.86l.32-.42c1.41-1.86.86-3.74-1.64-5.64-.97-.74-2.62-1.52-4.94-2.37l3.15-4.15c2.03.77,3.73,1.69,5.13,2.75,1.43,1.09,2.43,2.19,2.99,3.3.56,1.11.79,2.39.7,3.86,2.69-.86,5.37-.27,8.03,1.75,2.77,2.1,4.28,4.48,4.54,7.14.26,2.66-.76,5.5-3.04,8.51l-11.61-8.81ZM284.13,462.11c-.4.52-.5,1.12-.3,1.78.2.66.67,1.28,1.42,1.84.73.55,1.5.88,2.32.97.82.1,1.41-.1,1.78-.58.35-.46.36-1.08.03-1.84-.33-.76-.89-1.44-1.68-2.04-.71-.54-1.38-.82-2.03-.85-.65-.03-1.16.21-1.54.72ZM304.73,469.72c.8-2.07.39-3.72-1.25-4.96-1.56-1.18-3.25-1.13-5.08.15l6.33,4.81Z"/>
    <path class="cls-5" d="M334.53,483.7l-11,14.49c-.66.87-1.3,1.61-1.92,2.22-.62.61-1.22,1.11-1.8,1.5-.75.48-1.6.82-2.55,1-.95.19-1.95.21-3,.09s-2.13-.42-3.23-.88c-1.1-.46-2.19-1.09-3.26-1.9-1.21-.92-2.21-1.91-2.99-2.99-.78-1.07-1.35-2.16-1.7-3.27-.35-1.11-.5-2.21-.44-3.29.06-1.09.33-2.12.81-3.09l6.18,4.7c-.4,1.32.08,2.5,1.43,3.53,1.15.87,2.28,1.22,3.39,1.04,1.11-.18,2.1-.85,2.97-2l1.13-1.48c-.7.08-1.33.1-1.89.07-.57-.03-1.1-.11-1.61-.24s-1-.32-1.48-.57-.97-.57-1.47-.95c-1.11-.84-1.99-1.81-2.62-2.9-.64-1.09-1.03-2.23-1.19-3.44-.16-1.2-.06-2.42.3-3.67.35-1.24.98-2.45,1.87-3.62.9-1.19,1.95-2.15,3.13-2.86,1.18-.71,2.4-1.18,3.68-1.41,1.27-.23,2.55-.2,3.84.1,1.29.29,2.5.87,3.63,1.73,1.84,1.4,2.86,3.26,3.07,5.58l1.24-1.64,5.49,4.17ZM316.38,482.05c-.38.51-.65,1.04-.8,1.62s-.19,1.14-.12,1.7c.07.56.25,1.1.54,1.61.3.51.7.96,1.2,1.34.49.37,1.01.62,1.59.77.57.15,1.14.18,1.7.09.56-.09,1.1-.27,1.62-.56s.97-.68,1.34-1.16c.38-.5.64-1.04.77-1.61.13-.57.16-1.14.08-1.71-.08-.57-.26-1.11-.56-1.62-.3-.51-.68-.95-1.14-1.3-.48-.37-1.01-.62-1.58-.75-.57-.13-1.14-.16-1.7-.09-.56.07-1.1.24-1.61.52-.51.28-.96.66-1.32,1.14Z"/>
    <path class="cls-5" d="M355.65,499.73l-11,14.49c-.66.87-1.3,1.61-1.92,2.22-.62.61-1.22,1.11-1.8,1.5-.75.48-1.6.82-2.55,1s-1.95.21-3,.09c-1.05-.13-2.13-.42-3.23-.88-1.1-.46-2.19-1.09-3.26-1.9-1.21-.92-2.21-1.92-2.99-2.99-.78-1.07-1.35-2.16-1.7-3.27-.35-1.11-.5-2.21-.44-3.29.06-1.09.33-2.12.81-3.09l6.18,4.69c-.4,1.32.08,2.5,1.43,3.53,1.15.88,2.28,1.22,3.39,1.04,1.11-.18,2.1-.85,2.97-2l1.13-1.49c-.7.08-1.33.1-1.89.07s-1.1-.11-1.61-.24c-.5-.13-1-.32-1.48-.57-.48-.25-.97-.57-1.48-.95-1.11-.84-1.98-1.81-2.62-2.9s-1.03-2.23-1.19-3.43c-.16-1.2-.06-2.43.3-3.67.36-1.24.98-2.45,1.87-3.62.9-1.19,1.95-2.15,3.13-2.86,1.18-.71,2.4-1.18,3.68-1.41,1.27-.23,2.55-.2,3.84.1,1.29.29,2.5.87,3.63,1.73,1.84,1.4,2.86,3.26,3.07,5.58l1.24-1.63,5.49,4.16ZM337.5,498.09c-.38.51-.65,1.05-.8,1.62-.15.57-.19,1.14-.12,1.7.07.56.25,1.1.55,1.61.3.51.7.96,1.2,1.34.49.37,1.02.62,1.59.77.57.15,1.14.18,1.7.09.56-.09,1.1-.27,1.62-.56.52-.29.97-.68,1.34-1.16.38-.5.64-1.04.77-1.61.13-.57.16-1.14.08-1.71-.08-.57-.26-1.11-.56-1.62-.3-.51-.68-.94-1.14-1.3-.48-.37-1.01-.62-1.58-.75-.57-.13-1.14-.16-1.7-.09-.56.07-1.1.24-1.61.52s-.95.66-1.32,1.14Z"/>
    <path class="cls-5" d="M358.08,515.29c-1.79,2.37-1.58,4.39.64,6.08,1.19.9,2.46,1.1,3.8.59l5.3,4.03c-3.77,2.74-7.8,2.49-12.08-.76-1.31-1-2.37-2.11-3.16-3.33-.79-1.22-1.3-2.49-1.53-3.81-.22-1.32-.17-2.64.18-3.97.34-1.33.99-2.62,1.94-3.88.98-1.29,2.07-2.31,3.26-3.04s2.44-1.18,3.74-1.34c1.3-.16,2.63-.03,3.99.38,1.36.41,2.71,1.12,4.04,2.13,1.31,1,2.35,2.09,3.1,3.28s1.21,2.44,1.37,3.74c.16,1.3.02,2.64-.42,4.01-.44,1.37-1.17,2.74-2.2,4.09l-.44.57-11.55-8.77ZM366.92,516.98c.4-.9.49-1.8.28-2.7-.21-.89-.72-1.65-1.53-2.26-.85-.64-1.71-.95-2.58-.91-.87.04-1.69.41-2.44,1.11l6.27,4.76Z"/>
    <path class="cls-5" d="M379.35,517.72l5.49,4.17-1.5,1.97c1.44-.34,2.66-.38,3.67-.11,1,.27,2.02.8,3.05,1.58,1.09.83,1.89,1.71,2.4,2.66.51.94.79,1.95.85,3.01.05.86-.1,1.68-.42,2.45-.33.77-.81,1.57-1.44,2.4l-7.5,9.88-5.49-4.16,5.96-7.85c.58-.77,1-1.43,1.25-1.99.25-.56.34-1.09.27-1.59-.06-.43-.2-.8-.43-1.14-.23-.33-.51-.62-.86-.89-.93-.71-1.85-.97-2.77-.79-.92.18-1.77.79-2.55,1.82l-6.3,8.3-5.49-4.16,11.8-15.55Z"/>
    <path class="cls-5" d="M418.77,532.51l5.52,4.19-19.1,25.16-5.52-4.19,1.31-1.73c-2.29.59-4.44.12-6.44-1.4-1.13-.86-2.01-1.86-2.64-3.01-.63-1.14-1.01-2.36-1.15-3.64-.14-1.29-.02-2.58.35-3.89.37-1.31,1-2.55,1.9-3.72.84-1.11,1.83-2.03,2.96-2.74,1.13-.71,2.33-1.19,3.58-1.41,1.25-.22,2.53-.19,3.82.1,1.29.29,2.51.88,3.66,1.75,1.94,1.47,3.03,3.37,3.28,5.69l8.47-11.15ZM398.7,544.6c-.38.51-.65,1.04-.8,1.62-.15.57-.19,1.14-.12,1.7.07.56.25,1.1.55,1.61.3.51.7.96,1.2,1.34.49.37,1.01.63,1.59.78.57.15,1.14.18,1.7.09.56-.09,1.1-.27,1.61-.55.51-.28.96-.66,1.32-1.15.37-.48.62-1.02.76-1.6s.17-1.15.11-1.71c-.07-.56-.25-1.1-.55-1.61-.3-.51-.69-.95-1.17-1.32s-1.01-.63-1.59-.78-1.14-.18-1.7-.09c-.56.09-1.09.26-1.6.53-.51.27-.95.65-1.31,1.13Z"/>
    <path class="cls-5" d="M419.06,561.58c-1.79,2.37-1.58,4.39.64,6.08,1.19.91,2.46,1.1,3.8.59l5.3,4.03c-3.77,2.74-7.8,2.49-12.08-.76-1.31-1-2.37-2.11-3.16-3.33-.79-1.22-1.3-2.49-1.53-3.81-.22-1.32-.17-2.64.18-3.97.34-1.33.99-2.62,1.94-3.88.98-1.29,2.07-2.31,3.26-3.04,1.19-.73,2.44-1.18,3.74-1.34,1.3-.16,2.63-.03,3.99.38,1.36.41,2.71,1.12,4.04,2.14,1.31,1,2.35,2.09,3.1,3.28s1.21,2.44,1.37,3.74c.16,1.3.02,2.63-.42,4.01-.44,1.37-1.17,2.74-2.2,4.09l-.44.58-11.55-8.77ZM427.9,563.28c.4-.9.49-1.8.28-2.7s-.72-1.65-1.53-2.26c-.85-.64-1.71-.95-2.58-.91-.87.04-1.69.41-2.44,1.11l6.27,4.76Z"/>
  </g>
  <text/>
  <g>
    <path class="cls-4" d="M327.2,87.65c1.82-2.24,3.75-4.03,5.82-5.38,2.07-1.35,4.15-2.25,6.25-2.68s4.17-.42,6.2.05,3.93,1.42,5.69,2.86c1.74,1.41,3.05,3.06,3.95,4.96.89,1.9,1.33,3.92,1.33,6.06,0,2.14-.46,4.36-1.35,6.66-.9,2.3-2.25,4.57-4.07,6.81-1.81,2.24-3.75,4.03-5.82,5.38-2.07,1.35-4.15,2.26-6.25,2.72-2.1.46-4.17.45-6.21-.04-2.04-.48-3.93-1.43-5.67-2.84-1.76-1.43-3.09-3.09-3.97-4.98-.88-1.89-1.32-3.91-1.32-6.07,0-2.16.45-4.39,1.35-6.69.9-2.3,2.25-4.57,4.07-6.8ZM334.43,93.52c-1.01,1.24-1.81,2.46-2.42,3.66-.6,1.2-1,2.34-1.2,3.42s-.17,2.05.07,2.93c.24.87.72,1.6,1.44,2.19.7.56,1.5.88,2.42.94.92.06,1.88-.12,2.88-.54,1-.42,2.03-1.05,3.08-1.89,1.05-.84,2.08-1.88,3.09-3.12.99-1.22,1.79-2.43,2.4-3.65.61-1.21,1.02-2.35,1.22-3.4s.17-2.03-.08-2.91c-.25-.88-.72-1.61-1.42-2.17-.72-.58-1.53-.9-2.44-.96-.9-.05-1.86.12-2.86.52-1,.4-2.04,1.03-3.1,1.88-1.06.85-2.08,1.88-3.07,3.1Z"/>
    <path class="cls-4" d="M371.44,128.05l3.39,2.75-4.54,5.59-3.39-2.75-4.69,5.78-6.78-5.5,4.69-5.78-13.57-11.01,3.81-4.7,25.04-8.92,9.62,7.8-13.58,16.74ZM364.65,122.55l8.98-11.07-15.43,5.84,6.45,5.23Z"/>
    <path class="cls-4" d="M403.49,164.81l-10.44-8.47-5.64,3.52-7.79-6.32,33.5-19.43,7.98,6.47-12.11,36.79-7.79-6.32,2.28-6.24ZM406.05,157.68l4.31-12.02-10.87,6.7,6.56,5.32Z"/>
    <path class="cls-4" d="M412.2,179.97l22.8-28.11,7.31,5.93-.45,28.13,13.94-17.18,7.27,5.9-22.8,28.11-7.27-5.9.45-28.13-13.94,17.18-7.31-5.93Z"/>
    <path class="cls-4" d="M476.26,185.34l-22.8,28.11-7.31-5.93,22.8-28.11,7.31,5.93Z"/>
    <path class="cls-4" d="M458.08,217.2l27.57-24.24,7.23,5.87-6.53,19.55,17.75-10.45,7.23,5.87-18.03,31.98-7.27-5.9,10.7-18.14-19.76,10.79-2.91-2.36,6.83-21.29-15.55,14.21-7.27-5.9Z"/>
    <path class="cls-4" d="M519.11,258.62l-10.44-8.47-5.64,3.52-7.79-6.32,33.5-19.43,7.98,6.47-12.1,36.79-7.79-6.32,2.28-6.24ZM521.68,251.49l4.31-12.02-10.87,6.7,6.56,5.32Z"/>
    <path class="cls-4" d="M555.03,259.52l-17.78,21.92-7.3-5.93,17.78-21.92-6-4.87,5.02-6.19,19.31,15.67-5.02,6.19-6-4.87Z"/>
    <path class="cls-4" d="M576.61,266.76l-22.8,28.11-7.31-5.93,22.8-28.11,7.31,5.93Z"/>
    <path class="cls-4" d="M569.82,284.56c1.69-2.09,3.66-3.72,5.89-4.9,2.23-1.18,4.58-1.88,7.03-2.12,2.46-.23,4.94.04,7.46.83s4.92,2.11,7.2,3.96c2.26,1.84,4.04,3.91,5.34,6.22s2.09,4.7,2.38,7.16c.29,2.46.09,4.9-.6,7.33-.69,2.43-1.88,4.68-3.58,6.77-1.69,2.09-3.66,3.72-5.89,4.89-2.23,1.18-4.58,1.88-7.05,2.1-2.47.22-4.96-.06-7.49-.86-2.53-.79-4.92-2.11-7.18-3.94-2.29-1.86-4.07-3.93-5.36-6.23-1.29-2.3-2.07-4.68-2.35-7.13-.28-2.45-.07-4.89.62-7.32.69-2.43,1.88-4.68,3.58-6.77ZM577.47,290.76c-.91,1.12-1.53,2.32-1.88,3.61-.34,1.29-.44,2.57-.28,3.85.16,1.28.56,2.5,1.2,3.66.64,1.16,1.5,2.17,2.57,3.04,1.07.87,2.24,1.5,3.51,1.89s2.55.54,3.85.43c1.3-.1,2.54-.45,3.73-1.05,1.19-.6,2.24-1.46,3.14-2.58.91-1.12,1.53-2.32,1.88-3.61.34-1.29.43-2.58.26-3.87-.17-1.29-.58-2.52-1.22-3.68s-1.5-2.18-2.57-3.04c-1.07-.87-2.24-1.5-3.51-1.89-1.27-.39-2.55-.53-3.83-.42-1.29.11-2.52.47-3.71,1.07-1.19.6-2.24,1.46-3.14,2.58Z"/>
    <path class="cls-4" d="M594.17,327.61l22.8-28.11,7.31,5.93-.45,28.13,13.94-17.18,7.27,5.9-22.8,28.11-7.27-5.9.45-28.13-13.94,17.18-7.31-5.93Z"/>
  </g>
</svg>