<?xml version="1.0" encoding="UTF-8"?>
<svg id="Layer_1" data-name="Layer 1" xmlns="http://www.w3.org/2000/svg" viewBox="0 0 960.54 1105.32">
  <defs>
    <style>
      .cls-1 {
        fill: #2d2b6e;
      }

      .cls-1, .cls-2, .cls-3, .cls-4 {
        stroke-width: 0px;
      }

      .cls-2 {
        fill: #27266e;
      }

      .cls-3 {
        fill: #f15b22;
      }

      .cls-4 {
        fill: #fff;
      }
    </style>
  </defs>
  <path class="cls-3" d="M757.28,60.81l-11.68-.61h-.05s-23.21-1.21-23.21-1.21l-3.17-.16c-1,19.19-17.36,33.93-36.54,32.94-19.19-1-33.93-17.35-32.94-36.54l-36.59-1.9c-1,19.19-17.36,33.93-36.54,32.94-19.19-1-33.93-17.35-32.94-36.54l-32.05-1.66c-1,19.19-17.36,33.93-36.54,32.94-19.19-1-33.93-17.35-32.94-36.54l-31.65-1.64c-1,19.19-17.35,33.93-36.54,32.94-19.19-1-33.93-17.35-32.94-36.54l-36.59-1.9c-1,19.19-17.35,33.93-36.54,32.94-19.19-1-33.93-17.35-32.94-36.54l-32.05-1.66c-1,19.19-17.35,33.93-36.54,32.94-19.19-1-33.93-17.35-32.94-36.54l-45.6-2.36-.58,11.15-1.48,28.57-.04.82,7.5.39c15.4,4.24,26.34,18.72,25.48,35.33-1,19.19-17.35,33.93-36.54,32.94l-1.9,36.59c19.19,1,33.93,17.36,32.94,36.54-1,19.19-17.35,33.93-36.54,32.94l-1.66,32.05c19.19,1,33.93,17.36,32.94,36.54-1,19.19-17.35,33.93-36.54,32.94l-1.98,38.11c19.19,1,33.93,17.36,32.94,36.54-1,19.19-17.35,33.93-36.54,32.94l-1.9,36.59c19.19,1,33.93,17.36,32.94,36.54s-17.35,33.93-36.54,32.94l-1.66,32.05c19.19,1,33.93,17.36,32.94,36.54-1,19.19-17.35,33.93-36.54,32.94l-1.64,31.65c19.19,1,33.93,17.35,32.94,36.54-1,19.19-17.35,33.93-36.54,32.94l-.21,4.13-1.68,32.46-.37,7.18,19.34,1,1.8.09,17.62.91,1.78.09.82.04c1-19.19,17.36-33.93,36.54-32.94,19.19,1,33.93,17.35,32.94,36.54l32.05,1.66c1-19.19,17.36-33.93,36.54-32.94,19.19,1,33.93,17.35,32.94,36.54l36.98,1.92c1-19.19,17.35-33.93,36.54-32.94,19.19,1,33.93,17.35,32.94,36.54l36.59,1.9c1-19.19,17.36-33.93,36.54-32.94,19.19,1,33.93,17.35,32.94,36.54l32.05,1.66c1-19.19,17.36-33.93,36.54-32.94,19.19,1,33.93,17.35,32.94,36.54l38.11,1.98c1-19.19,17.36-33.93,36.54-32.94,19.19,1,33.93,17.35,32.94,36.54l.57.03,16.46.85,5.67.29,13.89.72,4.52.23.89-17.12.5-9.66.71-13.76h0s.09-1.73.09-1.73c-19.19-1-33.93-17.35-32.94-36.54,1-19.19,17.35-33.93,36.54-32.94l1.9-36.59c-19.19-1-33.93-17.36-32.94-36.54,1-19.19,17.35-33.93,36.54-32.94l1.66-32.05c-19.19-1-33.93-17.36-32.94-36.54,1-19.19,17.36-33.93,36.54-32.94l1.98-38.11c-19.19-1-33.93-17.36-32.94-36.54,1-19.19,17.35-33.93,36.54-32.94l1.9-36.59c-19.19-1-33.93-17.36-32.94-36.54,1-19.19,17.35-33.93,36.54-32.94l1.66-32.05c-19.19-1-33.93-17.36-32.94-36.54,1-19.19,17.35-33.93,36.54-32.94l1.64-31.65c-19.19-1-33.93-17.35-32.94-36.54,1-19.19,17.35-33.93,36.54-32.94l.04-.69,1.12-21.64.15-2.95.59-11.31.24-4.63-5.6-.29Z"/>
  <rect class="cls-4" x="161.24" y="136.28" width="487.14" height="605.67" transform="translate(23.29 -20.38) rotate(2.97)"/>
  <path class="cls-3" d="M283.47,369.99c5.91-12.25-1.81-16.83,1.97-31.33,4.84-18.56,19.59-19.14,23.27-37.91,2.31-11.77-3.2-13.01-.86-23.79,5.31-24.44,38.49-40.49,48.21-33.82,2.48,1.7,4.37,5.54,8.44,5.68,2.35.08,8.72-1.47,6.82-3.49-5.62-5.95-4.67-12.09-1.61-16.15,3.94-5.22,3.96-.62,8.59-4.09,3.16-2.36.46-5.69,1.97-11.07,2.28-8.12,7.4-8,7.89-14.08.4-4.97-2.43-6.02-3.38-12.23-1.36-8.84,8.48-18,11.03-19.02,2.41-.97,5.06-.12,5.74-.51,4.1-2.32-.41-11.48,10.35-18.53,3.91,4.21,6.58,5.96,9.79,6.45,1.74.26-3.07,5.89-3.87,6.71-.69.71-1.82,1.66-1.82,1.66,0,0-1.29.9-1.88,1.32-.53.37-.87.37-1.81.96-2.66,3.33,6.96-.4,7.4.6,1.09,2.43-23.52,37.89-20.63,40.67,1.25,1.21,6.42-3.99,10.92-1.88,2.6,1.22,2.38,3.65,5.21,7.26,4.4,5.61,11.78,8.47,13.26,6.97,1.39-1.41-3.7-5.39-3.22-12.04.43-5.88,5.09-12.06,9.72-12.42,2.97-.23,4.75,2.04,6.23,1.02,1.83-1.25-.42-5.03.8-8.69,2.17-6.48,13.44-1.93,20.63-5.7,1.73-.91.04,2.51,4.29,10.14,4.22,7.58,4.43,10.33,3.22,12.04-1.99,2.8-8.48.87-8.85,2.33-.32,1.25,4.54,2.1,6.68,5.93,2.4,4.31.97,11.67-3.2,14.5-4.42,3.01-9.6-.68-12.35,2.5-1.72,1.99-1.81,5.87-.07,8.03,3,3.7,9.4-.17,15.9,3.27,3.72,1.97,5.77,5.43,6.92,8.04,13.32-4.71,19.95-21.08,29.93-31.63,2.63,9.4,5.87,19.24,8.1,18.93,2.67-.37,4.83-20.84,6.75-19.69,15.26,9.19,23.39,15.51,32.64,28.02.94,1.27-18.82,5.9-19.24,8.94-.33,2.37,9.09,2.8,19.53,5.74-26.1,15.94-28.9,27.27-27.13,31.42,1.17,2.74,4.29,2.27,7.32,7.02,4.1,6.41,1.37,11.89,6.14,16.38.44.41,3.46,3.26,5.46,2.38,3.7-1.63-6.07-10,3.34-17.29,15.99-12.39,14.97,4.69,19.18.65,2.17-2.09.16-5.02,2.45-6.86,3.3-2.65,5.57.23,11.03.95,9.61,1.27,11.91-1.04,12.66.28.58,1.03-2.61,7.36-.69,12.18,2.49,6.26.61,5.39-1.4,7.97-2.26,2.9-6.01.92-8.23,3.76-2.38,3.06,1.11,6.43-.6,11.49-1.64,4.87-7.26,8.93-11.96,8.46-5.13-.51-7.44-6.23-9.15-5.36-1.6.81-1.68,6.87,1.53,10.91,4.22,5.32,11.09,3.28,13.22,7.67,2.06,4.24-3.29,10.3-1.59,10.4,17.53,1.01,38.19-25.74,39.42-23.69,1.27,2.12-2.09,10.28-.81,10.76,1.94.74,10.38-16.85,11.33-15.09,2.59,4.83,4.97,6.95,9.85,9.65,2.44,1.35-9.2,4.52-17.01,10.91-2.82,2.3-.33,5.62-1.68,9.6-2.18,6.44-10.53,11.11-18.03,10.94-5.21-.12-5.23-2.44-8.98-1.86-7.77,1.2-8.84,11.3-16.71,12.41-3.92.55-1.92-1.32-8.36-.43-4.18.57.88,5.04-4.1,12.37-5.81,5.16-15.31-2.39-16.77-.53-1.8,2.3-.21,6.17-2.12,7.22-2.24,1.23-6.41-2.95-7.22-2.12-.77.79,3.17,4.38,2.1,6.74-1.02,2.25-5.49.98-7.53,3.8-1.27,1.75-.85,4.04-.65,5.16,1.94,11.01.1,31.96-.72,33.82-5.18,11.81-5.98,17.68-20.92,29.27-6.7,5.2-13.59,6.71-24.53,10.46-15.06,5.15-17.53,4.72-18.62,5.9-10.17,11.02.92,36.54,5.56,47.23,7.11,16.35,16.58,28.55,25.05,39.46,10.86,13.99,18.34,20.76,22.22,35.11,1.66,6.17,3.74,14.27.04,21.37-5.87,11.28-22.68,13.14-30.11,14.08-31.25,3.95-88.8,11.23-130.01,34.47-16.41,9.25-36.24,24.43-51.66,17.55-1.81-.81-5.1-2.33-6.57-5.68-3.86-8.79,9.49-19.55,25.41-41.04,10.78-14.56,20.21-27.29,25.24-45.25,5.71-20.35,2.88-37.1,2.13-41.1-1.26-6.73-7.28-39.02-30.6-50.05-3.95-1.87-2.25-.22-28.67-6.45-23.02-5.43-28.03-7.56-29.89-12.24-1.91-4.78-1.62-14.93,3.05-21.97,1.15-1.73,2.85-3.71,2.2-5.61-1.18-3.47-6.35-3.64-7.28-6.71-.83-2.73,2.09-5.04,3.1-8.39,1.38-4.57-4.04-6.06-4.76-11.31-1.12-8.2,9.23-11.96,7.8-17.91-1.45-6.05-12.71-4.54-17.6-13.89-.48-.91-2.3-4.51-1.83-8.87.85-7.8,8.3-11.09,19.77-20.73,10.25-8.62,15.38-12.93,18.5-19.39Z"/>
  <path class="cls-4" d="M439.01,222.47c-.57-1.55.61-9.65,2.39-13.21,1.92-3.85,9.29-8.18,10.82-8.11,1.74.08,1.98,8.77-.42,13.82-2.92,6.13-12.37,8.63-12.79,7.51Z"/>
  <path class="cls-4" d="M556.29,322.02c.04-1.65,4.1-8.75,7.06-11.42,3.19-2.88,11.64-4.21,13.04-3.59,1.59.71-1.37,8.89-5.45,12.71-4.96,4.64-14.67,3.51-14.65,2.3Z"/>
  <circle class="cls-4" cx="513.57" cy="253.92" r="10.23"/>
  <path class="cls-2" d="M474.31,438.01c-87.97,10.33-166.28,13.36-254.06,23.55-35.88,4.16-66.89,26.97-81.43,60.04-32.8,74.62-72.9,154.08-105.88,228.82-14.76,33.44-10.31,72.25,11.52,101.57,50.64,68.02,101.28,136.05,151.92,204.07,22.72,30.52,60.6,45.79,98.14,39.56,86.91-14.42,173.82-28.85,260.73-43.27,35.6-5.91,65.31-30.29,78.27-63.97,29.42-76.47,61.01-145.37,90.41-221.9,12.55-32.65,7.28-69.48-13.75-97.42-46.56-61.86-96.39-129.11-143.07-191.17-21.67-28.81-56.99-44.08-92.81-39.88ZM553.56,498.6c43.31,57.58,89.55,119.98,132.75,177.38,19.52,25.93,24.4,60.1,12.76,90.4-27.28,71.01-56.59,134.95-83.89,205.9-12.02,31.25-39.6,53.87-72.62,59.36-80.64,13.38-161.29,26.77-241.93,40.15-34.83,5.78-69.98-8.39-91.06-36.71-46.99-63.12-93.98-126.24-140.97-189.36-20.26-27.21-24.38-63.22-10.69-94.25,30.61-69.35,67.81-143.08,98.25-212.32,13.49-30.68,42.26-51.85,75.56-55.71,81.45-9.45,154.12-12.27,235.74-21.85,33.23-3.9,66,10.27,86.11,37Z"/>
  <path class="cls-2" d="M464.49,471.77c-78.89,9.27-149.12,11.98-227.84,21.12-32.17,3.73-59.99,24.19-73.02,53.84-29.42,66.92-65.37,138.17-94.95,205.2-13.24,29.99-9.25,64.79,10.33,91.09,45.41,61,90.83,122.01,136.24,183.01,20.38,27.37,54.34,41.06,88.01,35.48,77.94-12.93,155.88-25.87,233.82-38.81,31.92-5.3,58.57-27.16,70.19-57.37,26.38-68.57,54.71-130.36,81.08-199,11.25-29.28,6.53-62.3-12.33-87.37-41.75-55.48-86.44-115.78-128.3-171.43-19.44-25.84-51.11-39.53-83.23-35.76ZM668.13,680.93c18.37,24.41,22.96,56.56,12.01,85.08-25.68,66.83-53.26,127-78.95,193.78-11.31,29.41-37.27,50.7-68.35,55.86-75.9,12.6-151.79,25.2-227.69,37.79-32.78,5.44-65.86-7.89-85.7-34.55-44.22-59.4-88.45-118.81-132.67-178.21-19.06-25.61-22.95-59.5-10.06-88.7,28.8-65.27,63.82-134.66,92.46-199.82,12.69-28.88,39.78-48.79,71.11-52.43,76.65-8.9,145.05-11.54,221.86-20.57,31.27-3.67,62.12,9.66,81.04,34.83,40.76,54.19,84.28,112.92,124.94,166.94Z"/>
  <path class="cls-2" d="M441.32,591.85l-230.81,182.47c-.28.23-.46.51-.69.77l-.21.03v.2c-1.5,1.84-1.8,4.27-.47,5.95l100.58,127.23c1.52,1.93,4.52,2.06,6.83.41l.45.02.07-.37,230.28-182.05h.37s.09-.43.09-.43c2.14-1.86,2.7-4.81,1.18-6.74l-100.58-127.23c-1.58-2-4.75-2.12-7.08-.27ZM445.31,599.65l95.64,120.97c.33.41.51.9.65,1.38l-144.72-5.56,48.1-117.07c.1.1.24.15.34.27ZM218.55,773.05l219.68-173.67c.84-.66,1.78-.98,2.72-1.14l-61.65,150.03-161.45,25.56c.23-.26.41-.55.69-.77ZM314.01,901.93c-.44-.25-.87-.54-1.2-.95l-95.64-120.97c-.41-.52-.66-1.12-.78-1.74l125.9-19.93-28.28,143.59ZM539.58,727.58l-219.68,173.67c-.48.38-1.02.63-1.55.84l28.46-144.48,35.93-5.69v-1.05h-.01l12.42-30.22,145.62,5.59c-.33.47-.69.93-1.18,1.31Z"/>
  <g>
    <path class="cls-2" d="M360.25,967.65l10.99-8.69c.89,1.13,1.66,2.19,2.29,3.19s1.12,2,1.47,3.02c.48,1.42.72,2.83.72,4.22,0,1.39-.23,2.74-.69,4.03s-1.12,2.53-1.97,3.69c-.86,1.17-1.88,2.22-3.09,3.18-1.66,1.31-3.38,2.23-5.18,2.77-1.8.53-3.58.69-5.34.48s-3.46-.8-5.1-1.75c-1.64-.95-3.12-2.27-4.45-3.94-1.31-1.66-2.24-3.39-2.8-5.2-.56-1.81-.73-3.59-.51-5.35.21-1.76.8-3.47,1.76-5.11.96-1.65,2.3-3.15,4.01-4.5,2.22-1.76,4.55-2.81,6.98-3.18,2.44-.36,4.94.07,7.51,1.31l-3.53,6.33c-1.41-.78-2.71-1.12-3.89-1.01-1.18.11-2.27.56-3.27,1.35-.83.65-1.46,1.4-1.89,2.25-.43.85-.66,1.74-.69,2.7-.03.96.14,1.95.51,2.97.37,1.03.94,2.04,1.73,3.04.71.9,1.49,1.65,2.34,2.23s1.73.97,2.64,1.17,1.85.17,2.79-.07c.94-.24,1.87-.72,2.79-1.46.55-.43,1.03-.91,1.44-1.43.41-.53.71-1.08.9-1.68s.24-1.21.17-1.85c-.08-.64-.32-1.31-.71-2.01l-4.55,3.6-3.39-4.29Z"/>
    <path class="cls-2" d="M372.23,954l5.11-4.04,1.88,2.38c-.14-1.3,0-2.49.43-3.58.43-1.09,1.17-2.04,2.22-2.88.13-.1.28-.22.44-.35s.36-.25.59-.38l3.86,4.88c-.95.2-1.81.61-2.61,1.23-1.18.94-1.79,2-1.83,3.17s.48,2.44,1.55,3.79l4.91,6.21-5.11,4.04-11.45-14.49Z"/>
    <path class="cls-2" d="M390.5,939.55l6.45,8.16c1.42,1.79,2.99,2,4.72.63s1.89-2.95.48-4.74l-6.45-8.16,5.11-4.04,7.23,9.15c1.55,1.96,2.06,3.94,1.55,5.94-.52,2-2.05,4.01-4.62,6.03-2.56,2.03-4.87,3.06-6.93,3.1-2.06.04-3.87-.92-5.42-2.88l-7.23-9.15,5.11-4.04Z"/>
    <path class="cls-2" d="M404.28,928.66l5.11-4.04,1.45,1.84c.03-1.4.28-2.53.77-3.38s1.21-1.67,2.17-2.42c1.02-.8,2.02-1.33,3-1.57.98-.24,1.97-.27,2.96-.06.8.16,1.52.48,2.14.97.63.48,1.24,1.11,1.86,1.88l7.28,9.21-5.11,4.04-5.78-7.31c-.57-.72-1.08-1.25-1.53-1.61-.46-.36-.92-.57-1.39-.62-.41-.05-.79,0-1.14.12-.36.13-.7.32-1.02.57-.87.69-1.32,1.47-1.38,2.35-.05.88.3,1.8,1.06,2.76l6.12,7.74-5.11,4.04-11.45-14.49Z"/>
    <path class="cls-2" d="M427.14,896.04l5.14-4.06,18.53,23.44-5.14,4.06-1.27-1.61c0,2.24-.94,4.09-2.8,5.57-1.05.83-2.18,1.4-3.38,1.71-1.2.3-2.4.37-3.61.19-1.21-.18-2.37-.59-3.48-1.24-1.11-.65-2.1-1.52-2.96-2.61-.82-1.04-1.42-2.16-1.81-3.37-.39-1.21-.54-2.41-.45-3.61s.42-2.36,1-3.47c.57-1.11,1.4-2.09,2.47-2.94,1.81-1.43,3.8-1.98,5.99-1.66l-8.22-10.39ZM433.47,917.29c.37.47.8.84,1.29,1.11.49.27,1,.44,1.53.51.53.07,1.06.03,1.6-.12.54-.15,1.04-.41,1.51-.78.45-.36.81-.78,1.08-1.27.27-.49.43-1,.49-1.53.05-.53.01-1.07-.12-1.6-.13-.54-.38-1.03-.74-1.48-.36-.45-.79-.81-1.28-1.07-.5-.26-1.01-.43-1.54-.5-.53-.07-1.07-.03-1.6.12-.54.15-1.04.4-1.49.76-.45.36-.81.78-1.08,1.27s-.43,1-.49,1.53c-.05.53-.02,1.06.11,1.59.12.53.37,1.02.72,1.47Z"/>
    <path class="cls-2" d="M440.86,885.19l18.53,23.44-5.11,4.04-18.53-23.44,5.11-4.04Z"/>
    <path class="cls-2" d="M471.81,888.4c.78.98,1.7,1.54,2.78,1.68,1.08.14,2.11-.18,3.11-.97,1.17-.92,1.59-1.99,1.27-3.21l4.97-3.93c.77,1.9.85,3.8.24,5.7-.61,1.9-1.88,3.62-3.82,5.15-2.9,2.29-5.55,2.86-7.96,1.71-.06,3.02-1.32,5.49-3.77,7.43-.88.7-1.78,1.23-2.68,1.6-.91.36-1.78.55-2.63.56-.85.01-1.64-.15-2.39-.5-.75-.34-1.4-.87-1.97-1.59-.58-.73-.96-1.51-1.13-2.34-.18-.82-.17-1.65.02-2.47.19-.82.57-1.64,1.14-2.44.57-.8,1.31-1.56,2.21-2.28,1.19-.94,2.63-1.66,4.33-2.19l-.31-.39c-1.37-1.73-3.22-1.67-5.55.17-.9.71-2.02,2.04-3.34,3.97l-3.06-3.87c1.19-1.67,2.43-3.02,3.73-4.05,1.34-1.06,2.58-1.71,3.73-1.96s2.38-.16,3.7.27c-.15-2.66,1.02-4.98,3.5-6.95,2.58-2.04,5.12-2.86,7.62-2.47,2.5.4,4.86,1.99,7.07,4.8l-10.82,8.55ZM463.67,897.73c.39.49.91.72,1.56.7.65-.03,1.33-.31,2.02-.87.68-.54,1.16-1.17,1.44-1.89.28-.73.25-1.32-.11-1.77-.34-.43-.9-.59-1.68-.46-.78.12-1.53.47-2.26,1.05-.66.52-1.08,1.07-1.26,1.66-.18.59-.08,1.11.29,1.58ZM475.51,880.66c-1.7-1.23-3.32-1.24-4.84-.03-1.45,1.14-1.8,2.71-1.06,4.7l5.9-4.67Z"/>
    <path class="cls-2" d="M495.36,856.66l10.67,13.5c.64.81,1.16,1.57,1.58,2.29.41.72.73,1.38.95,2.01.26.8.37,1.66.31,2.58-.05.91-.27,1.84-.63,2.77-.37.93-.89,1.85-1.56,2.75-.68.9-1.52,1.75-2.52,2.54-1.13.89-2.28,1.57-3.44,2.03-1.16.46-2.3.72-3.4.78-1.1.06-2.14-.07-3.12-.38-.98-.31-1.86-.8-2.63-1.47l5.76-4.55c1.12.68,2.31.52,3.57-.48,1.07-.85,1.66-1.8,1.76-2.86.1-1.05-.28-2.12-1.12-3.19l-1.1-1.38c-.09.66-.22,1.24-.38,1.75-.16.51-.36.98-.6,1.42-.24.43-.53.84-.87,1.22-.34.38-.75.75-1.22,1.13-1.04.82-2.13,1.39-3.28,1.72-1.15.33-2.29.42-3.43.28-1.14-.14-2.23-.52-3.29-1.14-1.05-.62-2.01-1.47-2.88-2.57-.88-1.11-1.5-2.29-1.88-3.54-.38-1.25-.52-2.48-.43-3.7.09-1.22.42-2.38,1-3.5.57-1.11,1.39-2.08,2.44-2.92,1.71-1.36,3.66-1.85,5.84-1.49l-1.21-1.53,5.11-4.04ZM489.56,872.9c.37.47.8.84,1.29,1.11.49.27,1,.44,1.53.51.53.07,1.06.03,1.6-.12.54-.15,1.04-.41,1.52-.78.45-.36.81-.78,1.08-1.27.27-.49.43-1,.49-1.53.05-.53,0-1.07-.13-1.62-.14-.54-.39-1.04-.75-1.5-.37-.47-.8-.83-1.29-1.09-.49-.25-1.01-.41-1.55-.47-.54-.06-1.08-.02-1.62.13-.54.15-1.02.4-1.46.74-.45.36-.81.78-1.06,1.27-.25.49-.42,1-.49,1.53-.07.53-.04,1.06.1,1.6.13.54.38,1.03.74,1.48Z"/>
    <path class="cls-2" d="M515.04,841.1l10.67,13.5c.64.81,1.16,1.57,1.58,2.29.41.71.73,1.38.95,2.01.26.8.37,1.66.31,2.57-.05.92-.27,1.84-.63,2.77-.37.93-.89,1.85-1.56,2.75-.68.9-1.52,1.75-2.52,2.54-1.13.89-2.28,1.57-3.44,2.03-1.16.46-2.3.72-3.4.78-1.1.06-2.14-.07-3.12-.38s-1.86-.8-2.63-1.47l5.76-4.55c1.12.68,2.31.52,3.57-.48,1.07-.85,1.66-1.8,1.76-2.86.1-1.05-.28-2.12-1.12-3.19l-1.1-1.38c-.09.66-.22,1.24-.38,1.75-.16.51-.36.98-.6,1.42-.24.43-.53.84-.87,1.22s-.75.75-1.22,1.12c-1.04.82-2.13,1.39-3.28,1.72s-2.29.42-3.43.28c-1.14-.14-2.23-.52-3.29-1.14-1.05-.62-2.01-1.48-2.88-2.57-.88-1.11-1.5-2.29-1.88-3.54s-.52-2.48-.43-3.7.42-2.38,1-3.5,1.39-2.09,2.44-2.92c1.71-1.35,3.66-1.85,5.84-1.49l-1.21-1.53,5.11-4.04ZM509.25,857.34c.37.47.8.84,1.29,1.11.49.27,1,.44,1.53.51.53.07,1.06.03,1.6-.12.54-.15,1.04-.41,1.52-.79.45-.36.81-.78,1.08-1.27.27-.49.43-1,.49-1.53.05-.53,0-1.07-.13-1.62-.14-.55-.39-1.05-.75-1.5-.37-.47-.8-.83-1.29-1.09-.49-.25-1.01-.41-1.55-.48-.54-.06-1.08-.02-1.62.13-.54.15-1.02.4-1.46.74-.45.36-.81.78-1.06,1.27-.25.49-.42,1-.49,1.53-.07.53-.04,1.06.1,1.6s.38,1.03.74,1.48Z"/>
    <path class="cls-2" d="M529.86,842.55c1.74,2.2,3.65,2.48,5.72.85,1.11-.88,1.59-1.99,1.44-3.34l4.94-3.91c1.62,4.1.44,7.73-3.55,10.89-1.22.97-2.49,1.67-3.79,2.11-1.31.44-2.59.6-3.85.5-1.26-.11-2.46-.47-3.6-1.1-1.14-.63-2.17-1.53-3.09-2.7-.95-1.2-1.62-2.44-2.01-3.71-.39-1.27-.5-2.52-.34-3.74.16-1.23.59-2.42,1.29-3.57.7-1.15,1.67-2.21,2.91-3.2,1.22-.97,2.47-1.65,3.74-2.06,1.27-.41,2.52-.53,3.75-.37,1.23.16,2.42.6,3.57,1.33,1.15.73,2.23,1.72,3.23,2.98l.42.54-10.76,8.51ZM533.51,834.85c-.73-.58-1.54-.88-2.41-.9-.87-.02-1.68.27-2.43.87-.79.62-1.27,1.34-1.44,2.15s-.03,1.64.44,2.5l5.85-4.62Z"/>
    <path class="cls-2" d="M537.12,823.64l5.11-4.04,1.45,1.84c.03-1.4.28-2.53.77-3.38.48-.86,1.21-1.66,2.17-2.42,1.02-.8,2.02-1.33,3-1.57.98-.24,1.97-.27,2.96-.06.8.16,1.52.49,2.14.97.63.48,1.24,1.11,1.86,1.88l7.28,9.21-5.11,4.04-5.78-7.31c-.57-.71-1.08-1.25-1.53-1.61-.45-.36-.92-.57-1.39-.62-.4-.05-.79,0-1.14.12-.36.13-.7.32-1.02.57-.87.69-1.32,1.47-1.38,2.35-.05.88.3,1.8,1.06,2.76l6.12,7.74-5.11,4.04-11.45-14.49Z"/>
    <path class="cls-2" d="M559.98,791.02l5.14-4.06,18.53,23.44-5.14,4.06-1.27-1.61c0,2.24-.94,4.1-2.8,5.57-1.05.83-2.18,1.4-3.38,1.71s-2.4.37-3.61.19-2.37-.59-3.48-1.24c-1.11-.65-2.1-1.52-2.96-2.61-.82-1.04-1.42-2.16-1.81-3.37-.39-1.21-.54-2.41-.45-3.61.09-1.2.42-2.36.99-3.47s1.4-2.09,2.47-2.94c1.81-1.43,3.8-1.98,5.99-1.66l-8.21-10.39ZM566.31,812.27c.37.47.8.84,1.29,1.11.49.27,1,.44,1.53.51.53.07,1.06.03,1.6-.12.54-.15,1.04-.41,1.51-.78.45-.36.81-.78,1.08-1.27.27-.49.43-1,.49-1.53.05-.53.01-1.07-.12-1.6-.13-.54-.38-1.03-.74-1.48-.36-.45-.79-.81-1.29-1.07-.5-.26-1.01-.43-1.54-.5s-1.06-.03-1.6.12-1.03.4-1.49.76c-.45.36-.81.78-1.08,1.27-.27.49-.43,1-.49,1.53-.06.53-.02,1.06.11,1.59s.37,1.02.73,1.47Z"/>
    <path class="cls-2" d="M586.68,797.63c1.74,2.2,3.65,2.48,5.72.85,1.11-.88,1.59-1.99,1.44-3.34l4.94-3.91c1.62,4.1.44,7.73-3.55,10.89-1.22.97-2.49,1.67-3.79,2.11-1.31.44-2.59.6-3.85.5-1.26-.11-2.46-.47-3.6-1.1-1.14-.63-2.17-1.53-3.09-2.7-.95-1.2-1.62-2.44-2.01-3.71-.39-1.27-.51-2.52-.34-3.74.16-1.23.59-2.42,1.29-3.57s1.67-2.21,2.91-3.2c1.22-.97,2.47-1.65,3.74-2.06,1.27-.41,2.52-.53,3.75-.37,1.23.16,2.42.61,3.57,1.33,1.16.73,2.23,1.72,3.23,2.98l.43.54-10.76,8.51ZM590.33,789.93c-.74-.58-1.54-.88-2.41-.9-.87-.02-1.68.27-2.44.87-.79.62-1.27,1.34-1.44,2.15-.17.81-.03,1.64.44,2.5l5.85-4.62Z"/>
  </g>
  <text/>
  <text/>
  <g>
    <path class="cls-1" d="M211.73,703.48c-1.72-2.31-2.98-4.63-3.78-6.97-.8-2.33-1.15-4.58-1.05-6.72s.63-4.15,1.58-5.99c.96-1.85,2.35-3.45,4.17-4.81,1.8-1.34,3.73-2.2,5.79-2.6s4.12-.32,6.2.21c2.07.54,4.11,1.52,6.12,2.96,2.01,1.44,3.87,3.31,5.59,5.62s2.98,4.63,3.78,6.97,1.16,4.58,1.09,6.73-.6,4.16-1.57,6.01c-.97,1.86-2.36,3.46-4.15,4.79-1.82,1.36-3.76,2.23-5.8,2.61s-4.12.31-6.21-.23c-2.09-.54-4.14-1.53-6.15-2.96s-3.87-3.31-5.59-5.62ZM219.2,697.93c.95,1.29,1.94,2.37,2.95,3.25,1.01.88,2.02,1.55,3.02,2.01,1,.45,1.95.67,2.85.66.9-.02,1.73-.3,2.47-.85.72-.53,1.22-1.24,1.51-2.11s.35-1.85.19-2.92c-.16-1.07-.52-2.22-1.07-3.45-.55-1.22-1.3-2.48-2.26-3.76-.94-1.26-1.91-2.33-2.94-3.23-1.02-.89-2.02-1.57-3-2.02-.97-.45-1.92-.67-2.84-.64-.92.02-1.74.3-2.46.84-.75.55-1.26,1.26-1.53,2.12-.28.86-.34,1.83-.2,2.9.14,1.07.49,2.23,1.05,3.46.56,1.24,1.31,2.49,2.25,3.74Z"/>
    <path class="cls-1" d="M272.44,680.95l-23.38,17.39,1.65-12.83c.43-3.39.67-6.17.73-8.35.06-2.18,0-3.93-.18-5.28s-.43-2.36-.74-3.04c-.31-.69-.62-1.23-.92-1.64-.32-.44-.71-.81-1.16-1.11-.45-.3-.93-.51-1.45-.62-.52-.11-1.05-.11-1.59-.01-.54.1-1.08.36-1.62.76-1.03.76-1.58,1.7-1.66,2.79-.08,1.1.25,2.15,1,3.15.21.28.55.67,1.03,1.15l-8.24,6.13c-1.26-1.7-2.13-3.44-2.61-5.24-.48-1.8-.59-3.57-.33-5.31s.87-3.4,1.84-4.96,2.28-2.95,3.93-4.17c1.62-1.2,3.3-2.06,5.06-2.57,1.76-.51,3.48-.67,5.17-.49s3.29.7,4.8,1.55c1.51.85,2.82,2.02,3.93,3.51,1.18,1.59,1.94,3.32,2.26,5.17.32,1.85.26,4.04-.18,6.56l-1.46,8.09,9.4-6.99,4.75,6.39Z"/>
    <path class="cls-1" d="M273.57,635.01l18.96,15.04-7.79-23.34,6.01-4.47,20.11,14.18-8.94-22.48,7.89-5.87,12.93,35.49-7.7,5.73-18.22-12.59,6.81,21.07-7.7,5.73-30.26-22.6,7.89-5.87Z"/>
    <path class="cls-1" d="M334.13,599.9l-8.97,6.67,3.61,4.85,8.47-6.3,4.75,6.39-8.47,6.3,3.72,5.01,8.97-6.67,4.76,6.39-16.53,12.29-21.6-29.04,16.52-12.29,4.76,6.39Z"/>
    <path class="cls-1" d="M334.81,589.47l11.25-8.36c2.67-1.99,5.18-2.85,7.52-2.6,2.34.25,4.41,1.58,6.21,4,1.09,1.46,1.73,2.87,1.92,4.23.19,1.35,0,2.77-.59,4.24,1.23-.59,2.38-.96,3.46-1.1,1.07-.14,2.08-.08,3.01.18s1.79.7,2.57,1.32c.78.62,1.49,1.36,2.14,2.24,1.01,1.36,1.67,2.74,1.98,4.15.31,1.41.3,2.79-.03,4.15-.32,1.36-.97,2.68-1.94,3.95-.96,1.28-2.21,2.49-3.76,3.63l-12.13,9.02-21.6-29.04ZM350.84,595.26l1.39-1.03c2.36-1.76,2.85-3.57,1.45-5.45-1.39-1.87-3.27-1.93-5.63-.18l-1.39,1.03,4.18,5.62ZM359.6,607.05l1.66-1.23c1.9-1.41,3.08-2.67,3.54-3.77.46-1.1.29-2.19-.51-3.27-.8-1.08-1.79-1.56-2.98-1.43-1.19.12-2.72.89-4.63,2.31l-1.66,1.23,4.58,6.16Z"/>
  </g>
</svg>