<?xml version="1.0" encoding="UTF-8"?>
<svg id="Layer_1" data-name="Layer 1" xmlns="http://www.w3.org/2000/svg" viewBox="0 0 1060.87 983.07">
  <defs>
    <style>
      .cls-1 {
        fill: #2d2a6c;
      }

      .cls-1, .cls-2 {
        stroke-width: 0px;
      }

      .cls-2 {
        fill: #2c2c6b;
      }
    </style>
  </defs>
  <path class="cls-1" d="M1022.62,385.13c-68.68-105.85-121.95-203.98-190.33-309.68-27.95-43.21-76.65-68.43-128.05-66.14-116.01,5.17-242.79,4.07-359.07,9.08-52.03,2.24-98.79,32.4-122.48,78.78-54.95,107.59-109.9,215.19-164.85,322.79-24.66,48.28-20.27,106.29,11.37,150.31,73.24,101.92,146.49,203.84,219.73,305.76,30,41.74,79.89,64.32,131.08,59.63,116.24-10.65,224.17-13.77,340.48-24.48,49.62-4.57,93.34-34.52,115.77-79.01,49.66-98.49,104.13-204.57,153.95-303.33,23.14-45.86,20.36-100.61-7.6-143.7ZM995.22,524.58c-46.23,91.64-96.78,190.07-142.85,281.46-20.82,41.29-61.38,69.08-107.43,73.32-107.92,9.94-208.07,12.83-315.93,22.71-47.5,4.35-93.79-16.6-121.63-55.33-67.96-94.57-135.93-189.14-203.89-283.71-29.36-40.85-33.43-94.68-10.55-139.48,50.99-99.84,101.98-199.67,152.96-299.51,21.98-43.04,65.37-71.02,113.65-73.1,107.89-4.65,225.54-3.62,333.18-8.42,47.7-2.12,92.89,21.28,118.82,61.37,63.45,98.08,112.88,189.13,176.61,287.35,25.95,39.98,28.52,90.79,7.05,133.34Z"/>
  <path class="cls-1" d="M973.3,393.88c-61.59-94.92-109.37-182.92-170.69-277.71-25.06-38.74-68.74-61.37-114.84-59.31-104.03,4.63-217.73,3.65-322.01,8.14-46.66,2.01-88.59,29.06-109.84,70.65-49.28,96.49-98.56,192.98-147.84,289.47-22.11,43.3-18.18,95.32,10.19,134.8,65.68,91.4,131.37,182.8,197.05,274.2,26.9,37.43,71.64,57.68,117.55,53.47,104.24-9.55,201.03-12.35,305.33-21.95,44.5-4.1,83.71-30.96,103.82-70.86,44.53-88.33,93.38-183.45,138.06-272.02,20.75-41.13,18.26-90.22-6.81-128.87ZM834.58,785.94c-19.59,38.86-57.77,65.01-101.1,69-101.57,9.35-195.82,12.08-297.33,21.38-44.7,4.1-88.27-15.62-114.47-52.07-63.96-89-127.93-178-191.89-267.01-27.63-38.44-31.46-89.1-9.93-131.27,47.99-93.96,95.97-187.92,143.96-281.88,20.69-40.51,61.52-66.84,106.96-68.8,101.54-4.38,212.26-3.41,313.57-7.93,44.89-2,87.42,20.03,111.83,57.76,59.71,92.31,106.23,178,166.21,270.43,24.42,37.63,26.84,85.44,6.63,125.49-43.51,86.25-91.08,178.88-134.44,264.89Z"/>
  <g>
    <path class="cls-1" d="M300.09,574.6l-6.39-3.04,4.58-9.65,17.78,8.44-20.8,43.82-11.39-5.41,16.22-34.17Z"/>
    <path class="cls-1" d="M361.61,618.54c-1.46-1.93-3.12-3.33-4.98-4.21-.97-.46-1.85-.64-2.63-.54-.79.1-1.33.48-1.65,1.14-.17.35-.25.65-.25.91,0,.26.11.56.35.91.24.35.64.75,1.2,1.21.57.46,1.32,1.05,2.25,1.78,2.63,1.96,4.31,4.03,5.03,6.2.73,2.17.54,4.42-.57,6.74-.83,1.74-1.92,3.15-3.28,4.21-1.36,1.06-2.89,1.78-4.58,2.14-1.69.36-3.53.39-5.52.08-1.99-.3-4.03-.95-6.12-1.95-4.03-1.91-7.46-4.94-10.29-9.08l7.37-5.62c1.99,3.41,4.3,5.74,6.93,6.99.97.46,1.86.62,2.69.49.82-.13,1.39-.53,1.7-1.19.18-.39.29-.73.31-1.03.02-.3-.07-.63-.28-.99-.21-.36-.57-.77-1.09-1.23s-1.22-1.02-2.09-1.67c-2.94-2.2-4.75-4.26-5.44-6.18-.68-1.91-.48-4.01.6-6.3.79-1.67,1.81-3.02,3.07-4.06,1.25-1.04,2.68-1.75,4.29-2.13,1.6-.38,3.35-.43,5.23-.15,1.88.28,3.84.89,5.85,1.85,3.29,1.56,6.18,3.72,8.68,6.47l-6.8,5.18Z"/>
    <path class="cls-1" d="M376.63,636.7c-2.15,4.53-1.1,7.81,3.16,9.83,2.29,1.08,4.45.97,6.5-.33l10.17,4.83c-5.29,5.84-12.04,6.82-20.25,2.92-2.52-1.2-4.64-2.67-6.38-4.42-1.73-1.75-3.02-3.67-3.84-5.78-.83-2.1-1.19-4.32-1.09-6.64.11-2.32.73-4.69,1.87-7.09,1.18-2.48,2.63-4.53,4.35-6.16,1.72-1.63,3.63-2.8,5.73-3.51,2.09-.71,4.34-.97,6.73-.76,2.39.21,4.87.92,7.42,2.14,2.52,1.2,4.61,2.65,6.26,4.36,1.66,1.71,2.84,3.62,3.56,5.71.71,2.1.95,4.36.7,6.78-.25,2.42-.99,4.93-2.22,7.53l-.52,1.1-22.14-10.51ZM391.85,636.45c.35-1.64.19-3.16-.47-4.57-.66-1.41-1.77-2.48-3.32-3.21-1.63-.77-3.16-.98-4.59-.61-1.43.37-2.65,1.26-3.66,2.68l12.03,5.71Z"/>
    <path class="cls-1" d="M412.67,633.38l10.52,4.99-1.74,3.66c4.17-1.39,8.04-1.24,11.6.45,4.42,2.1,6.9,5.56,7.46,10.38,4.15-2.64,8.41-2.92,12.79-.84,1.4.66,2.61,1.49,3.66,2.49,1.05,1,1.81,2.14,2.29,3.44.48,1.29.65,2.76.51,4.41-.14,1.64-.68,3.45-1.61,5.43l-9.19,19.35-10.52-4.99,6.98-14.7c.72-1.51,1.2-2.8,1.45-3.87.25-1.07.3-1.97.15-2.71s-.45-1.33-.9-1.78c-.45-.45-.99-.83-1.61-1.12-3.37-1.6-6.22.06-8.56,4.98l-6.98,14.7-10.52-4.99,6.98-14.7c.72-1.51,1.21-2.81,1.49-3.89.27-1.08.37-2,.27-2.75-.09-.76-.38-1.38-.86-1.87-.48-.49-1.11-.92-1.88-1.28-.66-.31-1.32-.51-2-.59-.67-.08-1.37.05-2.08.4-.71.35-1.43.96-2.15,1.83-.72.87-1.46,2.1-2.21,3.69l-6.98,14.7-10.52-4.99,14.15-29.81Z"/>
    <path class="cls-1" d="M471.88,681.91c-2.15,4.53-1.1,7.81,3.16,9.83,2.29,1.08,4.45.97,6.5-.33l10.17,4.83c-5.29,5.84-12.04,6.82-20.25,2.92-2.52-1.2-4.64-2.67-6.38-4.42-1.73-1.75-3.02-3.67-3.84-5.78-.83-2.1-1.19-4.31-1.09-6.64.11-2.32.73-4.69,1.87-7.09,1.18-2.48,2.63-4.53,4.35-6.16,1.72-1.63,3.63-2.8,5.73-3.51,2.09-.71,4.34-.97,6.73-.76,2.39.21,4.87.92,7.42,2.14,2.52,1.2,4.6,2.65,6.26,4.36,1.66,1.71,2.84,3.62,3.56,5.71.71,2.1.95,4.35.7,6.78-.25,2.42-.99,4.93-2.22,7.53l-.52,1.1-22.14-10.51ZM487.09,681.66c.35-1.64.19-3.16-.47-4.57-.66-1.41-1.77-2.48-3.32-3.21-1.63-.77-3.16-.98-4.59-.61-1.43.37-2.65,1.26-3.66,2.68l12.03,5.71Z"/>
    <path class="cls-1" d="M524.04,695.63c-1.46-1.93-3.12-3.33-4.98-4.21-.97-.46-1.85-.64-2.63-.54-.79.1-1.33.48-1.65,1.14-.17.35-.25.65-.25.91,0,.26.11.56.35.91.24.35.64.75,1.2,1.21.57.46,1.32,1.05,2.25,1.78,2.63,1.96,4.31,4.03,5.03,6.2.73,2.17.54,4.42-.57,6.74-.83,1.74-1.92,3.15-3.28,4.21-1.36,1.06-2.89,1.78-4.58,2.14-1.69.36-3.53.39-5.52.08-1.99-.3-4.03-.95-6.12-1.95-4.03-1.91-7.46-4.94-10.29-9.08l7.37-5.62c1.99,3.41,4.3,5.74,6.93,6.99.97.46,1.86.62,2.69.49.82-.13,1.39-.53,1.7-1.19.18-.39.29-.73.31-1.03.02-.3-.07-.63-.28-.99-.21-.36-.57-.77-1.09-1.23s-1.22-1.02-2.09-1.67c-2.94-2.2-4.75-4.26-5.44-6.18-.68-1.91-.48-4.01.6-6.3.79-1.67,1.81-3.02,3.07-4.06,1.25-1.04,2.68-1.75,4.29-2.13,1.6-.38,3.35-.43,5.23-.15,1.88.28,3.84.89,5.85,1.85,3.29,1.56,6.18,3.72,8.68,6.47l-6.8,5.18Z"/>
    <path class="cls-1" d="M545.88,707.36l-9.99,21.04-10.52-4.99,9.99-21.04-3.49-1.66,4.17-8.77,3.49,1.66,4.25-8.95,10.52,4.99-4.25,8.95,5.99,2.84-4.17,8.77-5.99-2.84Z"/>
    <path class="cls-1" d="M562.12,724.75c-2.15,4.53-1.1,7.81,3.16,9.83,2.29,1.08,4.45.97,6.5-.33l10.17,4.83c-5.29,5.84-12.04,6.82-20.25,2.92-2.52-1.2-4.64-2.67-6.38-4.42-1.73-1.75-3.02-3.67-3.84-5.78-.83-2.1-1.19-4.32-1.09-6.64.11-2.32.73-4.68,1.87-7.09,1.18-2.48,2.63-4.53,4.35-6.16,1.72-1.63,3.63-2.8,5.73-3.51,2.09-.71,4.34-.97,6.73-.76,2.39.21,4.87.92,7.42,2.14,2.52,1.2,4.6,2.65,6.26,4.36,1.66,1.71,2.84,3.62,3.56,5.71.71,2.1.95,4.35.7,6.78-.25,2.42-.99,4.93-2.22,7.53l-.52,1.1-22.14-10.51ZM577.34,724.49c.35-1.64.19-3.16-.47-4.57-.66-1.41-1.77-2.48-3.32-3.21-1.63-.77-3.16-.98-4.59-.61-1.43.37-2.65,1.26-3.66,2.68l12.03,5.71Z"/>
    <path class="cls-1" d="M598.16,721.42l10.52,4.99-2.32,4.88c1.97-1.25,3.99-1.96,6.07-2.14,2.08-.18,4.2.25,6.37,1.28.27.13.57.27.9.43.33.16.69.37,1.08.65l-4.77,10.05c-1.06-1.36-2.41-2.43-4.04-3.2-2.44-1.16-4.62-1.3-6.53-.43-1.91.87-3.53,2.71-4.85,5.49l-6.07,12.79-10.52-4.99,14.15-29.81Z"/>
  </g>
  <g>
    <path class="cls-2" d="M431.15,197.97l-20.38-9.31-7.63,8.04-15.21-6.95,45.95-45.33,15.57,7.11-4.18,64.41-15.21-6.95,1.08-11.03ZM432.32,185.4l1.94-21.19-14.75,15.34,12.81,5.85Z"/>
    <path class="cls-2" d="M468.15,181.27l13.17,6.02-2.16,4.73c2.79-1.36,5.28-2,7.47-1.91,2.19.09,4.52.7,6.99,1.83,2.62,1.2,4.67,2.65,6.15,4.35,1.48,1.7,2.52,3.63,3.12,5.78.49,1.75.58,3.49.26,5.22-.32,1.73-.94,3.59-1.84,5.58l-10.84,23.72-13.17-6.02,8.61-18.85c.84-1.84,1.39-3.4,1.64-4.66.25-1.26.2-2.39-.17-3.38-.32-.85-.78-1.56-1.4-2.13-.62-.57-1.34-1.05-2.16-1.43-2.23-1.02-4.25-1.13-6.04-.34-1.8.79-3.26,2.42-4.39,4.9l-9.11,19.94-13.17-6.02,17.05-37.33Z"/>
    <path class="cls-2" d="M529.64,209.36l-17.05,37.33-13.17-6.02,17.05-37.33,13.17,6.02ZM522.14,188.61c.47-1.02,1.1-1.89,1.9-2.61.8-.72,1.69-1.26,2.68-1.63.99-.37,2.02-.54,3.1-.52,1.07.02,2.12.27,3.14.73,1.02.47,1.89,1.1,2.61,1.9.72.8,1.26,1.69,1.63,2.68.37.99.54,2.02.52,3.1-.02,1.08-.27,2.12-.73,3.14-.47,1.02-1.1,1.89-1.9,2.61-.8.72-1.69,1.27-2.68,1.63-.99.37-2.02.54-3.1.52-1.08-.02-2.12-.27-3.14-.73-1.02-.46-1.89-1.1-2.61-1.89-.72-.8-1.27-1.69-1.63-2.68-.37-.99-.54-2.02-.52-3.1.02-1.07.27-2.12.73-3.14Z"/>
    <path class="cls-2" d="M562.37,196.43l-16.69,36.53,19.97-7.15,18.05,8.24-26.58,8.7,10.62,29.12-18.48-8.44-7.53-21.82-6.95,15.21-13.17-6.02,27.59-60.4,13.17,6.02Z"/>
    <path class="cls-2" d="M616.01,248.81l13.24,6.05-17.05,37.33-13.24-6.05,1.89-4.15c-4.43,2.26-9.05,2.29-13.85.09-2.72-1.24-4.99-2.88-6.81-4.92-1.83-2.04-3.18-4.34-4.06-6.91-.88-2.57-1.24-5.28-1.07-8.14.16-2.86.9-5.72,2.2-8.58,1.22-2.67,2.84-4.99,4.86-6.97,2.02-1.98,4.26-3.49,6.73-4.53,2.47-1.04,5.08-1.56,7.84-1.56,2.76,0,5.52.63,8.28,1.89,4.66,2.13,7.77,5.51,9.34,10.16l1.7-3.71ZM590.94,259.79c-.55,1.21-.85,2.44-.89,3.68-.04,1.24.14,2.42.54,3.54.4,1.12,1.02,2.14,1.86,3.05.84.91,1.87,1.65,3.08,2.2,1.16.53,2.37.82,3.61.86,1.24.04,2.42-.16,3.52-.59,1.11-.43,2.12-1.05,3.05-1.86.93-.81,1.66-1.79,2.19-2.96s.8-2.37.82-3.63c.01-1.25-.18-2.44-.57-3.56-.4-1.12-1.02-2.14-1.86-3.05-.84-.91-1.85-1.64-3.01-2.17-1.21-.55-2.44-.85-3.68-.89-1.24-.04-2.42.16-3.52.59-1.11.43-2.11,1.05-3,1.84-.89.8-1.6,1.77-2.13,2.94Z"/>
    <path class="cls-2" d="M672.19,253.28l21.25,9.71c5.04,2.3,8.32,5.27,9.84,8.89,1.51,3.62,1.23,7.71-.86,12.27-1.26,2.76-2.81,4.83-4.63,6.19-1.83,1.36-4.05,2.21-6.66,2.54,1.86,1.32,3.32,2.71,4.39,4.16,1.06,1.45,1.78,2.97,2.15,4.54.37,1.57.41,3.18.13,4.81-.28,1.63-.79,3.27-1.55,4.92-1.17,2.57-2.67,4.65-4.47,6.23-1.81,1.58-3.83,2.68-6.08,3.29-2.25.62-4.69.73-7.33.35-2.64-.38-5.41-1.24-8.32-2.57l-22.92-10.47,25.06-54.87ZM666.45,303.6l3.13,1.43c3.59,1.64,6.37,2.35,8.34,2.14,1.97-.21,3.43-1.34,4.36-3.38.93-2.04.83-3.87-.3-5.5-1.13-1.63-3.49-3.27-7.08-4.91l-3.13-1.43-5.32,11.64ZM676.62,281.34l2.62,1.2c4.46,2.04,7.5,1.29,9.12-2.25,1.62-3.54.19-6.33-4.27-8.37l-2.62-1.2-4.85,10.62Z"/>
    <path class="cls-2" d="M703.47,310.93c1.26-2.77,3-5.09,5.21-6.99,2.21-1.89,4.72-3.27,7.52-4.13,2.8-.86,5.8-1.18,9.01-.94,3.21.23,6.43,1.09,9.68,2.58,3.2,1.46,5.95,3.32,8.23,5.56,2.29,2.25,4.03,4.72,5.24,7.41,1.2,2.69,1.8,5.52,1.8,8.47,0,2.96-.68,5.92-2.03,8.88-1.35,2.96-3.16,5.4-5.42,7.33-2.26,1.93-4.79,3.33-7.58,4.19-2.8.86-5.81,1.14-9.05.84-3.23-.3-6.47-1.2-9.72-2.68-3.2-1.46-5.94-3.3-8.21-5.51-2.27-2.21-3.98-4.66-5.13-7.36-1.15-2.69-1.71-5.54-1.68-8.55.02-3.01.74-6.04,2.13-9.1ZM717.3,317.42c-.58,1.26-.87,2.52-.89,3.77-.02,1.25.17,2.44.57,3.56.4,1.12,1.02,2.14,1.86,3.05.84.91,1.85,1.64,3.01,2.17s2.37.82,3.61.86c1.24.04,2.42-.16,3.52-.59,1.11-.43,2.13-1.06,3.07-1.9.94-.83,1.68-1.85,2.24-3.07.53-1.16.8-2.37.82-3.63.01-1.25-.18-2.44-.57-3.56-.4-1.12-1.02-2.14-1.86-3.05-.84-.91-1.85-1.64-3.01-2.17s-2.37-.82-3.61-.86c-1.24-.04-2.42.16-3.52.59-1.11.43-2.12,1.05-3.05,1.86-.93.81-1.66,1.79-2.19,2.96Z"/>
    <path class="cls-2" d="M764.24,316.52l13.17,6.02-2.79,6.11c2.43-1.59,4.93-2.51,7.51-2.77,2.58-.26,5.23.23,7.95,1.47.34.15.72.33,1.13.52.41.19.86.45,1.35.79l-5.75,12.59c-1.35-1.67-3.04-2.97-5.08-3.9-3.06-1.4-5.76-1.53-8.12-.41-2.36,1.12-4.34,3.43-5.93,6.92l-7.31,16.01-13.17-6.02,17.05-37.33Z"/>
    <path class="cls-2" d="M811.32,338.03l-9.61,21.03c-2.11,4.61-.93,7.93,3.54,9.97,4.46,2.04,7.75.75,9.85-3.85l9.61-21.03,13.17,6.02-10.77,23.58c-2.31,5.05-5.7,8.07-10.17,9.07-4.48,1-10.01,0-16.61-3.01-6.6-3.01-10.98-6.54-13.15-10.58-2.17-4.04-2.1-8.58.2-13.63l10.77-23.58,13.17,6.02Z"/>
    <path class="cls-2" d="M834.44,416.22l-13.17-6.02,25.56-55.96,13.17,6.02-1.89,4.15c4.43-2.26,9.07-2.28,13.92-.06,2.67,1.22,4.92,2.88,6.74,4.97,1.83,2.1,3.18,4.43,4.06,7,.88,2.57,1.24,5.29,1.07,8.14-.16,2.86-.87,5.67-2.14,8.43-1.26,2.77-2.91,5.12-4.94,7.06-2.03,1.95-4.29,3.43-6.79,4.46-2.49,1.03-5.11,1.53-7.86,1.51-2.75-.02-5.45-.64-8.12-1.86-4.66-2.13-7.81-5.5-9.45-10.12l-10.17,22.27ZM868.01,386.62c.53-1.16.83-2.36.89-3.59.06-1.23-.12-2.41-.54-3.54-.42-1.13-1.05-2.16-1.88-3.1-.83-.94-1.86-1.68-3.07-2.24-1.16-.53-2.36-.81-3.57-.84-1.22-.03-2.38.17-3.49.61-1.11.43-2.13,1.07-3.07,1.9-.94.83-1.67,1.83-2.2,3s-.81,2.36-.84,3.57c-.03,1.22.17,2.38.61,3.49.43,1.11,1.06,2.13,1.9,3.07.83.94,1.83,1.67,3,2.2,1.16.53,2.36.81,3.57.84,1.22.03,2.38-.17,3.49-.61,1.11-.43,2.12-1.05,3.05-1.86.93-.81,1.64-1.77,2.15-2.89Z"/>
  </g>
  <path class="cls-1" d="M827.09,461.54l-449.34-213.28c-.55-.26-1.12-.31-1.68-.47l-.21-.29-.3.15c-3.91-.89-7.82.47-9.38,3.74l-117.56,247.68c-1.78,3.75.25,8.4,4.49,10.66l.31.69.61-.17,448.3,212.78.26.58.74-.2c4.43,1.85,9.31.49,11.09-3.26l117.56-247.68c1.84-3.89-.34-8.78-4.89-10.94ZM385.7,259.5l427.67,202.99c1.63.77,2.82,1.96,3.77,3.27l-273.54,18.85-159.58-225.58c.56.16,1.13.21,1.69.47ZM262.35,498.13l111.78-235.5c.48-1.01,1.2-1.83,2.06-2.49l124.44,175.91-238.82,64.61c.05-.86.16-1.72.54-2.53ZM694.91,712.06l-427.67-202.99c-.94-.45-1.71-1.07-2.44-1.72l240.29-65,35.06,49.57,1.96-.13.07-.03,55.09-3.8,100.51,224.91c-.96-.15-1.93-.36-2.87-.8ZM818.26,473.43l-111.78,235.5c-.38.81-.98,1.44-1.61,2.02l-99.9-223.52,213.45-14.71c-.08.23-.05.48-.15.71Z"/>
</svg>