<?xml version="1.0" encoding="UTF-8"?>
<svg id="Layer_1" data-name="Layer 1" xmlns="http://www.w3.org/2000/svg" viewBox="0 0 960.54 1105.32">
  <defs>
    <style>
      .cls-1 {
        fill: #2d2b6e;
      }

      .cls-1, .cls-2, .cls-3, .cls-4 {
        stroke-width: 0px;
      }

      .cls-2 {
        fill: #27266e;
      }

      .cls-3 {
        fill: #f15b22;
      }

      .cls-4 {
        fill: #fff;
      }
    </style>
  </defs>
  <path class="cls-3" d="M757.28,60.81l-11.68-.61h-.05s-23.21-1.21-23.21-1.21l-3.17-.16c-1,19.19-17.36,33.93-36.54,32.94s-33.93-17.35-32.94-36.54l-36.59-1.9c-1,19.19-17.36,33.93-36.54,32.94-19.19-1-33.93-17.35-32.94-36.54l-32.05-1.66c-1,19.19-17.36,33.93-36.54,32.94-19.19-1-33.93-17.35-32.94-36.54l-31.65-1.64c-1,19.19-17.35,33.93-36.54,32.94s-33.93-17.35-32.94-36.54l-36.59-1.9c-1,19.19-17.35,33.93-36.54,32.94s-33.93-17.35-32.94-36.54l-32.05-1.66c-1,19.19-17.35,33.93-36.54,32.94-19.19-1-33.93-17.35-32.94-36.54l-45.6-2.36-.58,11.15-1.48,28.57-.04.82,7.5.39c15.4,4.24,26.34,18.72,25.48,35.33-1,19.19-17.35,33.93-36.54,32.94l-1.9,36.59c19.19,1,33.93,17.36,32.94,36.54-1,19.19-17.35,33.93-36.54,32.94l-1.66,32.05c19.19,1,33.93,17.36,32.94,36.54-1,19.19-17.35,33.93-36.54,32.94l-1.98,38.11c19.19,1,33.93,17.36,32.94,36.54-1,19.19-17.35,33.93-36.54,32.94l-1.9,36.59c19.19,1,33.93,17.36,32.94,36.54-1,19.19-17.35,33.93-36.54,32.94l-1.66,32.05c19.19,1,33.93,17.36,32.94,36.54-1,19.19-17.35,33.93-36.54,32.94l-1.64,31.65c19.19,1,33.93,17.35,32.94,36.54-1,19.19-17.35,33.93-36.54,32.94l-.21,4.13-1.68,32.46-.37,7.18,19.34,1,1.8.09,17.62.91,1.78.09.82.04c1-19.19,17.36-33.93,36.54-32.94,19.19,1,33.93,17.35,32.94,36.54l32.05,1.66c1-19.19,17.36-33.93,36.54-32.94,19.19,1,33.93,17.35,32.94,36.54l36.98,1.92c1-19.19,17.35-33.93,36.54-32.94,19.19,1,33.93,17.35,32.94,36.54l36.59,1.9c1-19.19,17.36-33.93,36.54-32.94,19.19,1,33.93,17.35,32.94,36.54l32.05,1.66c1-19.19,17.36-33.93,36.54-32.94,19.19,1,33.93,17.35,32.94,36.54l38.11,1.98c1-19.19,17.36-33.93,36.54-32.94,19.19,1,33.93,17.35,32.94,36.54l.57.03,16.46.85,5.67.29,13.89.72,4.52.23.89-17.12.5-9.66.71-13.76h0s.09-1.73.09-1.73c-19.19-1-33.93-17.35-32.94-36.54,1-19.19,17.35-33.93,36.54-32.94l1.9-36.59c-19.19-1-33.93-17.36-32.94-36.54,1-19.19,17.35-33.93,36.54-32.94l1.66-32.05c-19.19-1-33.93-17.36-32.94-36.54,1-19.19,17.36-33.93,36.54-32.94l1.98-38.11c-19.19-1-33.93-17.36-32.94-36.54,1-19.19,17.35-33.93,36.54-32.94l1.9-36.59c-19.19-1-33.93-17.36-32.94-36.54,1-19.19,17.35-33.93,36.54-32.94l1.66-32.05c-19.19-1-33.93-17.36-32.94-36.54,1-19.19,17.35-33.93,36.54-32.94l1.64-31.65c-19.19-1-33.93-17.35-32.94-36.54,1-19.19,17.35-33.93,36.54-32.94l.04-.69,1.12-21.64.15-2.95.59-11.31.24-4.63-5.6-.29Z"/>
  <rect class="cls-4" x="161.24" y="136.28" width="487.14" height="605.67" transform="translate(23.29 -20.38) rotate(2.97)"/>
  <path class="cls-3" d="M283.47,369.99c5.91-12.25-1.81-16.83,1.97-31.33,4.84-18.56,19.59-19.14,23.27-37.91,2.31-11.77-3.2-13.01-.86-23.79,5.31-24.44,38.49-40.49,48.21-33.82,2.48,1.7,4.37,5.54,8.44,5.68,2.35.08,8.72-1.47,6.82-3.49-5.62-5.95-4.67-12.09-1.61-16.15,3.94-5.22,3.96-.62,8.59-4.09,3.16-2.36.46-5.69,1.97-11.07,2.28-8.12,7.4-8,7.89-14.08.4-4.97-2.43-6.02-3.38-12.23-1.36-8.84,8.48-18,11.03-19.02,2.41-.97,5.06-.12,5.74-.51,4.1-2.32-.41-11.48,10.35-18.53,3.91,4.21,6.58,5.96,9.79,6.45,1.74.26-3.07,5.89-3.87,6.71-.69.71-1.82,1.66-1.82,1.66,0,0-1.29.9-1.88,1.32-.53.37-.87.37-1.81.96-2.66,3.33,6.96-.4,7.4.6,1.09,2.43-23.52,37.89-20.63,40.67,1.25,1.21,6.42-3.99,10.92-1.88,2.6,1.22,2.38,3.65,5.21,7.26,4.4,5.61,11.78,8.47,13.26,6.97,1.39-1.41-3.7-5.39-3.22-12.04.43-5.88,5.09-12.06,9.72-12.42,2.97-.23,4.75,2.04,6.23,1.02,1.83-1.25-.42-5.03.8-8.69,2.17-6.48,13.44-1.93,20.63-5.7,1.73-.91.04,2.51,4.29,10.14s4.43,10.33,3.22,12.04c-1.99,2.8-8.48.87-8.85,2.33-.32,1.25,4.54,2.1,6.68,5.93,2.4,4.31.97,11.67-3.2,14.5-4.42,3.01-9.6-.68-12.35,2.5-1.72,1.99-1.81,5.87-.07,8.03,3,3.7,9.4-.17,15.9,3.27,3.72,1.97,5.77,5.43,6.92,8.04,13.32-4.71,19.95-21.08,29.93-31.63,2.63,9.4,5.87,19.24,8.1,18.93,2.67-.37,4.83-20.84,6.75-19.69,15.26,9.19,23.39,15.51,32.64,28.02.94,1.27-18.82,5.9-19.24,8.94-.33,2.37,9.09,2.8,19.53,5.74-26.1,15.94-28.9,27.27-27.13,31.42,1.17,2.74,4.29,2.27,7.32,7.02,4.1,6.41,1.37,11.89,6.14,16.38.44.41,3.46,3.26,5.46,2.38,3.7-1.63-6.07-10,3.34-17.29,15.99-12.39,14.97,4.69,19.18.65,2.17-2.09.16-5.02,2.45-6.86,3.3-2.65,5.57.23,11.03.95,9.61,1.27,11.91-1.04,12.66.28.58,1.03-2.61,7.36-.69,12.18,2.49,6.26.61,5.39-1.4,7.97-2.26,2.9-6.01.92-8.23,3.76-2.38,3.06,1.11,6.43-.6,11.49-1.64,4.87-7.26,8.93-11.96,8.46-5.13-.51-7.44-6.23-9.15-5.36-1.6.81-1.68,6.87,1.53,10.91,4.22,5.32,11.09,3.28,13.22,7.67,2.06,4.24-3.29,10.3-1.59,10.4,17.53,1.01,38.19-25.74,39.42-23.69,1.27,2.12-2.09,10.28-.81,10.76,1.94.74,10.38-16.85,11.33-15.09,2.59,4.83,4.97,6.95,9.85,9.65,2.44,1.35-9.2,4.52-17.01,10.91-2.82,2.3-.33,5.62-1.68,9.6-2.18,6.44-10.53,11.11-18.03,10.94-5.21-.12-5.23-2.44-8.98-1.86-7.77,1.2-8.84,11.3-16.71,12.41-3.92.55-1.92-1.32-8.36-.43-4.18.57.88,5.04-4.1,12.37-5.81,5.16-15.31-2.39-16.77-.53-1.8,2.3-.21,6.17-2.12,7.22-2.24,1.23-6.41-2.95-7.22-2.12-.77.79,3.17,4.38,2.1,6.74-1.02,2.25-5.49.98-7.53,3.8-1.27,1.75-.85,4.04-.65,5.16,1.94,11.01.1,31.96-.72,33.82-5.18,11.81-5.98,17.68-20.92,29.27-6.7,5.2-13.59,6.71-24.53,10.46-15.06,5.15-17.53,4.72-18.62,5.9-10.17,11.02.92,36.54,5.56,47.23,7.11,16.35,16.58,28.55,25.05,39.46,10.86,13.99,18.34,20.76,22.22,35.11,1.66,6.17,3.74,14.27.04,21.37-5.87,11.28-22.68,13.14-30.11,14.08-31.25,3.95-88.8,11.23-130.01,34.47-16.41,9.25-36.24,24.43-51.66,17.55-1.81-.81-5.1-2.33-6.57-5.68-3.86-8.79,9.49-19.55,25.41-41.04,10.78-14.56,20.21-27.29,25.24-45.25,5.71-20.35,2.88-37.1,2.13-41.1-1.26-6.73-7.28-39.02-30.6-50.05-3.95-1.87-2.25-.22-28.67-6.45-23.02-5.43-28.03-7.56-29.89-12.24-1.91-4.78-1.62-14.93,3.05-21.97,1.15-1.73,2.85-3.71,2.2-5.61-1.18-3.47-6.35-3.64-7.28-6.71-.83-2.73,2.09-5.04,3.1-8.39,1.38-4.57-4.04-6.06-4.76-11.31-1.12-8.2,9.23-11.96,7.8-17.91-1.45-6.05-12.71-4.54-17.6-13.89-.48-.91-2.3-4.51-1.83-8.87.85-7.8,8.3-11.09,19.77-20.73,10.25-8.62,15.38-12.93,18.5-19.39Z"/>
  <path class="cls-4" d="M439.01,222.47c-.57-1.55.61-9.65,2.39-13.21,1.92-3.85,9.29-8.18,10.82-8.11,1.74.08,1.98,8.77-.42,13.82-2.92,6.13-12.37,8.63-12.79,7.51Z"/>
  <path class="cls-4" d="M556.29,322.02c.04-1.65,4.1-8.75,7.06-11.42,3.19-2.88,11.64-4.21,13.04-3.59,1.59.71-1.37,8.89-5.45,12.71-4.96,4.64-14.67,3.51-14.65,2.3Z"/>
  <circle class="cls-4" cx="513.57" cy="253.92" r="10.23"/>
  <path class="cls-2" d="M846.82,965.13c23.57-85.38,50.27-159.06,73.91-244.21,9.66-34.8.22-72.12-24.94-98.05-56.76-58.5-115.26-125.58-172.06-184.29-25.42-26.27-63.04-36.77-98.43-27.6-82.09,21.28-164.18,42.56-246.27,63.84-36.84,9.55-65.25,38.88-73.62,76-19.38,85.94-38.77,171.88-58.15,257.82-7.94,35.2,3.45,71.91,29.77,96.6,59.75,56.06,111.67,111.28,171.49,167.35,25.52,23.92,61.61,32.92,95.42,23.97,74.84-19.82,155.91-40.64,230.98-60.5,34.86-9.22,62.31-36.18,71.91-70.94ZM760.84,1015.72c-69.65,18.42-144.88,37.75-214.33,56.14-31.38,8.31-64.87-.04-88.54-22.24-55.5-52.03-103.68-103.26-159.12-155.28-24.41-22.91-34.98-56.98-27.62-89.64,17.99-79.74,35.97-159.49,53.96-239.23,7.77-34.44,34.13-61.66,68.31-70.52,76.17-19.75,152.34-39.49,228.52-59.24,32.84-8.51,67.74,1.23,91.33,25.61,52.71,54.48,106.98,116.72,159.65,171,23.34,24.05,32.1,58.68,23.14,90.98-21.93,79.01-46.7,147.38-68.58,226.6-8.9,32.25-34.38,57.27-66.72,65.83Z"/>
  <path class="cls-2" d="M819.26,943.32c21.14-76.56,45.08-142.65,66.28-219,8.66-31.21.19-64.68-22.36-87.93-50.9-52.46-103.36-112.61-154.3-165.27-22.79-23.56-56.53-32.97-88.27-24.75-73.62,19.08-147.24,38.17-220.85,57.25-33.03,8.56-58.51,34.87-66.02,68.16-17.38,77.07-34.76,154.14-52.15,231.21-7.12,31.57,3.1,64.49,26.69,86.63,53.58,50.28,100.15,99.79,153.78,150.08,22.88,21.45,55.25,29.52,85.57,21.49,67.12-17.77,139.82-36.45,207.14-54.25,31.26-8.27,55.88-32.45,64.48-63.62ZM548.78,1053.15c-29.53,7.82-61.05-.04-83.33-20.93-52.23-48.96-97.58-97.18-149.75-146.14-22.98-21.56-32.93-53.62-25.99-84.36,16.93-75.05,33.85-150.1,50.78-225.15,7.31-32.42,32.12-58.03,64.29-66.37,71.69-18.58,143.38-37.17,215.06-55.75,30.9-8.01,63.76,1.16,85.95,24.1,49.61,51.27,100.69,109.85,150.26,160.93,21.97,22.64,30.21,55.23,21.78,85.62-20.64,74.36-43.96,138.71-64.54,213.26-8.38,30.35-32.35,53.9-62.79,61.95-65.55,17.34-136.35,35.52-201.71,52.83Z"/>
  <path class="cls-2" d="M716.75,876.61l-82.07-282.55c-.1-.35-.3-.62-.45-.93l.05-.21-.18-.07c-1.14-2.08-3.28-3.28-5.34-2.68l-155.75,45.24c-2.36.69-3.62,3.41-2.95,6.17l-.19.41.31.21,81.88,281.9-.15.34.38.25c.92,2.68,3.44,4.31,5.8,3.63l155.75-45.24c2.44-.71,3.75-3.6,2.92-6.46ZM708.02,877.37l-148.09,43.01c-.51.15-1.02.13-1.53.08l59.67-131.97,90.32,88.66c-.14.06-.23.17-.37.21ZM632.83,601.98l78.11,268.92c.3,1.03.24,2.02.03,2.95l-115.75-113.63,37.15-159.18c.15.31.35.58.45.93ZM477.49,641.86c.4-.31.82-.6,1.33-.75l148.09-43.01c.64-.18,1.28-.19,1.91-.07l-28.97,124.13-122.36-80.3ZM554,916.49l-78.11-268.92c-.17-.59-.2-1.18-.2-1.76l123.11,80.79-8.27,35.43.97.38h0l23.31,22.89-60.04,132.78c-.31-.48-.6-.99-.77-1.59Z"/>
  <g>
    <path class="cls-2" d="M398.71,660.98l4.13,14.21c-1.46.43-2.81.75-4.04.98-1.23.22-2.41.3-3.54.23-1.59-.09-3.06-.42-4.42-.97s-2.59-1.32-3.67-2.28c-1.09-.97-2.03-2.1-2.83-3.4-.8-1.3-1.43-2.73-1.88-4.29-.62-2.14-.84-4.2-.64-6.17.19-1.97.75-3.78,1.66-5.42.91-1.64,2.16-3.07,3.74-4.3,1.58-1.23,3.46-2.15,5.63-2.78,2.14-.62,4.21-.85,6.2-.67,1.99.17,3.81.72,5.45,1.63,1.64.91,3.07,2.17,4.3,3.76s2.17,3.5,2.81,5.72c.83,2.88.95,5.58.33,8.11-.62,2.53-2.04,4.81-4.28,6.83l-4.79-5.98c1.33-1.07,2.17-2.21,2.54-3.41s.36-2.45-.02-3.74c-.31-1.07-.8-1.99-1.45-2.75-.66-.76-1.45-1.34-2.37-1.75-.92-.4-1.96-.63-3.11-.68-1.15-.05-2.37.12-3.66.49-1.17.34-2.21.81-3.12,1.4-.91.59-1.64,1.3-2.2,2.12-.55.82-.9,1.74-1.04,2.76-.14,1.02-.04,2.12.31,3.32.2.71.48,1.37.83,1.98.35.61.77,1.13,1.28,1.55.5.42,1.09.72,1.75.9.66.18,1.41.21,2.25.1l-1.71-5.88,5.56-1.61Z"/>
    <path class="cls-2" d="M407.3,678.14l1.92,6.61-3.07.89c1.33.38,2.44,1,3.33,1.85.89.85,1.54,1.96,1.94,3.32.05.17.1.36.16.57.06.21.1.45.13.73l-6.32,1.84c.18-1,.12-2.02-.17-3.04-.45-1.54-1.23-2.55-2.37-3.06s-2.58-.5-4.34.01l-8.04,2.33-1.92-6.61,18.75-5.45Z"/>
    <path class="cls-2" d="M414.17,701.78l-10.56,3.07c-2.31.67-3.15,2.13-2.5,4.37.65,2.24,2.13,3.02,4.45,2.35l10.56-3.07,1.92,6.61-11.84,3.44c-2.53.74-4.68.45-6.43-.85-1.75-1.3-3.11-3.61-4.07-6.92-.96-3.31-1.05-5.99-.27-8.02.78-2.04,2.44-3.42,4.97-4.16l11.84-3.44,1.92,6.61Z"/>
    <path class="cls-2" d="M419.35,719.61l1.92,6.61-2.38.69c1.36.58,2.36,1.28,3.01,2.1.64.82,1.15,1.85,1.51,3.09.38,1.32.5,2.5.34,3.57-.15,1.06-.53,2.04-1.11,2.92-.48.72-1.08,1.29-1.8,1.71-.72.42-1.58.78-2.58,1.07l-11.91,3.46-1.92-6.61,9.46-2.75c.93-.27,1.65-.55,2.19-.85s.92-.67,1.16-1.11c.21-.38.32-.77.33-1.17.02-.4-.04-.81-.16-1.22-.32-1.12-.91-1.88-1.75-2.29-.84-.4-1.88-.42-3.13-.06l-10.01,2.91-1.92-6.61,18.75-5.45Z"/>
    <path class="cls-2" d="M442.18,754.99l1.93,6.65-30.33,8.81-1.93-6.65,2.08-.61c-2.19-.9-3.64-2.55-4.34-4.96-.4-1.36-.5-2.69-.33-3.99.18-1.29.6-2.5,1.25-3.61.65-1.12,1.52-2.09,2.6-2.92,1.08-.83,2.33-1.45,3.74-1.86,1.34-.39,2.68-.53,4.02-.43,1.33.1,2.57.43,3.72,1,1.14.57,2.14,1.35,3,2.36.86,1,1.49,2.2,1.89,3.59.68,2.34.42,4.51-.76,6.52l13.45-3.91ZM418.86,752.72c-.61.18-1.15.45-1.61.82-.46.37-.83.8-1.11,1.29-.28.49-.45,1.03-.52,1.62-.07.59-.01,1.18.16,1.79.17.59.44,1.11.81,1.57.37.46.81.82,1.3,1.09.5.26,1.04.44,1.62.52.58.08,1.16.04,1.74-.13.58-.17,1.11-.45,1.56-.83.46-.38.82-.82,1.11-1.31.28-.49.45-1.03.52-1.62.07-.59.01-1.17-.15-1.76-.17-.58-.44-1.11-.81-1.57-.37-.46-.81-.82-1.31-1.09-.5-.26-1.03-.44-1.6-.53-.57-.09-1.14-.04-1.72.12Z"/>
    <path class="cls-2" d="M447.34,772.74l-30.33,8.81-1.92-6.61,30.33-8.81,1.92,6.61Z"/>
    <path class="cls-2" d="M431.87,801.76c-1.27.37-2.19,1.05-2.75,2.05-.57,1-.67,2.14-.29,3.43.44,1.51,1.32,2.35,2.63,2.52l1.87,6.43c-2.17,0-4.06-.68-5.68-2.04s-2.8-3.28-3.53-5.79c-1.09-3.75-.59-6.58,1.5-8.48-2.93-1.26-4.85-3.48-5.77-6.64-.33-1.14-.5-2.23-.49-3.26,0-1.03.17-1.96.49-2.8.33-.83.81-1.55,1.44-2.14.63-.6,1.41-1.03,2.34-1.29.95-.28,1.86-.34,2.74-.18.88.15,1.68.49,2.41,1,.73.51,1.38,1.21,1.93,2.09.56.88,1.01,1.91,1.35,3.08.45,1.54.58,3.24.41,5.11l.51-.15c2.24-.65,2.92-2.49,2.04-5.51-.34-1.17-1.19-2.78-2.55-4.84l5-1.45c1.17,1.83,1.99,3.58,2.48,5.26.5,1.73.65,3.21.44,4.43-.21,1.23-.79,2.4-1.73,3.52,2.67.92,4.47,2.98,5.4,6.2.97,3.34.76,6.15-.62,8.44-1.38,2.29-3.88,3.96-7.52,5.02l-4.07-13.99ZM425.99,790.08c-.63.18-1.07.6-1.3,1.25-.23.65-.22,1.42.04,2.33.25.88.68,1.6,1.28,2.16.6.56,1.19.76,1.78.59.56-.16.93-.65,1.12-1.46.19-.81.14-1.69-.13-2.64-.25-.85-.62-1.48-1.12-1.89-.5-.41-1.06-.53-1.67-.35ZM437.98,808.47c1.88-1.18,2.53-2.76,1.96-4.73-.54-1.88-1.94-2.85-4.17-2.91l2.22,7.64Z"/>
    <path class="cls-2" d="M453.58,837.46l-17.46,5.07c-1.05.3-2,.52-2.87.63-.86.12-1.64.16-2.34.13-.89-.06-1.77-.3-2.64-.72-.88-.42-1.7-.99-2.46-1.72-.77-.73-1.46-1.61-2.07-2.63-.62-1.03-1.11-2.18-1.48-3.47-.42-1.46-.63-2.85-.62-4.18s.21-2.54.59-3.64c.38-1.1.92-2.07,1.61-2.91.7-.83,1.53-1.5,2.49-1.99l2.16,7.46c-1.11.82-1.43,2.05-.95,3.68.4,1.39,1.1,2.34,2.1,2.86,1,.52,2.19.57,3.58.17l1.79-.52c-.61-.35-1.12-.71-1.56-1.07-.44-.36-.82-.75-1.15-1.15-.33-.41-.61-.85-.85-1.34-.23-.49-.44-1.04-.61-1.64-.39-1.34-.52-2.64-.38-3.89.14-1.25.5-2.41,1.09-3.47.59-1.06,1.4-1.98,2.43-2.77,1.03-.79,2.25-1.38,3.66-1.79,1.44-.42,2.84-.56,4.21-.43,1.37.13,2.63.48,3.79,1.06,1.16.58,2.16,1.37,3.03,2.37.86,1,1.49,2.19,1.88,3.55.64,2.21.36,4.32-.86,6.31l1.97-.57,1.92,6.61ZM439.99,825.32c-.61.18-1.14.45-1.6.82-.46.37-.83.8-1.11,1.29-.28.49-.46,1.03-.52,1.62-.06.59-.01,1.19.17,1.79.17.59.44,1.11.81,1.57.37.46.81.82,1.31,1.09.5.26,1.04.44,1.63.52.59.08,1.18.03,1.77-.14.61-.18,1.13-.46,1.58-.84.45-.38.81-.82,1.08-1.32.28-.5.45-1.05.52-1.63.07-.59.02-1.16-.14-1.72-.17-.58-.44-1.1-.82-1.54-.38-.44-.82-.81-1.3-1.09-.49-.28-1.03-.46-1.61-.54-.58-.08-1.16-.04-1.75.13Z"/>
    <path class="cls-2" d="M460.97,862.93l-17.47,5.07c-1.05.3-2,.52-2.87.63-.86.12-1.64.16-2.34.13-.89-.06-1.77-.3-2.65-.72s-1.7-.99-2.46-1.72c-.77-.73-1.46-1.6-2.07-2.63s-1.11-2.18-1.48-3.47c-.43-1.46-.63-2.85-.62-4.18,0-1.32.21-2.54.59-3.64.38-1.1.92-2.07,1.61-2.91.7-.83,1.53-1.5,2.49-1.99l2.17,7.46c-1.11.82-1.43,2.05-.95,3.68.4,1.39,1.1,2.34,2.1,2.86.99.52,2.19.57,3.57.17l1.79-.52c-.61-.35-1.13-.71-1.56-1.07-.44-.36-.82-.75-1.15-1.15-.33-.41-.61-.85-.84-1.34-.23-.49-.44-1.04-.62-1.64-.39-1.34-.51-2.64-.38-3.89.14-1.25.5-2.41,1.09-3.47.59-1.06,1.4-1.98,2.43-2.77,1.03-.79,2.24-1.39,3.66-1.8,1.44-.42,2.84-.56,4.22-.43,1.37.13,2.63.48,3.79,1.06,1.16.57,2.17,1.37,3.03,2.37.86,1,1.49,2.19,1.88,3.55.64,2.22.36,4.32-.86,6.31l1.97-.57,1.92,6.61ZM447.38,850.79c-.61.18-1.14.45-1.6.82-.46.37-.83.8-1.11,1.29-.28.49-.46,1.03-.52,1.62-.06.59-.01,1.19.17,1.79.17.59.44,1.11.81,1.57.37.46.81.82,1.31,1.09.5.26,1.04.44,1.63.52.59.08,1.18.03,1.77-.14.61-.18,1.13-.45,1.58-.83.44-.38.8-.82,1.08-1.32.28-.5.45-1.05.52-1.64.07-.59.02-1.16-.14-1.72-.17-.58-.45-1.1-.83-1.54-.38-.45-.81-.81-1.3-1.09-.49-.28-1.03-.46-1.6-.54-.58-.08-1.16-.04-1.75.13Z"/>
    <path class="cls-2" d="M453.65,876.87c-2.85.83-3.88,2.58-3.11,5.26.42,1.44,1.31,2.35,2.7,2.74l1.86,6.39c-4.66-.05-7.74-2.65-9.24-7.82-.46-1.58-.64-3.1-.55-4.56.09-1.45.44-2.78,1.04-3.97s1.44-2.22,2.51-3.09c1.07-.87,2.36-1.52,3.87-1.96,1.56-.45,3.04-.62,4.43-.5,1.4.12,2.66.51,3.8,1.15,1.14.65,2.13,1.54,2.98,2.68s1.5,2.52,1.97,4.12c.46,1.58.63,3.08.53,4.48-.11,1.4-.48,2.68-1.13,3.82s-1.55,2.13-2.72,2.97c-1.17.84-2.57,1.5-4.2,1.97l-.7.2-4.04-13.92ZM459.74,883.5c.86-.49,1.47-1.16,1.84-2,.36-.85.4-1.76.12-2.73-.3-1.02-.81-1.78-1.53-2.27-.72-.49-1.6-.68-2.62-.57l2.2,7.56Z"/>
    <path class="cls-2" d="M469.27,891.51l1.92,6.61-2.38.69c1.36.58,2.36,1.28,3.01,2.1.64.82,1.15,1.85,1.51,3.09.38,1.32.49,2.5.34,3.57-.15,1.06-.53,2.03-1.11,2.92-.48.72-1.08,1.29-1.8,1.71-.72.42-1.58.78-2.58,1.07l-11.91,3.46-1.92-6.61,9.46-2.75c.93-.27,1.65-.55,2.19-.85.53-.3.92-.67,1.16-1.11.21-.38.32-.77.33-1.17.02-.4-.04-.81-.16-1.22-.32-1.12-.91-1.88-1.75-2.28s-1.88-.42-3.13-.06l-10.01,2.91-1.92-6.61,18.75-5.45Z"/>
    <path class="cls-2" d="M492.11,926.88l1.93,6.65-30.33,8.81-1.93-6.65,2.08-.61c-2.19-.9-3.64-2.55-4.34-4.96-.39-1.37-.5-2.7-.32-3.99s.6-2.5,1.25-3.61c.65-1.12,1.52-2.09,2.6-2.92,1.08-.83,2.33-1.45,3.74-1.86,1.34-.39,2.68-.54,4.01-.43,1.34.1,2.58.43,3.72,1,1.14.57,2.14,1.35,3,2.36.86,1,1.49,2.2,1.89,3.59.68,2.34.42,4.51-.76,6.52l13.45-3.91ZM468.79,924.62c-.61.18-1.15.45-1.61.82-.46.37-.83.8-1.11,1.29-.28.49-.45,1.03-.52,1.62-.07.59-.01,1.19.16,1.79.17.59.44,1.11.81,1.57.37.46.81.82,1.3,1.09.5.26,1.04.44,1.62.52.58.08,1.16.04,1.74-.13.58-.17,1.11-.45,1.56-.83.46-.38.82-.82,1.11-1.31.28-.49.45-1.03.52-1.62.07-.59.01-1.17-.16-1.76-.17-.58-.44-1.11-.81-1.57-.37-.46-.81-.82-1.31-1.09-.5-.26-1.03-.44-1.6-.53-.57-.09-1.14-.04-1.72.12Z"/>
    <path class="cls-2" d="M475,950.39c-2.85.83-3.88,2.58-3.11,5.26.42,1.44,1.31,2.35,2.7,2.74l1.86,6.39c-4.66-.05-7.74-2.65-9.24-7.82-.46-1.58-.64-3.1-.55-4.56.09-1.45.44-2.78,1.05-3.97.6-1.19,1.44-2.22,2.51-3.09,1.07-.87,2.36-1.52,3.87-1.96,1.56-.45,3.04-.62,4.43-.5,1.4.12,2.66.51,3.8,1.15,1.14.65,2.13,1.54,2.98,2.68.85,1.14,1.5,2.52,1.97,4.12.46,1.58.63,3.08.53,4.48-.11,1.41-.48,2.68-1.13,3.82-.64,1.14-1.55,2.13-2.72,2.97-1.17.84-2.57,1.5-4.2,1.97l-.7.2-4.04-13.92ZM481.09,957.02c.86-.49,1.47-1.15,1.84-2,.36-.85.4-1.76.12-2.73-.3-1.02-.81-1.78-1.53-2.27-.72-.49-1.6-.68-2.62-.57l2.2,7.56Z"/>
  </g>
  <g>
    <path class="cls-1" d="M690.95,550.34c2.79-.72,5.41-1.02,7.88-.88,2.46.14,4.67.65,6.63,1.55,1.95.9,3.61,2.14,4.96,3.72,1.35,1.58,2.32,3.47,2.89,5.67.56,2.17.64,4.28.23,6.34-.41,2.06-1.25,3.94-2.52,5.66-1.27,1.72-2.95,3.24-5.04,4.56-2.09,1.32-4.53,2.34-7.31,3.06-2.79.72-5.41,1.02-7.88.88-2.46-.14-4.68-.64-6.64-1.52-1.96-.88-3.62-2.12-4.98-3.72s-2.32-3.48-2.88-5.65c-.57-2.2-.65-4.32-.24-6.36.41-2.04,1.26-3.93,2.55-5.67,1.28-1.74,2.97-3.27,5.06-4.59,2.09-1.32,4.52-2.34,7.31-3.06ZM693.29,559.35c-1.55.4-2.92.91-4.12,1.52s-2.19,1.29-2.99,2.04c-.8.75-1.36,1.55-1.68,2.4-.33.84-.37,1.72-.14,2.62.22.87.69,1.6,1.39,2.19.7.59,1.58,1.02,2.64,1.27,1.06.25,2.26.36,3.6.3,1.34-.05,2.79-.28,4.34-.68,1.52-.39,2.88-.9,4.1-1.51,1.21-.61,2.21-1.29,3-2.02.78-.73,1.34-1.53,1.66-2.39.32-.86.37-1.72.15-2.59-.23-.9-.7-1.64-1.4-2.22-.69-.58-1.57-1.01-2.61-1.28-1.05-.27-2.25-.38-3.61-.33-1.36.05-2.8.28-4.31.67Z"/>
    <path class="cls-1" d="M715.42,604.49l-3.15-12.13-4.01.4c.21.54.39,1.04.56,1.49.17.45.31.93.44,1.42.46,1.77.58,3.49.35,5.17-.22,1.68-.74,3.2-1.54,4.57s-1.88,2.55-3.24,3.57c-1.36,1.01-2.93,1.75-4.73,2.22-1.89.49-3.68.58-5.38.28-1.7-.3-3.25-.95-4.65-1.94s-2.62-2.33-3.67-4.01c-1.05-1.68-1.86-3.63-2.44-5.86-.55-2.11-.81-4.18-.79-6.21.02-2.04.33-4.03.95-5.98l8.9-.87c-.93,1.9-1.53,3.74-1.81,5.53-.28,1.79-.23,3.42.15,4.87.48,1.86,1.37,3.2,2.66,4.02,1.29.82,2.67,1.04,4.16.66,1.73-.45,2.95-1.54,3.64-3.28.69-1.73.73-3.78.12-6.13-.27-1.05-.67-2.11-1.19-3.16-.52-1.05-1.17-2.06-1.95-3.01l19.58-1.96,4.77,18.35-7.71,2Z"/>
    <path class="cls-1" d="M732,636.63l-35.03,9.1-2.36-9.11,35.03-9.1,2.36,9.11Z"/>
    <path class="cls-1" d="M698.88,653.07l35.03-9.1,2.36,9.11-17.05,22.38,21.42-5.56,2.35,9.06-35.03,9.1-2.35-9.06,17.05-22.38-21.42,5.56-2.37-9.11Z"/>
    <path class="cls-1" d="M744.9,686.3l3.5,13.47c.62,2.38.72,4.75.3,7.09-.42,2.34-1.22,4.5-2.41,6.48-1.19,1.98-2.73,3.69-4.62,5.14-1.89,1.45-4,2.47-6.32,3.08-2.29.59-4.61.73-6.96.4-2.35-.33-4.53-1.07-6.55-2.22-2.02-1.15-3.78-2.64-5.28-4.48-1.5-1.84-2.57-3.97-3.2-6.39l-3.5-13.47,35.03-9.1ZM719.94,702.49l.54,2.09c.41,1.58,1.02,2.92,1.84,4.04.82,1.11,1.77,1.98,2.86,2.6,1.09.63,2.29,1.01,3.6,1.15,1.31.14,2.68.02,4.1-.35,1.39-.36,2.63-.93,3.72-1.71,1.09-.78,1.95-1.71,2.6-2.78.65-1.08,1.06-2.3,1.23-3.67s.06-2.83-.34-4.37l-.54-2.09-19.61,5.09Z"/>
    <path class="cls-1" d="M743.23,735.43l3.41,13.15,13.52-3.51,2.36,9.11-35.03,9.1-2.37-9.11,14.45-3.75-3.41-13.15-14.45,3.75-2.37-9.11,35.03-9.1,2.36,9.11-13.52,3.51Z"/>
    <path class="cls-1" d="M746.5,764.48c2.6-.68,5.15-.83,7.65-.45,2.49.38,4.8,1.2,6.92,2.47,2.11,1.27,3.95,2.97,5.51,5.09s2.71,4.61,3.45,7.46c.73,2.82.93,5.54.61,8.17-.33,2.63-1.1,5.02-2.33,7.17-1.23,2.15-2.84,4-4.83,5.54-2,1.54-4.29,2.65-6.9,3.33-2.6.67-5.15.82-7.64.45-2.5-.38-4.8-1.21-6.92-2.49-2.12-1.28-3.96-3-5.52-5.14-1.56-2.14-2.71-4.62-3.44-7.44-.74-2.85-.95-5.58-.62-8.2.33-2.62,1.11-4.99,2.34-7.13,1.23-2.14,2.84-3.98,4.84-5.52,2-1.54,4.3-2.65,6.9-3.33ZM748.98,774c-1.39.36-2.61.96-3.65,1.79-1.04.83-1.88,1.81-2.51,2.93-.63,1.12-1.04,2.34-1.21,3.66-.17,1.32-.08,2.64.26,3.97s.91,2.53,1.7,3.6c.79,1.07,1.74,1.95,2.84,2.63,1.11.69,2.31,1.14,3.63,1.37,1.31.22,2.67.15,4.06-.21,1.39-.36,2.61-.96,3.65-1.79,1.04-.83,1.88-1.82,2.51-2.96.63-1.14,1.03-2.37,1.2-3.68.17-1.32.08-2.64-.26-3.97s-.91-2.53-1.7-3.6c-.79-1.07-1.74-1.94-2.84-2.61-1.1-.67-2.31-1.12-3.62-1.34-1.31-.22-2.67-.15-4.06.21Z"/>
    <path class="cls-1" d="M777.95,813.59l-27.32,7.09,2.83,10.92-7.71,2-5.2-20.02,35.03-9.1,2.36,9.11Z"/>
    <path class="cls-1" d="M782.01,829.2l3.5,13.47c.62,2.38.72,4.75.3,7.09s-1.22,4.5-2.41,6.48c-1.19,1.98-2.73,3.69-4.62,5.14-1.89,1.45-4,2.47-6.32,3.08-2.29.59-4.61.73-6.96.4-2.35-.33-4.53-1.07-6.55-2.22-2.02-1.15-3.78-2.64-5.28-4.48s-2.57-3.97-3.2-6.39l-3.5-13.47,35.03-9.1ZM757.05,845.4l.54,2.09c.41,1.58,1.02,2.92,1.84,4.03.82,1.11,1.77,1.98,2.86,2.61,1.09.63,2.29,1.01,3.6,1.15,1.31.14,2.68.02,4.1-.35,1.39-.36,2.64-.93,3.72-1.71,1.09-.78,1.95-1.71,2.6-2.78.65-1.08,1.06-2.3,1.23-3.67.17-1.37.06-2.83-.34-4.37l-.54-2.09-19.61,5.09Z"/>
  </g>
</svg>