<?xml version="1.0" encoding="UTF-8"?>
<svg id="Layer_1" data-name="Layer 1" xmlns="http://www.w3.org/2000/svg" viewBox="0 0 960.54 1105.32">
  <defs>
    <style>
      .cls-1 {
        fill: #2d2b6e;
      }

      .cls-1, .cls-2, .cls-3, .cls-4 {
        stroke-width: 0px;
      }

      .cls-2 {
        fill: #27266e;
      }

      .cls-3 {
        fill: #f15b22;
      }

      .cls-4 {
        fill: #fff;
      }
    </style>
  </defs>
  <path class="cls-3" d="M757.28,60.81l-11.68-.61h-.05s-23.21-1.21-23.21-1.21l-3.17-.16c-1,19.19-17.36,33.93-36.54,32.94-19.19-1-33.93-17.35-32.94-36.54l-36.59-1.9c-1,19.19-17.36,33.93-36.54,32.94-19.19-1-33.93-17.35-32.94-36.54l-32.05-1.66c-1,19.19-17.36,33.93-36.54,32.94-19.19-1-33.93-17.35-32.94-36.54l-31.65-1.64c-1,19.19-17.35,33.93-36.54,32.94-19.19-1-33.93-17.35-32.94-36.54l-36.59-1.9c-1,19.19-17.35,33.93-36.54,32.94-19.19-1-33.93-17.35-32.94-36.54l-32.05-1.66c-1,19.19-17.35,33.93-36.54,32.94-19.19-1-33.93-17.35-32.94-36.54l-45.6-2.36-.58,11.15-1.48,28.57-.04.82,7.5.39c15.4,4.24,26.34,18.72,25.48,35.33-1,19.19-17.35,33.93-36.54,32.94l-1.9,36.59c19.19,1,33.93,17.36,32.94,36.54-1,19.19-17.35,33.93-36.54,32.94l-1.66,32.05c19.19,1,33.93,17.36,32.94,36.54-1,19.19-17.35,33.93-36.54,32.94l-1.98,38.11c19.19,1,33.93,17.36,32.94,36.54-1,19.19-17.35,33.93-36.54,32.94l-1.9,36.59c19.19,1,33.93,17.36,32.94,36.54s-17.35,33.93-36.54,32.94l-1.66,32.05c19.19,1,33.93,17.36,32.94,36.54-1,19.19-17.35,33.93-36.54,32.94l-1.64,31.65c19.19,1,33.93,17.35,32.94,36.54-1,19.19-17.35,33.93-36.54,32.94l-.21,4.13-1.68,32.46-.37,7.18,19.34,1,1.8.09,17.62.91,1.78.09.82.04c1-19.19,17.36-33.93,36.54-32.94s33.93,17.35,32.94,36.54l32.05,1.66c1-19.19,17.36-33.93,36.54-32.94,19.19,1,33.93,17.35,32.94,36.54l36.98,1.92c1-19.19,17.35-33.93,36.54-32.94,19.19,1,33.93,17.35,32.94,36.54l36.59,1.9c1-19.19,17.36-33.93,36.54-32.94,19.19,1,33.93,17.35,32.94,36.54l32.05,1.66c1-19.19,17.36-33.93,36.54-32.94,19.19,1,33.93,17.35,32.94,36.54l38.11,1.98c1-19.19,17.36-33.93,36.54-32.94,19.19,1,33.93,17.35,32.94,36.54l.57.03,16.46.85,5.67.29,13.89.72,4.52.23.89-17.12.5-9.66.71-13.76h0s.09-1.73.09-1.73c-19.19-1-33.93-17.35-32.94-36.54,1-19.19,17.35-33.93,36.54-32.94l1.9-36.59c-19.19-1-33.93-17.36-32.94-36.54,1-19.19,17.35-33.93,36.54-32.94l1.66-32.05c-19.19-1-33.93-17.36-32.94-36.54,1-19.19,17.36-33.93,36.54-32.94l1.98-38.11c-19.19-1-33.93-17.36-32.94-36.54,1-19.19,17.35-33.93,36.54-32.94l1.9-36.59c-19.19-1-33.93-17.36-32.94-36.54,1-19.19,17.35-33.93,36.54-32.94l1.66-32.05c-19.19-1-33.93-17.36-32.94-36.54,1-19.19,17.35-33.93,36.54-32.94l1.64-31.65c-19.19-1-33.93-17.35-32.94-36.54,1-19.19,17.35-33.93,36.54-32.94l.04-.69,1.12-21.64.15-2.95.59-11.31.24-4.63-5.6-.29Z"/>
  <rect class="cls-4" x="161.24" y="136.28" width="487.14" height="605.67" transform="translate(23.29 -20.38) rotate(2.97)"/>
  <path class="cls-3" d="M283.47,369.99c5.91-12.25-1.81-16.83,1.97-31.33,4.84-18.56,19.59-19.14,23.27-37.91,2.31-11.77-3.2-13.01-.86-23.79,5.31-24.44,38.49-40.49,48.21-33.82,2.48,1.7,4.37,5.54,8.44,5.68,2.35.08,8.72-1.47,6.82-3.49-5.62-5.95-4.67-12.09-1.61-16.15,3.94-5.22,3.96-.62,8.59-4.09,3.16-2.36.46-5.69,1.97-11.07,2.28-8.12,7.4-8,7.89-14.08.4-4.97-2.43-6.02-3.38-12.23-1.36-8.84,8.48-18,11.03-19.02,2.41-.97,5.06-.12,5.74-.51,4.1-2.32-.41-11.48,10.35-18.53,3.91,4.21,6.58,5.96,9.79,6.45,1.74.26-3.07,5.89-3.87,6.71-.69.71-1.82,1.66-1.82,1.66,0,0-1.29.9-1.88,1.32-.53.37-.87.37-1.81.96-2.66,3.33,6.96-.4,7.4.6,1.09,2.43-23.52,37.89-20.63,40.67,1.25,1.21,6.42-3.99,10.92-1.88,2.6,1.22,2.38,3.65,5.21,7.26,4.4,5.61,11.78,8.47,13.26,6.97,1.39-1.41-3.7-5.39-3.22-12.04.43-5.88,5.09-12.06,9.72-12.42,2.97-.23,4.75,2.04,6.23,1.02,1.83-1.25-.42-5.03.8-8.69,2.17-6.48,13.44-1.93,20.63-5.7,1.73-.91.04,2.51,4.29,10.14,4.22,7.58,4.43,10.33,3.22,12.04-1.99,2.8-8.48.87-8.85,2.33-.32,1.25,4.54,2.1,6.68,5.93,2.4,4.31.97,11.67-3.2,14.5-4.42,3.01-9.6-.68-12.35,2.5-1.72,1.99-1.81,5.87-.07,8.03,3,3.7,9.4-.17,15.9,3.27,3.72,1.97,5.77,5.43,6.92,8.04,13.32-4.71,19.95-21.08,29.93-31.63,2.63,9.4,5.87,19.24,8.1,18.93,2.67-.37,4.83-20.84,6.75-19.69,15.26,9.19,23.39,15.51,32.64,28.02.94,1.27-18.82,5.9-19.24,8.94-.33,2.37,9.09,2.8,19.53,5.74-26.1,15.94-28.9,27.27-27.13,31.42,1.17,2.74,4.29,2.27,7.32,7.02,4.1,6.41,1.37,11.89,6.14,16.38.44.41,3.46,3.26,5.46,2.38,3.7-1.63-6.07-10,3.34-17.29,15.99-12.39,14.97,4.69,19.18.65,2.17-2.09.16-5.02,2.45-6.86,3.3-2.65,5.57.23,11.03.95,9.61,1.27,11.91-1.04,12.66.28.58,1.03-2.61,7.36-.69,12.18,2.49,6.26.61,5.39-1.4,7.97-2.26,2.9-6.01.92-8.23,3.76-2.38,3.06,1.11,6.43-.6,11.49-1.64,4.87-7.26,8.93-11.96,8.46-5.13-.51-7.44-6.23-9.15-5.36-1.6.81-1.68,6.87,1.53,10.91,4.22,5.32,11.09,3.28,13.22,7.67,2.06,4.24-3.29,10.3-1.59,10.4,17.53,1.01,38.19-25.74,39.42-23.69,1.27,2.12-2.09,10.28-.81,10.76,1.94.74,10.38-16.85,11.33-15.09,2.59,4.83,4.97,6.95,9.85,9.65,2.44,1.35-9.2,4.52-17.01,10.91-2.82,2.3-.33,5.62-1.68,9.6-2.18,6.44-10.53,11.11-18.03,10.94-5.21-.12-5.23-2.44-8.98-1.86-7.77,1.2-8.84,11.3-16.71,12.41-3.92.55-1.92-1.32-8.36-.43-4.18.57.88,5.04-4.1,12.37-5.81,5.16-15.31-2.39-16.77-.53-1.8,2.3-.21,6.17-2.12,7.22-2.24,1.23-6.41-2.95-7.22-2.12-.77.79,3.17,4.38,2.1,6.74-1.02,2.25-5.49.98-7.53,3.8-1.27,1.75-.85,4.04-.65,5.16,1.94,11.01.1,31.96-.72,33.82-5.18,11.81-5.98,17.68-20.92,29.27-6.7,5.2-13.59,6.71-24.53,10.46-15.06,5.15-17.53,4.72-18.62,5.9-10.17,11.02.92,36.54,5.56,47.23,7.11,16.35,16.58,28.55,25.05,39.46,10.86,13.99,18.34,20.76,22.22,35.11,1.66,6.17,3.74,14.27.04,21.37-5.87,11.28-22.68,13.14-30.11,14.08-31.25,3.95-88.8,11.23-130.01,34.47-16.41,9.25-36.24,24.43-51.66,17.55-1.81-.81-5.1-2.33-6.57-5.68-3.86-8.79,9.49-19.55,25.41-41.04,10.78-14.56,20.21-27.29,25.24-45.25,5.71-20.35,2.88-37.1,2.13-41.1-1.26-6.73-7.28-39.02-30.6-50.05-3.95-1.87-2.25-.22-28.67-6.45-23.02-5.43-28.03-7.56-29.89-12.24-1.91-4.78-1.62-14.93,3.05-21.97,1.15-1.73,2.85-3.71,2.2-5.61-1.18-3.47-6.35-3.64-7.28-6.71-.83-2.73,2.09-5.04,3.1-8.39,1.38-4.57-4.04-6.06-4.76-11.31-1.12-8.2,9.23-11.96,7.8-17.91-1.45-6.05-12.71-4.54-17.6-13.89-.48-.91-2.3-4.51-1.83-8.87.85-7.8,8.3-11.09,19.77-20.73,10.25-8.62,15.38-12.93,18.5-19.39Z"/>
  <path class="cls-4" d="M439.01,222.47c-.57-1.55.61-9.65,2.39-13.21,1.92-3.85,9.29-8.18,10.82-8.11,1.74.08,1.98,8.77-.42,13.82-2.92,6.13-12.37,8.63-12.79,7.51Z"/>
  <path class="cls-4" d="M556.29,322.02c.04-1.65,4.1-8.75,7.06-11.42,3.19-2.88,11.64-4.21,13.04-3.59,1.59.71-1.37,8.89-5.45,12.71-4.96,4.64-14.67,3.51-14.65,2.3Z"/>
  <circle class="cls-4" cx="513.57" cy="253.92" r="10.23"/>
  <path class="cls-2" d="M915.22,385.24c-28.76-83.77-48.34-159.66-76.93-243.28-11.68-34.18-40.55-59.64-75.95-66.83-79.88-16.22-166.04-38.54-246.07-54.91-35.82-7.33-72.79,5.26-96.82,32.81-55.73,63.92-111.46,127.85-167.19,191.77-25.01,28.68-31.89,68.94-17.83,104.3,32.54,81.87,65.08,163.74,97.62,245.61,13.33,33.53,43.46,57.4,79.12,62.91,80.97,12.52,155.01,28.77,236.03,41.26,34.57,5.33,69.44-7.62,92.29-34.11,50.57-58.62,105.72-121.59,156.45-180.37,23.56-27.3,30.99-65.05,19.28-99.15ZM872.83,475.54c-47.08,54.54-98.25,112.97-145.17,167.37-21.2,24.58-53.56,36.6-85.63,31.65-75.18-11.59-143.88-26.66-219.01-38.28-33.09-5.12-61.05-27.26-73.42-58.38-30.19-75.97-60.39-151.93-90.58-227.9-13.04-32.81-6.66-70.16,16.55-96.78,51.71-59.32,103.42-118.63,155.13-177.94,22.29-25.57,56.6-37.24,89.83-30.45,74.27,15.19,154.21,35.91,228.33,50.96,32.84,6.67,59.64,30.3,70.48,62.01,26.52,77.59,44.69,148.01,71.38,225.73,10.87,31.64,3.97,66.68-17.89,92.01Z"/>
  <path class="cls-2" d="M880.15,382.8c-25.79-75.12-43.36-143.18-68.99-218.17-10.48-30.65-36.37-53.49-68.11-59.93-71.63-14.55-148.9-34.56-220.67-49.25-32.12-6.57-65.28,4.71-86.82,29.42-49.98,57.32-99.95,114.65-149.93,171.98-22.42,25.72-28.6,61.82-15.99,93.53,29.18,73.42,58.36,146.84,87.54,220.26,11.95,30.07,38.97,51.47,70.95,56.42,72.61,11.23,139,25.8,211.67,37,31,4.78,62.27-6.84,82.76-30.59,45.35-52.57,94.8-109.04,140.31-161.76,21.13-24.48,27.79-58.34,17.29-88.92ZM718.97,626.19c-19.95,23.13-50.4,34.44-80.59,29.79-70.76-10.91-135.41-25.1-206.12-36.03-31.14-4.82-57.46-25.66-69.09-54.94-28.42-71.49-56.83-142.99-85.25-214.48-12.27-30.88-6.26-66.03,15.57-91.08,48.67-55.82,97.33-111.64,146-167.47,20.98-24.06,53.27-35.05,84.55-28.65,69.89,14.3,145.13,33.79,214.89,47.95,30.91,6.28,56.12,28.52,66.33,58.36,24.96,73.02,42.06,139.29,67.18,212.45,10.22,29.78,3.74,62.75-16.83,86.59-44.31,51.33-92.46,106.32-136.63,157.52Z"/>
  <path class="cls-2" d="M757.88,385.64l-227.3-186.83c-.28-.23-.6-.34-.9-.51l-.08-.2-.19.04c-2.12-1.07-4.56-.85-5.92.8l-102.98,125.29c-1.56,1.9-1.06,4.86,1.05,6.76l.08.44h.37s226.77,186.39,226.77,186.39l.07.37h.45c2.27,1.69,5.27,1.61,6.84-.29l102.98-125.29c1.62-1.97,1.06-5.09-1.24-6.98ZM751.11,391.19l-97.92,119.13c-.34.41-.77.68-1.22.93l-25.28-142.61,124.61,22.16c-.08.12-.1.27-.19.39ZM533.53,206.39l216.34,177.82c.83.68,1.34,1.53,1.69,2.42l-159.69-28.41-59.24-152.35c.3.17.62.28.9.51ZM427.85,327.03c.15-.49.34-.96.67-1.37l97.92-119.13c.42-.51.95-.88,1.54-1.13l46.19,118.8-146.33,2.83ZM646.1,510.46l-216.34-177.82c-.48-.39-.83-.86-1.15-1.34l147.22-2.85,13.18,33.91,1.02-.24h0l32.16,5.72,25.44,143.49c-.53-.22-1.06-.48-1.53-.87Z"/>
  <g>
    <path class="cls-2" d="M373.58,387.37l11.43,9.4c-.97,1.18-1.89,2.21-2.78,3.08s-1.82,1.61-2.79,2.19c-1.36.82-2.76,1.38-4.2,1.7s-2.88.38-4.32.19c-1.44-.18-2.86-.58-4.25-1.21-1.39-.62-2.72-1.45-3.97-2.48-1.72-1.42-3.07-2.99-4.02-4.73-.95-1.73-1.52-3.54-1.69-5.4-.17-1.87.05-3.75.66-5.66.61-1.91,1.64-3.73,3.07-5.48,1.42-1.72,3-3.08,4.74-4.06,1.74-.98,3.55-1.56,5.41-1.73,1.87-.17,3.76.05,5.68.68s3.77,1.67,5.55,3.13c2.31,1.9,3.93,4.07,4.85,6.5.92,2.43,1.03,5.12.33,8.05l-7.33-2.23c.49-1.63.54-3.05.17-4.25-.38-1.2-1.09-2.22-2.12-3.08-.86-.71-1.78-1.19-2.75-1.45-.97-.26-1.95-.29-2.94-.1-.99.19-1.98.59-2.95,1.19-.98.61-1.89,1.43-2.75,2.47-.78.94-1.37,1.91-1.78,2.92-.42,1.01-.62,2-.61,3,0,.99.24,1.94.7,2.86.46.92,1.17,1.77,2.13,2.56.57.47,1.17.86,1.8,1.16.63.31,1.28.49,1.93.55.65.06,1.3-.02,1.95-.24.64-.22,1.28-.62,1.91-1.19l-4.73-3.89,3.67-4.47Z"/>
    <path class="cls-2" d="M390.36,396.68l5.32,4.37-2.03,2.47c1.31-.43,2.57-.55,3.79-.36,1.22.2,2.38.75,3.47,1.65.14.11.29.24.46.38.17.13.34.31.53.53l-4.18,5.08c-.42-.93-1.04-1.73-1.86-2.41-1.23-1.01-2.46-1.41-3.68-1.18-1.22.23-2.41,1.05-3.57,2.46l-5.32,6.47-5.32-4.38,12.4-15.08Z"/>
    <path class="cls-2" d="M409.38,412.31l-6.98,8.5c-1.53,1.86-1.39,3.53.41,5.02,1.8,1.48,3.47,1.29,5-.57l6.98-8.5,5.32,4.37-7.83,9.53c-1.68,2.04-3.6,3.01-5.78,2.93-2.18-.09-4.6-1.22-7.27-3.41-2.67-2.19-4.25-4.35-4.75-6.47-.51-2.12.08-4.2,1.75-6.24l7.83-9.53,5.32,4.38Z"/>
    <path class="cls-2" d="M423.73,424.11l5.32,4.37-1.57,1.91c1.45-.29,2.67-.28,3.67.04.99.31,1.99.87,2.99,1.69,1.06.87,1.82,1.79,2.3,2.75s.72,1.98.73,3.04c.01.87-.16,1.67-.52,2.43-.36.76-.87,1.54-1.53,2.34l-7.88,9.58-5.32-4.37,6.26-7.61c.61-.75,1.05-1.39,1.32-1.94s.38-1.07.33-1.57c-.04-.43-.17-.81-.38-1.15-.21-.34-.49-.64-.82-.92-.9-.74-1.81-1.04-2.74-.9-.92.14-1.79.72-2.62,1.72l-6.62,8.05-5.32-4.38,12.4-15.08Z"/>
    <path class="cls-2" d="M462.55,440.4l5.35,4.4-20.06,24.4-5.35-4.4,1.38-1.68c-2.31.5-4.44-.05-6.38-1.65-1.1-.9-1.94-1.94-2.52-3.11-.58-1.17-.92-2.4-1.01-3.69-.09-1.29.08-2.58.5-3.88.42-1.29,1.1-2.51,2.04-3.65.88-1.08,1.91-1.96,3.07-2.62,1.16-.67,2.37-1.1,3.63-1.27s2.53-.09,3.81.25c1.28.34,2.47.97,3.59,1.89,1.88,1.54,2.9,3.48,3.05,5.81l8.89-10.82ZM442.02,451.71c-.4.49-.69,1.02-.86,1.58-.17.57-.23,1.13-.19,1.7.05.56.21,1.11.48,1.63.28.52.66.98,1.15,1.39.47.39.99.67,1.55.83.57.17,1.13.22,1.69.16s1.1-.22,1.63-.48c.52-.26.98-.62,1.37-1.09.39-.47.66-.99.82-1.57.16-.57.22-1.14.17-1.71-.05-.56-.21-1.11-.48-1.63-.28-.52-.65-.98-1.12-1.36-.47-.38-.99-.67-1.55-.84-.57-.17-1.13-.22-1.69-.16-.56.06-1.1.22-1.62.47-.52.25-.97.61-1.35,1.08Z"/>
    <path class="cls-2" d="M476.83,452.14l-20.05,24.4-5.32-4.37,20.06-24.4,5.32,4.38Z"/>
    <path class="cls-2" d="M480.46,484.82c-.84,1.02-1.21,2.1-1.12,3.25.1,1.14.66,2.14,1.7,3,1.21,1,2.42,1.2,3.6.59l5.17,4.25c-1.79,1.22-3.74,1.73-5.84,1.53-2.1-.2-4.16-1.13-6.18-2.79-3.02-2.48-4.2-5.09-3.55-7.84-3.13.61-5.97-.13-8.52-2.22-.92-.76-1.67-1.56-2.25-2.42s-.97-1.72-1.17-2.59c-.2-.87-.21-1.73-.02-2.58.19-.85.59-1.64,1.2-2.39.63-.76,1.35-1.33,2.16-1.7.81-.37,1.66-.55,2.56-.54.89.01,1.82.22,2.78.63.96.41,1.91,1,2.85,1.78,1.24,1.01,2.31,2.34,3.23,3.98l.34-.41c1.48-1.8,1.01-3.7-1.42-5.7-.94-.77-2.56-1.62-4.85-2.55l3.31-4.03c1.99.85,3.67,1.83,5.02,2.94,1.39,1.14,2.34,2.28,2.86,3.41.52,1.13.7,2.42.55,3.88,2.72-.75,5.37-.06,7.96,2.06,2.69,2.21,4.1,4.64,4.26,7.32.15,2.67-.97,5.46-3.37,8.38l-11.26-9.25ZM469,478.51c-.42.51-.54,1.1-.37,1.77.17.67.62,1.3,1.35,1.9.71.58,1.46.93,2.28,1.06.81.13,1.41-.04,1.8-.51.37-.45.41-1.06.11-1.84-.3-.77-.83-1.47-1.6-2.1-.69-.56-1.35-.87-2-.93-.65-.05-1.17.16-1.57.65ZM489.29,486.91c.88-2.03.53-3.7-1.06-5.01-1.51-1.24-3.21-1.25-5.09-.04l6.14,5.05Z"/>
    <path class="cls-2" d="M518.53,502.03l-11.55,14.05c-.69.84-1.36,1.56-2.01,2.14-.65.59-1.27,1.06-1.86,1.43-.77.45-1.63.75-2.59.9-.96.15-1.96.14-3-.03-1.04-.17-2.11-.5-3.19-1-1.09-.5-2.15-1.17-3.19-2.03-1.17-.97-2.13-2-2.87-3.1-.74-1.1-1.26-2.21-1.57-3.33-.31-1.12-.41-2.23-.31-3.31.1-1.08.41-2.1.93-3.05l6,4.93c-.45,1.3-.02,2.5,1.29,3.58,1.12.92,2.23,1.31,3.35,1.17,1.11-.14,2.13-.76,3.05-1.88l1.19-1.44c-.7.05-1.33.05-1.89,0-.57-.05-1.1-.15-1.6-.3-.5-.15-.98-.36-1.45-.63-.47-.27-.95-.61-1.44-1.01-1.08-.89-1.91-1.89-2.51-3-.6-1.11-.95-2.27-1.05-3.48-.11-1.21.04-2.42.44-3.65.4-1.23,1.07-2.41,2.01-3.55.95-1.16,2.03-2.07,3.23-2.74,1.2-.67,2.45-1.09,3.73-1.27,1.28-.18,2.56-.1,3.84.25,1.28.34,2.46.97,3.56,1.87,1.78,1.46,2.74,3.36,2.86,5.69l1.3-1.59,5.32,4.37ZM500.46,499.69c-.4.49-.69,1.02-.86,1.59-.17.57-.23,1.13-.19,1.69.05.56.21,1.11.48,1.63.28.52.66.98,1.15,1.39.47.39.99.66,1.55.84.57.17,1.13.22,1.69.16.56-.06,1.11-.23,1.64-.5.53-.27.99-.64,1.38-1.11.4-.49.68-1.02.83-1.58.15-.56.2-1.13.14-1.7-.06-.57-.22-1.12-.5-1.64-.28-.52-.64-.97-1.09-1.34-.47-.39-.99-.66-1.55-.81-.57-.15-1.13-.21-1.69-.16s-1.11.2-1.63.46c-.53.26-.98.62-1.37,1.09Z"/>
    <path class="cls-2" d="M539.02,518.87l-11.55,14.05c-.69.84-1.36,1.56-2.01,2.14-.65.59-1.26,1.06-1.86,1.43-.77.45-1.63.75-2.59.9-.96.15-1.96.14-3-.03-1.04-.17-2.11-.5-3.19-1-1.09-.5-2.15-1.17-3.19-2.03-1.18-.96-2.13-2-2.87-3.1-.74-1.1-1.26-2.21-1.57-3.33s-.41-2.23-.31-3.31.41-2.1.93-3.05l6,4.93c-.45,1.31-.02,2.5,1.3,3.58,1.12.92,2.23,1.31,3.35,1.17,1.11-.14,2.13-.76,3.05-1.88l1.18-1.44c-.7.05-1.33.05-1.89,0-.57-.05-1.1-.15-1.6-.3-.5-.15-.99-.36-1.45-.63-.47-.27-.95-.61-1.44-1.01-1.08-.89-1.91-1.89-2.51-3-.59-1.11-.95-2.27-1.05-3.48-.11-1.2.04-2.42.44-3.65.4-1.23,1.07-2.41,2-3.55.95-1.16,2.03-2.07,3.23-2.74,1.2-.67,2.45-1.09,3.73-1.27,1.28-.18,2.56-.1,3.84.25,1.28.34,2.46.97,3.56,1.87,1.78,1.46,2.73,3.36,2.85,5.69l1.3-1.59,5.32,4.37ZM520.95,516.53c-.4.49-.69,1.02-.86,1.58-.17.57-.23,1.13-.19,1.7s.21,1.11.48,1.63c.28.52.66.98,1.15,1.39.47.39.99.66,1.55.84.56.17,1.13.22,1.69.16.56-.06,1.11-.23,1.64-.5.53-.27.99-.64,1.38-1.11.4-.49.68-1.02.83-1.58.15-.56.2-1.13.14-1.71-.06-.57-.22-1.12-.5-1.64-.28-.52-.64-.97-1.09-1.34-.47-.38-.99-.65-1.55-.81-.57-.15-1.13-.21-1.69-.16-.56.05-1.11.2-1.63.46-.52.26-.98.62-1.37,1.09Z"/>
    <path class="cls-2" d="M540.84,534.51c-1.89,2.29-1.75,4.33.41,6.1,1.16.95,2.41,1.2,3.78.74l5.14,4.23c-3.87,2.6-7.89,2.19-12.04-1.23-1.28-1.05-2.29-2.2-3.03-3.45-.74-1.25-1.21-2.54-1.38-3.87s-.06-2.65.33-3.97c.39-1.32,1.09-2.58,2.09-3.8,1.03-1.25,2.16-2.23,3.38-2.91,1.22-.69,2.49-1.08,3.79-1.2,1.3-.11,2.63.07,3.97.53s2.66,1.23,3.96,2.29c1.27,1.05,2.26,2.18,2.97,3.4.7,1.22,1.11,2.48,1.22,3.79.11,1.3-.08,2.63-.57,3.99-.49,1.36-1.27,2.69-2.35,4l-.46.56-11.2-9.21ZM549.61,536.54c.43-.89.56-1.79.38-2.69-.18-.9-.66-1.68-1.44-2.32-.82-.68-1.67-1.01-2.55-1.01s-1.7.34-2.48,1.01l6.09,5Z"/>
    <path class="cls-2" d="M562.01,537.77l5.32,4.37-1.57,1.91c1.45-.29,2.67-.28,3.67.03s1.99.87,2.99,1.7c1.06.87,1.82,1.79,2.3,2.75s.72,1.98.73,3.04c.01.86-.16,1.67-.52,2.43-.36.76-.87,1.54-1.53,2.34l-7.88,9.58-5.32-4.37,6.26-7.61c.61-.75,1.05-1.39,1.32-1.94.27-.55.38-1.07.33-1.57-.04-.43-.17-.81-.38-1.15-.21-.34-.49-.64-.82-.92-.9-.74-1.81-1.04-2.74-.9-.92.15-1.79.72-2.62,1.72l-6.62,8.05-5.32-4.38,12.4-15.08Z"/>
    <path class="cls-2" d="M600.82,554.06l5.35,4.4-20.06,24.4-5.35-4.4,1.38-1.68c-2.31.5-4.44-.05-6.38-1.65-1.1-.9-1.94-1.94-2.52-3.11-.58-1.17-.92-2.4-1.01-3.69-.09-1.29.08-2.58.5-3.88.42-1.29,1.1-2.51,2.04-3.65.89-1.08,1.91-1.95,3.07-2.62,1.16-.67,2.37-1.1,3.63-1.27,1.26-.18,2.53-.09,3.81.25,1.28.34,2.47.98,3.59,1.89,1.88,1.55,2.9,3.48,3.06,5.81l8.89-10.82ZM580.3,565.37c-.4.49-.69,1.02-.86,1.58-.17.57-.23,1.13-.19,1.7.05.56.21,1.11.48,1.63.28.52.66.99,1.15,1.39.47.39.99.67,1.55.84.57.17,1.13.22,1.69.16.56-.06,1.1-.22,1.63-.48.53-.26.98-.62,1.37-1.09.39-.47.66-.99.82-1.57s.22-1.14.17-1.71c-.05-.56-.21-1.11-.48-1.63-.28-.52-.65-.98-1.12-1.36-.47-.39-.99-.67-1.55-.84s-1.13-.22-1.69-.16c-.56.06-1.1.22-1.62.47-.52.25-.97.61-1.35,1.08Z"/>
    <path class="cls-2" d="M599.99,583.12c-1.89,2.29-1.75,4.32.41,6.1,1.16.95,2.41,1.2,3.78.74l5.14,4.23c-3.87,2.6-7.89,2.19-12.04-1.23-1.28-1.05-2.29-2.2-3.03-3.45-.74-1.25-1.21-2.54-1.38-3.87s-.06-2.65.33-3.97c.39-1.32,1.09-2.58,2.09-3.8,1.03-1.25,2.16-2.22,3.38-2.91,1.22-.69,2.49-1.09,3.79-1.2,1.3-.11,2.63.07,3.97.53,1.34.46,2.66,1.23,3.96,2.29,1.27,1.05,2.26,2.18,2.97,3.4.7,1.22,1.11,2.48,1.22,3.79.11,1.3-.08,2.64-.57,3.99-.49,1.35-1.27,2.69-2.35,4l-.46.56-11.2-9.21ZM608.76,585.16c.43-.89.56-1.79.38-2.69-.18-.9-.66-1.68-1.44-2.32-.82-.68-1.67-1.01-2.55-1.01-.87,0-1.7.34-2.48,1.02l6.09,5Z"/>
  </g>
  <text/>
  <g>
    <path class="cls-1" d="M590.13,173.4c1.82-2.24,3.75-4.03,5.82-5.38,2.07-1.35,4.15-2.25,6.25-2.68,2.1-.44,4.17-.42,6.2.05s3.93,1.42,5.69,2.85c1.74,1.41,3.05,3.06,3.95,4.96.89,1.9,1.33,3.92,1.33,6.06,0,2.14-.46,4.36-1.35,6.66-.9,2.3-2.25,4.57-4.07,6.81-1.81,2.24-3.75,4.03-5.82,5.38-2.07,1.35-4.15,2.26-6.25,2.71-2.1.46-4.17.45-6.21-.04-2.04-.48-3.93-1.43-5.67-2.84-1.76-1.43-3.09-3.09-3.97-4.98s-1.32-3.91-1.32-6.07c0-2.16.45-4.39,1.35-6.69.9-2.3,2.25-4.57,4.07-6.8ZM597.36,179.27c-1.01,1.24-1.81,2.46-2.42,3.66-.6,1.2-1,2.34-1.2,3.42-.2,1.08-.17,2.05.07,2.93.24.87.72,1.6,1.44,2.19.7.56,1.5.88,2.42.94.92.06,1.88-.12,2.88-.54,1-.42,2.03-1.05,3.08-1.89,1.05-.84,2.08-1.88,3.09-3.12.99-1.22,1.79-2.43,2.4-3.65.61-1.21,1.02-2.35,1.22-3.4.2-1.06.17-2.03-.08-2.91-.25-.89-.72-1.61-1.42-2.18-.72-.58-1.53-.9-2.44-.96-.9-.05-1.86.12-2.86.52s-2.04,1.03-3.1,1.88c-1.06.85-2.08,1.88-3.07,3.1Z"/>
    <path class="cls-1" d="M628.36,199.34c.18.19.34.34.47.45.14.11.25.21.35.29.92.75,1.89,1.08,2.9.99,1.01-.08,1.88-.56,2.58-1.43.69-.84.97-1.75.86-2.7s-.59-1.78-1.43-2.46c-.89-.72-1.86-1.01-2.89-.86-1.03.15-1.93.7-2.7,1.65l-6.75-5.47c1.36-1.33,2.79-2.33,4.28-3.02s2.98-1.07,4.49-1.15c1.51-.08,3.01.15,4.51.69,1.5.54,2.96,1.38,4.38,2.53,1.39,1.13,2.5,2.34,3.31,3.65.82,1.3,1.34,2.63,1.58,4,.23,1.36.16,2.72-.22,4.08-.38,1.36-1.08,2.66-2.08,3.9-1.09,1.34-2.24,2.23-3.44,2.68-1.21.44-2.53.59-3.98.45,1.08,1.62,1.55,3.33,1.42,5.14-.13,1.81-.88,3.56-2.25,5.25-1.13,1.39-2.43,2.44-3.91,3.14s-3.03,1.06-4.68,1.09c-1.65.02-3.33-.29-5.05-.94-1.72-.65-3.38-1.63-5-2.94-2.16-1.76-3.77-3.76-4.82-6.02-1.05-2.26-1.36-4.73-.91-7.41.19-1.21.54-2.28,1.05-3.23.5-.95,1.1-1.85,1.78-2.69l7.23,5.87c-1.02,1.36-1.45,2.67-1.28,3.94.17,1.27.86,2.39,2.08,3.38,1.29,1.05,2.52,1.47,3.68,1.26,1.16-.21,2.15-.83,2.98-1.85.99-1.22,1.37-2.43,1.16-3.63-.22-1.21-.82-2.21-1.82-3.02-.25-.2-.5-.37-.75-.52-.25-.14-.54-.3-.85-.47l3.72-4.59Z"/>
    <path class="cls-1" d="M674.38,218.51l-12.4,15.28c-.67.82-1.31,1.68-1.95,2.59-.63.91-1.08,1.84-1.33,2.78-.25.95-.22,1.91.09,2.89.32.98,1.09,1.96,2.31,2.95,1.22.99,2.33,1.53,3.34,1.63,1.01.1,1.96-.07,2.85-.5.89-.43,1.71-1.05,2.47-1.86.76-.8,1.47-1.62,2.13-2.44l12.4-15.28,7.27,5.9-13.22,16.29c-3.55,4.37-7.14,6.75-10.77,7.14-3.63.39-7.52-1.1-11.67-4.46-4.15-3.37-6.42-6.87-6.8-10.52-.38-3.65,1.21-7.66,4.75-12.03l13.22-16.29,7.31,5.93Z"/>
    <path class="cls-1" d="M694.85,256.88l1.89-20.23,9.02,7.32-2.09,10.35,10.59-3.46,9.02,7.32-19.93,5.59-1.68,23.48-8.91-7.23,1.81-13.74-14.04,3.82-8.83-7.17,23.15-6.06Z"/>
    <path class="cls-1" d="M742.05,268.72l5.33,4.32-45.69,24.93-5.29-4.29,45.65-24.96Z"/>
    <path class="cls-1" d="M755.6,284.4l-12.4,15.28c-.67.82-1.32,1.68-1.95,2.59-.63.91-1.08,1.84-1.33,2.79-.25.95-.22,1.91.1,2.89.32.98,1.09,1.96,2.3,2.95,1.22.99,2.33,1.53,3.34,1.63,1.01.1,1.96-.07,2.85-.5.89-.43,1.71-1.05,2.47-1.86.76-.81,1.47-1.62,2.13-2.44l12.4-15.28,7.27,5.9-13.22,16.29c-3.55,4.37-7.14,6.75-10.77,7.14-3.63.39-7.53-1.1-11.67-4.47-4.15-3.37-6.42-6.87-6.79-10.52-.38-3.65,1.21-7.65,4.75-12.03l13.22-16.29,7.31,5.93Z"/>
    <path class="cls-1" d="M785.98,309.05l-22.8,28.11-7.31-5.93,22.8-28.11,7.31,5.93Z"/>
  </g>
</svg>