<?xml version="1.0" encoding="UTF-8"?>
<svg id="Layer_1" data-name="Layer 1" xmlns="http://www.w3.org/2000/svg" viewBox="0 0 960.54 1105.32">
  <defs>
    <style>
      .cls-1 {
        fill: #2d2b6e;
      }

      .cls-1, .cls-2, .cls-3, .cls-4 {
        stroke-width: 0px;
      }

      .cls-2 {
        fill: #27266e;
      }

      .cls-3 {
        fill: #f15b22;
      }

      .cls-4 {
        fill: #fff;
      }
    </style>
  </defs>
  <path class="cls-3" d="M757.28,60.81l-11.68-.61h-.05s-23.21-1.21-23.21-1.21l-3.17-.16c-1,19.19-17.36,33.93-36.54,32.94-19.19-1-33.93-17.35-32.94-36.54l-36.59-1.9c-1,19.19-17.36,33.93-36.54,32.94-19.19-1-33.93-17.35-32.94-36.54l-32.05-1.66c-1,19.19-17.36,33.93-36.54,32.94-19.19-1-33.93-17.35-32.94-36.54l-31.65-1.64c-1,19.19-17.35,33.93-36.54,32.94s-33.93-17.35-32.94-36.54l-36.59-1.9c-1,19.19-17.35,33.93-36.54,32.94-19.19-1-33.93-17.35-32.94-36.54l-32.05-1.66c-1,19.19-17.35,33.93-36.54,32.94-19.19-1-33.93-17.35-32.94-36.54l-45.6-2.36-.58,11.15-1.48,28.57-.04.82,7.5.39c15.4,4.24,26.34,18.72,25.48,35.33-1,19.19-17.35,33.93-36.54,32.94l-1.9,36.59c19.19,1,33.93,17.36,32.94,36.54-1,19.19-17.35,33.93-36.54,32.94l-1.66,32.05c19.19,1,33.93,17.36,32.94,36.54-1,19.19-17.35,33.93-36.54,32.94l-1.98,38.11c19.19,1,33.93,17.36,32.94,36.54-1,19.19-17.35,33.93-36.54,32.94l-1.9,36.59c19.19,1,33.93,17.36,32.94,36.54-1,19.19-17.35,33.93-36.54,32.94l-1.66,32.05c19.19,1,33.93,17.36,32.94,36.54-1,19.19-17.35,33.93-36.54,32.94l-1.64,31.65c19.19,1,33.93,17.35,32.94,36.54-1,19.19-17.35,33.93-36.54,32.94l-.21,4.13-1.68,32.46-.37,7.18,19.34,1,1.8.09,17.62.91,1.78.09.82.04c1-19.19,17.36-33.93,36.54-32.94,19.19,1,33.93,17.35,32.94,36.54l32.05,1.66c1-19.19,17.36-33.93,36.54-32.94s33.93,17.35,32.94,36.54l36.98,1.92c1-19.19,17.35-33.93,36.54-32.94s33.93,17.35,32.94,36.54l36.59,1.9c1-19.19,17.36-33.93,36.54-32.94,19.19,1,33.93,17.35,32.94,36.54l32.05,1.66c1-19.19,17.36-33.93,36.54-32.94,19.19,1,33.93,17.35,32.94,36.54l38.11,1.98c1-19.19,17.36-33.93,36.54-32.94,19.19,1,33.93,17.35,32.94,36.54l.57.03,16.46.85,5.67.29,13.89.72,4.52.23.89-17.12.5-9.66.71-13.76h0s.09-1.73.09-1.73c-19.19-1-33.93-17.35-32.94-36.54,1-19.19,17.35-33.93,36.54-32.94l1.9-36.59c-19.19-1-33.93-17.36-32.94-36.54,1-19.19,17.35-33.93,36.54-32.94l1.66-32.05c-19.19-1-33.93-17.36-32.94-36.54,1-19.19,17.36-33.93,36.54-32.94l1.98-38.11c-19.19-1-33.93-17.36-32.94-36.54,1-19.19,17.35-33.93,36.54-32.94l1.9-36.59c-19.19-1-33.93-17.36-32.94-36.54,1-19.19,17.35-33.93,36.54-32.94l1.66-32.05c-19.19-1-33.93-17.36-32.94-36.54,1-19.19,17.35-33.93,36.54-32.94l1.64-31.65c-19.19-1-33.93-17.35-32.94-36.54,1-19.19,17.35-33.93,36.54-32.94l.04-.69,1.12-21.64.15-2.95.59-11.31.24-4.63-5.6-.29Z"/>
  <rect class="cls-4" x="161.24" y="136.28" width="487.14" height="605.67" transform="translate(23.29 -20.38) rotate(2.97)"/>
  <path class="cls-3" d="M283.47,369.99c5.91-12.25-1.81-16.83,1.97-31.33,4.84-18.56,19.59-19.14,23.27-37.91,2.31-11.77-3.2-13.01-.86-23.79,5.31-24.44,38.49-40.49,48.21-33.82,2.48,1.7,4.37,5.54,8.44,5.68,2.35.08,8.72-1.47,6.82-3.49-5.62-5.95-4.67-12.09-1.61-16.15,3.94-5.22,3.96-.62,8.59-4.09,3.16-2.36.46-5.69,1.97-11.07,2.28-8.12,7.4-8,7.89-14.08.4-4.97-2.43-6.02-3.38-12.23-1.36-8.84,8.48-18,11.03-19.02,2.41-.97,5.06-.12,5.74-.51,4.1-2.32-.41-11.48,10.35-18.53,3.91,4.21,6.58,5.96,9.79,6.45,1.74.26-3.07,5.89-3.87,6.71-.69.71-1.82,1.66-1.82,1.66,0,0-1.29.9-1.88,1.32-.53.37-.87.37-1.81.96-2.66,3.33,6.96-.4,7.4.6,1.09,2.43-23.52,37.89-20.63,40.67,1.25,1.21,6.42-3.99,10.92-1.88,2.6,1.22,2.38,3.65,5.21,7.26,4.4,5.61,11.78,8.47,13.26,6.97,1.39-1.41-3.7-5.39-3.22-12.04.43-5.88,5.09-12.06,9.72-12.42,2.97-.23,4.75,2.04,6.23,1.02,1.83-1.25-.42-5.03.8-8.69,2.17-6.48,13.44-1.93,20.63-5.7,1.73-.91.04,2.51,4.29,10.14,4.22,7.58,4.43,10.33,3.22,12.04-1.99,2.8-8.48.87-8.85,2.33-.32,1.25,4.54,2.1,6.68,5.93,2.4,4.31.97,11.67-3.2,14.5-4.42,3.01-9.6-.68-12.35,2.5-1.72,1.99-1.81,5.87-.07,8.03,3,3.7,9.4-.17,15.9,3.27,3.72,1.97,5.77,5.43,6.92,8.04,13.32-4.71,19.95-21.08,29.93-31.63,2.63,9.4,5.87,19.24,8.1,18.93,2.67-.37,4.83-20.84,6.75-19.69,15.26,9.19,23.39,15.51,32.64,28.02.94,1.27-18.82,5.9-19.24,8.94-.33,2.37,9.09,2.8,19.53,5.74-26.1,15.94-28.9,27.27-27.13,31.42,1.17,2.74,4.29,2.27,7.32,7.02,4.1,6.41,1.37,11.89,6.14,16.38.44.41,3.46,3.26,5.46,2.38,3.7-1.63-6.07-10,3.34-17.29,15.99-12.39,14.97,4.69,19.18.65,2.17-2.09.16-5.02,2.45-6.86,3.3-2.65,5.57.23,11.03.95,9.61,1.27,11.91-1.04,12.66.28.58,1.03-2.61,7.36-.69,12.18,2.49,6.26.61,5.39-1.4,7.97-2.26,2.9-6.01.92-8.23,3.76-2.38,3.06,1.11,6.43-.6,11.49-1.64,4.87-7.26,8.93-11.96,8.46-5.13-.51-7.44-6.23-9.15-5.36-1.6.81-1.68,6.87,1.53,10.91,4.22,5.32,11.09,3.28,13.22,7.67,2.06,4.24-3.29,10.3-1.59,10.4,17.53,1.01,38.19-25.74,39.42-23.69,1.27,2.12-2.09,10.28-.81,10.76,1.94.74,10.38-16.85,11.33-15.09,2.59,4.83,4.97,6.95,9.85,9.65,2.44,1.35-9.2,4.52-17.01,10.91-2.82,2.3-.33,5.62-1.68,9.6-2.18,6.44-10.53,11.11-18.03,10.94-5.21-.12-5.23-2.44-8.98-1.86-7.77,1.2-8.84,11.3-16.71,12.41-3.92.55-1.92-1.32-8.36-.43-4.18.57.88,5.04-4.1,12.37-5.81,5.16-15.31-2.39-16.77-.53-1.8,2.3-.21,6.17-2.12,7.22-2.24,1.23-6.41-2.95-7.22-2.12-.77.79,3.17,4.38,2.1,6.74-1.02,2.25-5.49.98-7.53,3.8-1.27,1.75-.85,4.04-.65,5.16,1.94,11.01.1,31.96-.72,33.82-5.18,11.81-5.98,17.68-20.92,29.27-6.7,5.2-13.59,6.71-24.53,10.46-15.06,5.15-17.53,4.72-18.62,5.9-10.17,11.02.92,36.54,5.56,47.23,7.11,16.35,16.58,28.55,25.05,39.46,10.86,13.99,18.34,20.76,22.22,35.11,1.66,6.17,3.74,14.27.04,21.37-5.87,11.28-22.68,13.14-30.11,14.08-31.25,3.95-88.8,11.23-130.01,34.47-16.41,9.25-36.24,24.43-51.66,17.55-1.81-.81-5.1-2.33-6.57-5.68-3.86-8.79,9.49-19.55,25.41-41.04,10.78-14.56,20.21-27.29,25.24-45.25,5.71-20.35,2.88-37.1,2.13-41.1-1.26-6.73-7.28-39.02-30.6-50.05-3.95-1.87-2.25-.22-28.67-6.45-23.02-5.43-28.03-7.56-29.89-12.24-1.91-4.78-1.62-14.93,3.05-21.97,1.15-1.73,2.85-3.71,2.2-5.61-1.18-3.47-6.35-3.64-7.28-6.71-.83-2.73,2.09-5.04,3.1-8.39,1.38-4.57-4.04-6.06-4.76-11.31-1.12-8.2,9.23-11.96,7.8-17.91-1.45-6.05-12.71-4.54-17.6-13.89-.48-.91-2.3-4.51-1.83-8.87.85-7.8,8.3-11.09,19.77-20.73,10.25-8.62,15.38-12.93,18.5-19.39Z"/>
  <path class="cls-4" d="M439.01,222.47c-.57-1.55.61-9.65,2.39-13.21,1.92-3.85,9.29-8.18,10.82-8.11,1.74.08,1.98,8.77-.42,13.82-2.92,6.13-12.37,8.63-12.79,7.51Z"/>
  <path class="cls-4" d="M556.29,322.02c.04-1.65,4.1-8.75,7.06-11.42,3.19-2.88,11.64-4.21,13.04-3.59,1.59.71-1.37,8.89-5.45,12.71-4.96,4.64-14.67,3.51-14.65,2.3Z"/>
  <circle class="cls-4" cx="513.57" cy="253.92" r="10.23"/>
  <path class="cls-2" d="M777.71,446.36c-86.48-19.12-161.45-41.97-247.71-61.16-35.26-7.85-72.04,3.52-96.62,29.98-55.48,59.72-119.44,121.61-175.13,181.38-24.92,26.75-33.46,64.86-22.46,99.73,25.5,80.88,51.01,161.76,76.51,242.64,11.44,36.29,42.21,63.15,79.71,69.59,86.83,14.91,173.66,29.81,260.49,44.72,35.56,6.1,71.64-7.17,94.93-34.73,52.89-62.57,105.35-117.29,158.24-179.92,22.57-26.72,29.69-63.23,18.99-96.54-23.67-73.72-48.66-153.6-72.38-227.54-11.01-34.33-39.36-60.35-74.57-68.13ZM832.68,529.61c22.01,68.61,45.2,142.73,67.16,211.13,9.92,30.9,3.32,64.78-17.62,89.58-49.08,58.12-97.75,108.89-146.83,166.95-21.62,25.57-55.09,37.89-88.09,32.22-80.57-13.83-161.14-27.66-241.7-41.49-34.8-5.97-63.35-30.89-73.96-64.57-23.67-75.05-47.33-150.09-70.99-225.14-10.2-32.35-2.28-67.72,20.84-92.54,51.68-55.46,111.03-112.89,162.5-168.3,22.81-24.55,56.94-35.1,89.66-27.82,80.04,17.81,149.6,39.01,229.85,56.75,32.67,7.22,58.98,31.36,69.19,63.22Z"/>
  <path class="cls-2" d="M757.35,475.02c-77.56-17.15-144.79-37.63-222.14-54.85-31.62-7.04-64.6,3.16-86.65,26.89-49.75,53.55-107.11,109.05-157.05,162.65-22.35,23.98-30,58.16-20.14,89.43,22.87,72.53,45.74,145.06,68.61,217.59,10.26,32.54,37.85,56.63,71.48,62.4,77.86,13.37,155.73,26.73,233.6,40.1,31.89,5.48,64.24-6.43,85.13-31.14,47.43-56.11,94.47-105.18,141.91-161.35,20.24-23.96,26.62-56.71,17.03-86.57-21.23-66.11-43.64-137.74-64.91-204.05-9.88-30.79-35.3-54.12-66.87-61.1ZM881.04,739.44c9.34,29.08,3.12,60.97-16.59,84.3-46.19,54.7-92,102.48-138.19,157.12-20.34,24.07-51.85,35.66-82.9,30.33-75.83-13.02-151.65-26.03-227.48-39.05-32.75-5.62-59.62-29.07-69.61-60.77-22.27-70.63-44.54-141.26-66.81-211.89-9.6-30.45-2.15-63.73,19.62-87.09,48.63-52.2,104.49-106.24,152.94-158.39,21.47-23.11,53.59-33.03,84.38-26.18,75.33,16.76,140.8,36.71,216.32,53.41,30.75,6.8,55.5,29.52,65.12,59.5,20.71,64.57,42.54,134.33,63.21,198.7Z"/>
  <path class="cls-2" d="M696.04,580.84l-277.92,96.59c-.34.12-.6.33-.91.5l-.21-.04-.06.19c-2.02,1.25-3.1,3.45-2.4,5.47l53.24,153.2c.81,2.32,3.59,3.43,6.32,2.63l.42.16.19-.32,277.28-96.37.35.14.23-.39c2.63-1.06,4.13-3.66,3.32-5.98l-53.24-153.2c-.84-2.4-3.79-3.56-6.6-2.58ZM697.25,589.52l50.62,145.66c.17.5.18,1.01.16,1.52l-134.88-52.76,83.87-94.79c.06.13.18.22.23.36ZM426.13,678.87l264.52-91.93c1.01-.35,2-.34,2.95-.19l-107.48,121.48-160.89-28.86c.3-.17.56-.38.91-.5ZM473.99,831.95c-.33-.38-.65-.79-.82-1.29l-50.62-145.66c-.22-.63-.25-1.27-.16-1.9l125.46,22.5-73.85,126.35ZM744.3,741.31l-264.52,91.93c-.58.2-1.17.26-1.74.29l74.31-127.13,35.81,6.42.33-.99h0l21.65-24.47,135.71,53.09c-.47.34-.96.65-1.54.85Z"/>
  <g>
    <path class="cls-2" d="M497.17,909.73l13.98-4.86c.5,1.44.89,2.77,1.18,3.98.29,1.22.43,2.39.42,3.52-.01,1.59-.26,3.08-.74,4.47-.48,1.39-1.18,2.65-2.09,3.79-.91,1.14-1.99,2.14-3.25,3-1.26.87-2.65,1.57-4.19,2.1-2.11.73-4.15,1.05-6.13.96-1.98-.09-3.81-.55-5.49-1.37s-3.18-2-4.49-3.52c-1.31-1.52-2.33-3.35-3.07-5.48-.73-2.11-1.06-4.16-.99-6.16.07-2,.52-3.84,1.34-5.52.83-1.68,2-3.18,3.54-4.49,1.53-1.31,3.39-2.35,5.57-3.1,2.83-.98,5.52-1.23,8.08-.75,2.56.48,4.9,1.79,7.04,3.92l-5.72,5.09c-1.14-1.27-2.32-2.05-3.54-2.35-1.22-.3-2.46-.23-3.73.21-1.06.37-1.95.9-2.67,1.59-.72.7-1.27,1.52-1.62,2.46-.36.94-.53,1.99-.52,3.14.01,1.15.24,2.36.68,3.63.4,1.15.92,2.17,1.56,3.04.64.88,1.39,1.57,2.24,2.08.85.51,1.78.81,2.81.9,1.02.09,2.12-.07,3.3-.48.7-.24,1.34-.55,1.93-.93.59-.38,1.09-.83,1.48-1.36.39-.53.66-1.12.81-1.79.14-.67.14-1.42-.02-2.25l-5.79,2.01-1.9-5.46Z"/>
    <path class="cls-2" d="M513.86,900.26l6.51-2.26,1.05,3.02c.31-1.34.87-2.48,1.67-3.42.8-.94,1.88-1.64,3.22-2.11.17-.06.35-.12.56-.19.2-.07.45-.13.73-.17l2.16,6.22c-1.01-.13-2.02-.02-3.03.33-1.51.52-2.49,1.37-2.93,2.53-.44,1.16-.36,2.61.24,4.33l2.75,7.91-6.51,2.26-6.41-18.44Z"/>
    <path class="cls-2" d="M537.12,892.18l3.61,10.39c.79,2.28,2.29,3.03,4.49,2.27,2.2-.77,2.91-2.29,2.12-4.57l-3.61-10.39,6.51-2.26,4.05,11.65c.87,2.49.69,4.65-.51,6.46-1.21,1.82-3.44,3.29-6.7,4.42-3.26,1.13-5.93,1.36-8,.69-2.08-.67-3.54-2.26-4.41-4.75l-4.05-11.65,6.51-2.26Z"/>
    <path class="cls-2" d="M554.66,886.08l6.51-2.26.81,2.34c.51-1.39,1.16-2.42,1.94-3.11.78-.69,1.78-1.24,3-1.67,1.29-.45,2.48-.62,3.54-.53,1.07.1,2.06.42,2.97.96.74.44,1.34,1.01,1.8,1.71.46.7.86,1.54,1.2,2.53l4.07,11.72-6.5,2.26-3.24-9.31c-.32-.91-.64-1.62-.97-2.14-.33-.52-.72-.88-1.17-1.1-.39-.19-.78-.28-1.18-.27-.4,0-.8.08-1.21.22-1.1.38-1.83,1-2.19,1.87-.36.86-.32,1.91.1,3.13l3.42,9.85-6.51,2.26-6.41-18.44Z"/>
    <path class="cls-2" d="M588.8,861.45l6.54-2.27,10.37,29.83-6.54,2.27-.71-2.05c-.78,2.23-2.36,3.76-4.73,4.59-1.34.47-2.66.64-3.97.53-1.3-.11-2.53-.47-3.67-1.06-1.15-.6-2.16-1.41-3.05-2.45-.88-1.04-1.57-2.25-2.05-3.64-.46-1.32-.67-2.65-.64-3.99s.3-2.59.81-3.77c.51-1.17,1.24-2.21,2.2-3.12.96-.91,2.12-1.6,3.49-2.08,2.3-.8,4.48-.66,6.55.42l-4.6-13.23ZM587.75,884.86c.21.6.51,1.12.91,1.56s.84.79,1.35,1.04c.5.25,1.05.4,1.64.44.59.04,1.18-.05,1.78-.26.58-.2,1.08-.5,1.52-.89.44-.39.78-.85,1.02-1.36.24-.51.38-1.06.44-1.64.05-.58-.02-1.16-.22-1.74-.2-.57-.5-1.08-.91-1.52-.41-.44-.86-.78-1.37-1.04-.5-.25-1.05-.4-1.64-.44-.59-.04-1.17.05-1.75.25-.57.2-1.08.5-1.52.89-.44.4-.78.85-1.02,1.36-.24.51-.39,1.06-.44,1.62-.06.57.02,1.14.21,1.72Z"/>
    <path class="cls-2" d="M606.27,855.38l10.37,29.83-6.51,2.26-10.37-29.83,6.51-2.26Z"/>
    <path class="cls-2" d="M636.05,869.32c.43,1.25,1.16,2.13,2.19,2.64,1.03.52,2.17.55,3.44.11,1.48-.52,2.28-1.44,2.38-2.76l6.33-2.2c.11,2.17-.47,4.09-1.74,5.78-1.27,1.69-3.13,2.96-5.6,3.82-3.69,1.28-6.54.93-8.55-1.06-1.11,2.99-3.22,5.03-6.34,6.11-1.13.39-2.21.61-3.23.66-1.03.05-1.97-.07-2.82-.35-.85-.28-1.59-.72-2.21-1.33-.63-.6-1.1-1.36-1.41-2.27-.33-.93-.43-1.84-.32-2.72.11-.89.4-1.71.88-2.46.48-.75,1.14-1.44,1.99-2.04.85-.6,1.85-1.11,3-1.51,1.51-.52,3.2-.75,5.08-.68l-.17-.5c-.77-2.21-2.64-2.79-5.61-1.76-1.15.4-2.72,1.34-4.71,2.8l-1.71-4.92c1.76-1.26,3.47-2.17,5.13-2.75,1.7-.59,3.17-.81,4.4-.67,1.23.15,2.43.67,3.6,1.55.78-2.71,2.74-4.62,5.91-5.72,3.28-1.14,6.1-1.08,8.46.18,2.36,1.26,4.16,3.68,5.4,7.25l-13.77,4.78ZM624.69,875.81c.22.62.66,1.04,1.32,1.23.66.2,1.43.15,2.32-.16.86-.3,1.56-.76,2.09-1.39.53-.63.7-1.23.5-1.81-.19-.55-.7-.9-1.51-1.04-.81-.15-1.69-.06-2.62.27-.84.29-1.45.7-1.83,1.22-.38.52-.47,1.08-.26,1.68ZM642.43,862.87c-1.27-1.81-2.88-2.38-4.82-1.71-1.84.64-2.74,2.08-2.69,4.32l7.51-2.61Z"/>
    <path class="cls-2" d="M670.58,845.8l5.97,17.18c.36,1.03.62,1.98.78,2.83.16.86.25,1.63.25,2.33-.01.89-.21,1.78-.58,2.68-.37.9-.9,1.75-1.59,2.55-.69.8-1.53,1.54-2.52,2.21-.99.67-2.12,1.22-3.39,1.66-1.44.5-2.82.78-4.14.83-1.32.06-2.54-.07-3.66-.4-1.12-.32-2.12-.81-2.99-1.46-.87-.65-1.58-1.45-2.12-2.39l7.33-2.55c.88,1.06,2.12,1.32,3.73.76,1.37-.47,2.28-1.22,2.75-2.24.46-1.02.46-2.21-.02-3.58l-.61-1.76c-.32.62-.65,1.16-.99,1.61-.34.46-.7.86-1.09,1.21s-.82.65-1.29.91-1.01.49-1.61.7c-1.32.46-2.61.65-3.87.58-1.26-.07-2.43-.38-3.52-.91-1.09-.53-2.05-1.3-2.89-2.28-.84-.98-1.5-2.17-1.98-3.56-.49-1.41-.71-2.81-.65-4.18.06-1.38.35-2.66.86-3.84.51-1.19,1.25-2.23,2.21-3.15.96-.91,2.11-1.6,3.45-2.06,2.18-.76,4.29-.58,6.35.53l-.67-1.94,6.51-2.26ZM659.15,860c.21.6.51,1.12.91,1.56.39.44.84.79,1.35,1.04.5.26,1.05.4,1.64.44.59.04,1.18-.05,1.78-.26.58-.2,1.08-.5,1.52-.89.44-.39.78-.85,1.02-1.36.24-.51.38-1.06.43-1.66.05-.59-.03-1.18-.23-1.76-.21-.6-.51-1.11-.92-1.53-.4-.42-.86-.76-1.38-1.01-.52-.25-1.07-.39-1.66-.43-.59-.04-1.16.04-1.71.23-.58.2-1.07.5-1.5.9-.42.4-.76.86-1.02,1.36-.25.51-.41,1.05-.46,1.63s.02,1.16.22,1.74Z"/>
    <path class="cls-2" d="M695.63,837.09l5.97,17.18c.36,1.03.62,1.98.78,2.83.16.86.25,1.63.25,2.33-.01.89-.21,1.78-.58,2.68-.37.9-.9,1.75-1.59,2.55-.69.8-1.53,1.54-2.52,2.21-.99.67-2.12,1.22-3.39,1.66-1.44.5-2.82.78-4.14.83-1.32.06-2.54-.07-3.66-.4-1.12-.32-2.11-.81-2.99-1.46-.87-.65-1.58-1.45-2.12-2.39l7.33-2.55c.88,1.06,2.12,1.32,3.73.76,1.37-.47,2.28-1.22,2.75-2.24s.46-2.21-.02-3.58l-.61-1.76c-.32.62-.65,1.16-.99,1.61-.34.46-.7.86-1.09,1.21-.39.35-.82.65-1.29.91-.47.26-1.01.49-1.61.7-1.32.46-2.61.65-3.87.58-1.26-.07-2.43-.38-3.52-.91-1.09-.53-2.05-1.3-2.89-2.28-.84-.98-1.5-2.17-1.98-3.56-.49-1.41-.71-2.81-.65-4.19.06-1.38.35-2.66.86-3.84.51-1.19,1.25-2.23,2.21-3.15.96-.91,2.11-1.6,3.45-2.06,2.18-.76,4.29-.58,6.35.53l-.67-1.94,6.51-2.26ZM684.21,851.29c.21.6.51,1.12.91,1.56.39.44.84.79,1.35,1.04.5.26,1.05.4,1.64.44.59.04,1.18-.05,1.78-.26.58-.2,1.08-.5,1.52-.89.44-.39.78-.85,1.02-1.36.24-.51.38-1.07.43-1.66.05-.59-.03-1.18-.23-1.75-.21-.6-.51-1.11-.92-1.53-.4-.42-.86-.76-1.38-1.01-.52-.25-1.07-.39-1.66-.43-.59-.04-1.16.04-1.71.23-.57.2-1.07.5-1.5.9-.42.4-.76.86-1.02,1.36-.25.51-.41,1.05-.46,1.63s.02,1.16.22,1.74Z"/>
    <path class="cls-2" d="M709.92,843.69c.97,2.8,2.78,3.75,5.42,2.83,1.41-.49,2.28-1.44,2.6-2.84l6.29-2.19c.2,4.66-2.25,7.87-7.33,9.64-1.56.54-3.06.8-4.52.79-1.46-.02-2.79-.3-4.02-.84-1.22-.54-2.29-1.32-3.21-2.35-.92-1.02-1.64-2.28-2.15-3.76-.53-1.53-.77-3-.72-4.4.05-1.4.37-2.68.96-3.86.59-1.17,1.43-2.21,2.52-3.11,1.1-.9,2.43-1.63,4.02-2.18,1.56-.54,3.04-.79,4.45-.76,1.41.03,2.7.34,3.87.93,1.17.59,2.21,1.44,3.11,2.57.9,1.12,1.63,2.49,2.19,4.09l.24.68-13.69,4.76ZM716.23,837.26c-.53-.84-1.23-1.41-2.09-1.73-.86-.32-1.77-.31-2.73.02-1.01.35-1.74.9-2.19,1.65-.45.75-.59,1.63-.43,2.65l7.44-2.59Z"/>
    <path class="cls-2" d="M723.74,827.32l6.51-2.26.81,2.34c.51-1.39,1.16-2.42,1.94-3.11.78-.69,1.78-1.24,3.01-1.67,1.29-.45,2.47-.62,3.54-.53,1.07.1,2.06.42,2.97.96.74.44,1.34,1.01,1.8,1.71.46.7.86,1.54,1.2,2.52l4.07,11.72-6.51,2.26-3.23-9.31c-.32-.91-.64-1.62-.97-2.14-.33-.52-.72-.88-1.17-1.1-.39-.19-.78-.28-1.18-.27-.4,0-.81.08-1.21.22-1.1.38-1.83,1-2.19,1.87-.36.86-.32,1.91.1,3.13l3.42,9.85-6.51,2.26-6.41-18.44Z"/>
    <path class="cls-2" d="M757.88,802.69l6.54-2.27,10.37,29.83-6.54,2.27-.71-2.05c-.78,2.23-2.36,3.76-4.73,4.59-1.34.47-2.67.64-3.97.53-1.3-.11-2.53-.47-3.67-1.06-1.15-.59-2.16-1.41-3.05-2.45-.88-1.04-1.57-2.25-2.05-3.64-.46-1.32-.67-2.65-.64-3.99s.3-2.59.81-3.76c.51-1.17,1.24-2.21,2.2-3.12.96-.91,2.12-1.6,3.49-2.07,2.3-.8,4.48-.66,6.55.42l-4.6-13.23ZM756.82,826.1c.21.6.51,1.12.91,1.56s.84.79,1.35,1.04c.5.26,1.05.4,1.64.44.59.04,1.18-.05,1.78-.26.58-.2,1.08-.5,1.52-.89.44-.39.78-.85,1.02-1.36.24-.51.38-1.06.44-1.64.05-.58-.02-1.16-.22-1.74-.2-.57-.5-1.08-.91-1.52-.41-.44-.86-.78-1.37-1.04-.5-.25-1.05-.4-1.64-.44-.59-.04-1.17.05-1.75.25-.57.2-1.08.5-1.52.89-.44.4-.78.85-1.02,1.36-.24.51-.39,1.06-.44,1.62-.06.57.02,1.14.21,1.72Z"/>
    <path class="cls-2" d="M782.24,818.55c.97,2.8,2.78,3.75,5.42,2.83,1.41-.49,2.28-1.44,2.6-2.84l6.29-2.19c.2,4.66-2.25,7.87-7.32,9.64-1.56.54-3.07.8-4.52.79-1.46-.02-2.8-.3-4.02-.84-1.22-.54-2.29-1.32-3.21-2.35-.92-1.02-1.64-2.28-2.15-3.76-.53-1.53-.77-3-.72-4.4.05-1.4.37-2.69.96-3.86.59-1.17,1.43-2.21,2.52-3.11,1.1-.9,2.44-1.63,4.02-2.18,1.56-.54,3.04-.79,4.45-.76,1.41.03,2.7.34,3.87.93,1.17.58,2.21,1.44,3.11,2.56.9,1.13,1.63,2.49,2.19,4.1l.24.68-13.7,4.76ZM788.55,812.13c-.53-.83-1.23-1.41-2.09-1.73-.86-.32-1.77-.31-2.73.02-1.01.35-1.74.9-2.19,1.65-.45.75-.59,1.63-.43,2.65l7.44-2.59Z"/>
  </g>
  <g>
    <path class="cls-1" d="M414.19,599.47c-.8-2.77-1.17-5.38-1.1-7.85.07-2.47.52-4.69,1.37-6.67.84-1.97,2.04-3.66,3.58-5.06,1.54-1.4,3.41-2.41,5.59-3.04,2.15-.62,4.26-.76,6.33-.41,2.07.35,3.98,1.14,5.73,2.36,1.75,1.22,3.32,2.86,4.69,4.91,1.38,2.05,2.46,4.46,3.27,7.22.8,2.77,1.17,5.38,1.1,7.85-.07,2.47-.51,4.7-1.34,6.68-.83,1.99-2.02,3.68-3.58,5.08-1.56,1.4-3.42,2.41-5.57,3.04-2.18.63-4.3.77-6.35.42-2.05-.36-3.96-1.15-5.74-2.39-1.77-1.23-3.35-2.88-4.72-4.93-1.38-2.05-2.47-4.46-3.27-7.22ZM423.13,596.88c.44,1.54.99,2.89,1.63,4.07.64,1.18,1.35,2.16,2.12,2.93s1.59,1.31,2.44,1.62c.85.3,1.73.32,2.62.07.86-.25,1.58-.73,2.15-1.45.58-.72.98-1.61,1.2-2.67.22-1.06.29-2.27.2-3.61-.09-1.34-.35-2.78-.8-4.32-.44-1.51-.98-2.86-1.62-4.05-.64-1.2-1.35-2.18-2.1-2.94s-1.57-1.29-2.43-1.59c-.87-.3-1.73-.32-2.59-.07-.89.26-1.62.74-2.18,1.46-.56.71-.96,1.6-1.21,2.65-.24,1.05-.32,2.26-.23,3.62.09,1.36.36,2.79.79,4.29Z"/>
    <path class="cls-1" d="M457.31,582.89c.25-.04.47-.09.64-.13.17-.05.32-.09.44-.13,1.14-.33,1.96-.93,2.47-1.81.51-.88.61-1.86.3-2.94-.3-1.04-.88-1.79-1.73-2.25-.85-.46-1.79-.53-2.84-.23-1.11.32-1.89.95-2.35,1.88s-.52,1.98-.19,3.15l-8.35,2.42c-.31-1.88-.32-3.62-.04-5.23.28-1.61.82-3.06,1.62-4.34.8-1.28,1.84-2.38,3.14-3.31,1.3-.93,2.82-1.64,4.57-2.15,1.72-.5,3.35-.71,4.89-.64,1.54.07,2.93.4,4.18.99,1.25.59,2.33,1.43,3.23,2.51.9,1.09,1.57,2.4,2.01,3.94.48,1.66.56,3.11.24,4.35-.32,1.24-.96,2.42-1.9,3.53,1.94.04,3.62.62,5.03,1.77s2.42,2.76,3.03,4.85c.5,1.72.61,3.39.35,5-.27,1.61-.86,3.1-1.78,4.46-.92,1.37-2.14,2.57-3.65,3.61-1.51,1.04-3.27,1.85-5.27,2.42-2.67.78-5.24.95-7.69.53-2.46-.42-4.66-1.58-6.61-3.48-.88-.85-1.56-1.75-2.06-2.7-.5-.96-.89-1.96-1.2-3l8.95-2.59c.53,1.61,1.37,2.71,2.5,3.3,1.14.59,2.46.66,3.96.23,1.6-.46,2.64-1.23,3.13-2.3.49-1.07.55-2.24.18-3.5-.44-1.51-1.21-2.51-2.32-3.02-1.12-.51-2.29-.59-3.52-.23-.31.09-.59.2-.86.32-.26.13-.55.27-.88.43l-1.64-5.67Z"/>
    <path class="cls-1" d="M499.3,556.04l5.47,18.9c.29,1.02.63,2.04,1.02,3.08.38,1.04.89,1.93,1.53,2.68.63.75,1.44,1.28,2.43,1.57.99.3,2.23.23,3.74-.21,1.51-.44,2.59-1.04,3.25-1.81.66-.77,1.06-1.65,1.21-2.62.15-.98.11-2-.12-3.09-.23-1.08-.49-2.13-.79-3.14l-5.47-18.9,8.99-2.6,5.83,20.15c1.57,5.41,1.47,9.72-.28,12.92-1.75,3.21-5.2,5.55-10.33,7.04-5.13,1.49-9.3,1.34-12.52-.42-3.21-1.77-5.6-5.36-7.17-10.77l-5.83-20.15,9.04-2.62Z"/>
    <path class="cls-1" d="M542.5,561.12l-15.53-13.09,11.16-3.23,7.31,7.63,3.21-10.67,11.16-3.23-6.78,19.55,18.32,14.78-11.02,3.19-10.25-9.33-4.88,13.71-10.93,3.16,8.24-22.47Z"/>
    <path class="cls-1" d="M579.16,529.12l6.59-1.91-5.61,51.74-6.55,1.9,5.56-51.73Z"/>
    <path class="cls-1" d="M599.77,526.95l5.47,18.9c.29,1.01.63,2.04,1.02,3.08.38,1.04.89,1.93,1.53,2.68s1.44,1.27,2.43,1.57c.99.3,2.23.23,3.74-.21,1.51-.44,2.59-1.04,3.25-1.81.66-.77,1.06-1.65,1.21-2.62.15-.98.11-2.01-.12-3.09-.23-1.08-.49-2.13-.79-3.14l-5.47-18.9,8.99-2.6,5.83,20.15c1.57,5.41,1.47,9.72-.28,12.92-1.75,3.21-5.2,5.55-10.33,7.04-5.13,1.49-9.3,1.34-12.52-.43s-5.6-5.36-7.16-10.77l-5.83-20.15,9.04-2.62Z"/>
    <path class="cls-1" d="M637.35,516.07l10.06,34.77-9.04,2.62-10.06-34.76,9.04-2.62Z"/>
  </g>
</svg>